G75*
%MOIN*%
%OFA0B0*%
%FSLAX24Y24*%
%IPPOS*%
%LPD*%
%AMOC8*
5,1,8,0,0,1.08239X$1,22.5*
%
%ADD10OC8,0.0520*%
%ADD11R,0.0630X0.1063*%
%ADD12R,0.0591X0.1142*%
%ADD13OC8,0.0630*%
%ADD14C,0.0630*%
%ADD15R,0.1142X0.0591*%
%ADD16R,0.0630X0.0394*%
%ADD17C,0.1000*%
%ADD18OC8,0.1000*%
%ADD19R,0.0354X0.0551*%
%ADD20R,0.0551X0.0354*%
%ADD21R,0.0394X0.0630*%
%ADD22R,0.0709X0.0551*%
%ADD23C,0.0780*%
%ADD24C,0.0760*%
%ADD25C,0.0860*%
%ADD26C,0.2300*%
%ADD27OC8,0.0700*%
%ADD28R,0.0945X0.0709*%
%ADD29R,0.0460X0.0630*%
%ADD30R,0.0630X0.0460*%
%ADD31R,0.0866X0.0630*%
%ADD32C,0.0600*%
%ADD33C,0.0240*%
%ADD34C,0.0160*%
%ADD35C,0.0317*%
%ADD36C,0.0320*%
%ADD37C,0.0100*%
%ADD38C,0.0120*%
D10*
X010330Y008822D03*
X011330Y008822D03*
X010330Y009822D03*
X010330Y010822D03*
X010330Y011822D03*
X010330Y012822D03*
X010330Y013822D03*
X009330Y014322D03*
X008330Y014322D03*
X010330Y014822D03*
X010330Y015822D03*
X009330Y015822D03*
X009330Y016822D03*
X010330Y016822D03*
X014580Y015822D03*
X015580Y015822D03*
X015580Y014822D03*
X014580Y014822D03*
X014580Y013822D03*
X015580Y013822D03*
X015580Y012822D03*
X014580Y012822D03*
X014580Y011822D03*
X015580Y011822D03*
X015580Y010322D03*
X014580Y010322D03*
X014580Y009322D03*
X016580Y010322D03*
X017080Y013822D03*
X018080Y013822D03*
X018080Y014822D03*
X017080Y014822D03*
X023830Y015072D03*
X024830Y015072D03*
X025830Y015072D03*
X025830Y016072D03*
X024830Y016072D03*
X023830Y016072D03*
X023830Y017072D03*
X024830Y017072D03*
X025830Y017072D03*
X025830Y018072D03*
X024830Y018072D03*
X023830Y018072D03*
X023830Y019322D03*
X024830Y019322D03*
X025830Y019322D03*
X025830Y020322D03*
X024830Y020322D03*
X023830Y020322D03*
X023830Y021322D03*
X024830Y021322D03*
X025830Y021322D03*
X025830Y022322D03*
X024830Y022322D03*
X023830Y022322D03*
X019830Y023322D03*
X018830Y023322D03*
X018830Y024322D03*
X019830Y024322D03*
X023830Y013572D03*
X024830Y013572D03*
X025830Y013572D03*
X025830Y012572D03*
X025830Y011572D03*
X025830Y010572D03*
X024830Y010572D03*
X023830Y010572D03*
X023830Y011572D03*
X024830Y011572D03*
X024830Y012572D03*
X023830Y012572D03*
X023830Y009322D03*
X024830Y009322D03*
X025830Y009322D03*
X025830Y008322D03*
X025830Y007322D03*
X025830Y006322D03*
X024830Y006322D03*
X023830Y006322D03*
X023830Y007322D03*
X024830Y007322D03*
X024830Y008322D03*
X023830Y008322D03*
X028455Y005447D03*
X029455Y005447D03*
X030455Y005447D03*
X031455Y005447D03*
X033330Y005572D03*
X033330Y006572D03*
X033330Y007572D03*
X033330Y008572D03*
X035080Y010572D03*
X036080Y010572D03*
X037080Y010572D03*
X038080Y010572D03*
X038080Y016885D03*
X037080Y016885D03*
X037080Y017885D03*
X038080Y017885D03*
X036080Y017385D03*
X035080Y017385D03*
D11*
X027881Y017322D03*
X026779Y017322D03*
X026779Y015822D03*
X027881Y015822D03*
X027881Y012822D03*
X026779Y012822D03*
X026779Y011322D03*
X027881Y011322D03*
X027881Y008572D03*
X026779Y008572D03*
X026779Y007072D03*
X027881Y007072D03*
X027881Y020072D03*
X026779Y020072D03*
X026779Y021572D03*
X027881Y021572D03*
D12*
X019796Y015197D03*
X018614Y015197D03*
X018614Y013447D03*
X019796Y013447D03*
X011296Y018947D03*
X010114Y018947D03*
X025239Y004197D03*
X026421Y004197D03*
D13*
X021330Y004322D03*
X018455Y008822D03*
X017955Y011322D03*
X017955Y016322D03*
X018455Y020322D03*
X021330Y024322D03*
X029455Y016822D03*
X028455Y011822D03*
X010205Y005572D03*
X006705Y007072D03*
D14*
X005705Y007072D03*
X009205Y005572D03*
X018455Y007822D03*
X022330Y004322D03*
X029455Y011822D03*
X028455Y016822D03*
X018455Y019322D03*
X017955Y017322D03*
X017955Y012322D03*
X022330Y024322D03*
D15*
X022330Y021413D03*
X022330Y020232D03*
X022330Y017163D03*
X022330Y015982D03*
X022330Y012663D03*
X022330Y011482D03*
X022330Y008413D03*
X022330Y007232D03*
X013080Y013482D03*
X013080Y014663D03*
X012080Y016607D03*
X012080Y017788D03*
X012205Y020357D03*
X012205Y021538D03*
X012205Y021857D03*
X012205Y023038D03*
X008330Y022788D03*
X008330Y021607D03*
X008330Y020288D03*
X008330Y019107D03*
X011330Y010913D03*
X011330Y009732D03*
X011080Y007413D03*
X011080Y006232D03*
X031455Y016982D03*
X032330Y016663D03*
X032330Y015482D03*
X031455Y018163D03*
D16*
X032330Y018010D03*
X032330Y017135D03*
X031455Y016510D03*
X031455Y015635D03*
X029830Y015510D03*
X029080Y015510D03*
X028330Y015510D03*
X028330Y014635D03*
X029080Y014635D03*
X029080Y014010D03*
X028330Y014010D03*
X028330Y013135D03*
X029080Y013135D03*
X029830Y013135D03*
X029830Y014010D03*
X029830Y014635D03*
X035330Y014760D03*
X035330Y015635D03*
X027830Y006385D03*
X027830Y005510D03*
X021330Y007385D03*
X021330Y008260D03*
X021330Y011635D03*
X021330Y012510D03*
X016705Y012760D03*
X016705Y013635D03*
X013080Y013010D03*
X012080Y013635D03*
X012080Y014510D03*
X013080Y015135D03*
X013080Y016010D03*
X012955Y016760D03*
X012955Y017635D03*
X011330Y020510D03*
X010455Y020510D03*
X010455Y021385D03*
X010455Y021635D03*
X010455Y022510D03*
X011330Y022885D03*
X011330Y022010D03*
X011330Y021385D03*
X007330Y021760D03*
X007330Y022635D03*
X007455Y020135D03*
X006455Y020135D03*
X006455Y019260D03*
X007455Y019260D03*
X013080Y012135D03*
X012080Y010510D03*
X012080Y009635D03*
X010080Y007510D03*
X010080Y006635D03*
X011080Y005760D03*
X011080Y004885D03*
X004580Y006635D03*
X004580Y007510D03*
X021330Y016135D03*
X021330Y017010D03*
X021330Y020385D03*
X021330Y021260D03*
D17*
X015080Y019822D03*
X004580Y020822D03*
X003580Y009322D03*
X017330Y004822D03*
X028955Y009322D03*
X028955Y021322D03*
D18*
X028955Y019322D03*
X015080Y021822D03*
X002580Y020822D03*
X003580Y011322D03*
X019330Y004822D03*
X028955Y007322D03*
D19*
X035456Y011947D03*
X035456Y012572D03*
X036204Y012572D03*
X036581Y012572D03*
X036581Y011947D03*
X036204Y011947D03*
X037329Y011947D03*
X037329Y012572D03*
X036204Y013697D03*
X036204Y014197D03*
X035456Y014197D03*
X035456Y013697D03*
D20*
X037705Y013571D03*
X037705Y013948D03*
X038330Y013948D03*
X038330Y013571D03*
X038330Y012823D03*
X037705Y012823D03*
X037705Y014696D03*
X038330Y014696D03*
X017205Y015948D03*
X016705Y015948D03*
X016705Y016696D03*
X016705Y016948D03*
X017205Y016948D03*
X017205Y016696D03*
X017205Y017696D03*
X017205Y017948D03*
X016705Y017948D03*
X016705Y017696D03*
X015955Y017696D03*
X015955Y017948D03*
X015455Y017948D03*
X015455Y017696D03*
X015455Y016948D03*
X015955Y016948D03*
X015955Y018696D03*
X015455Y018696D03*
X016705Y018696D03*
X017205Y018696D03*
D21*
X017642Y012322D03*
X016767Y012322D03*
X012892Y005947D03*
X012017Y005947D03*
X007392Y004447D03*
X006517Y004447D03*
X006892Y005572D03*
X006017Y005572D03*
X025392Y005072D03*
X026267Y005072D03*
D22*
X009205Y019028D03*
X009205Y020367D03*
X014330Y020153D03*
X014330Y021492D03*
D23*
X004345Y017542D02*
X003565Y017542D01*
X003565Y015572D02*
X004345Y015572D01*
X004345Y013602D02*
X003565Y013602D01*
D24*
X036580Y013947D03*
X036580Y007072D03*
X036580Y020822D03*
D25*
X034580Y022822D03*
X038580Y022822D03*
X038580Y018822D03*
X038580Y015947D03*
X034580Y015947D03*
X034580Y018822D03*
X034580Y011947D03*
X034580Y009072D03*
X038580Y009072D03*
X038580Y011947D03*
X038580Y005072D03*
X034580Y005072D03*
D26*
X038080Y002947D03*
X038080Y024947D03*
X002830Y024947D03*
X002830Y002947D03*
D27*
X008080Y024572D03*
X010080Y024572D03*
X012080Y024572D03*
D28*
X004830Y017620D03*
X004830Y016025D03*
X004830Y015120D03*
X004830Y013525D03*
D29*
X004755Y024947D03*
X004155Y024947D03*
D30*
X002830Y004872D03*
X002830Y004272D03*
X037330Y004272D03*
X037330Y004872D03*
X037330Y023022D03*
X037330Y023622D03*
D31*
X005330Y006624D03*
X005330Y005521D03*
D32*
X004380Y006572D02*
X003780Y006572D01*
X003780Y007572D02*
X004380Y007572D01*
D33*
X004580Y006635D02*
X004580Y006572D01*
X005279Y006572D01*
X005330Y006624D01*
X005705Y006999D01*
X005705Y007072D01*
X004580Y006572D02*
X004080Y006572D01*
X002955Y005447D02*
X002830Y005447D01*
X002205Y006072D01*
X002205Y016447D01*
X003330Y017572D01*
X003925Y017572D01*
X003955Y017542D01*
X015455Y017696D02*
X015455Y017948D01*
X015455Y017697D02*
X015704Y017697D01*
X015767Y017760D01*
X015831Y017696D01*
X015955Y017696D01*
X015767Y017760D02*
X015955Y017948D01*
X015455Y017696D02*
X015455Y017697D01*
X016705Y017696D02*
X017205Y017696D01*
X017205Y017948D01*
X016705Y017948D02*
X016705Y017696D01*
X016705Y016948D02*
X016705Y016696D01*
X016705Y016697D01*
X016954Y016697D01*
X017017Y016760D01*
X017081Y016696D01*
X017205Y016696D01*
X017017Y016760D02*
X017205Y016948D01*
X017955Y016322D02*
X017955Y016072D01*
X018018Y016010D01*
X017956Y015948D01*
X017205Y015948D01*
X016705Y015948D01*
X018018Y016010D02*
X018614Y015413D01*
X018614Y015197D01*
X018614Y013447D02*
X018614Y013232D01*
X017955Y012572D01*
X017955Y012322D01*
X025830Y012572D02*
X026529Y012572D01*
X026779Y012822D01*
X026529Y011572D02*
X025830Y011572D01*
X026529Y011572D02*
X026779Y011322D01*
X028330Y013135D02*
X028455Y013260D01*
X028705Y013322D01*
X028705Y015322D02*
X028455Y015385D01*
X028330Y015510D01*
X026830Y015874D02*
X026779Y015822D01*
X026830Y015874D02*
X026830Y016072D01*
X025830Y016072D01*
X025830Y017072D02*
X026529Y017072D01*
X026779Y017322D01*
X026779Y020072D02*
X026705Y020146D01*
X026705Y020322D01*
X025830Y020322D01*
X025830Y021322D02*
X026529Y021322D01*
X026779Y021572D01*
X017205Y018696D02*
X016705Y018696D01*
X015955Y018696D01*
X015455Y018696D01*
X026529Y008322D02*
X026779Y008572D01*
X026529Y008322D02*
X025830Y008322D01*
X025830Y007322D02*
X026529Y007322D01*
X026779Y007072D01*
X006705Y004635D02*
X006517Y004447D01*
X005705Y004572D02*
X005705Y005447D01*
X006017Y005572D01*
X005944Y005521D02*
X005330Y005521D01*
D34*
X001392Y001197D02*
X001392Y026572D01*
X031455Y026572D01*
X031455Y024572D01*
X033955Y024572D01*
X033955Y026572D01*
X039580Y026572D01*
X039580Y001197D01*
X001392Y001197D01*
X001392Y001314D02*
X039580Y001314D01*
X039580Y001473D02*
X001392Y001473D01*
X001392Y001631D02*
X002525Y001631D01*
X002652Y001597D02*
X003008Y001597D01*
X003351Y001689D01*
X003659Y001867D01*
X003910Y002119D01*
X004088Y002426D01*
X004180Y002770D01*
X004180Y003125D01*
X004088Y003469D01*
X003910Y003776D01*
X003659Y004028D01*
X003351Y004205D01*
X003345Y004207D01*
X003345Y004585D01*
X003228Y004702D01*
X002432Y004702D01*
X002315Y004585D01*
X002315Y004207D01*
X002309Y004205D01*
X002001Y004028D01*
X001750Y003776D01*
X001572Y003469D01*
X001480Y003125D01*
X001480Y002770D01*
X001572Y002426D01*
X001750Y002119D01*
X002001Y001867D01*
X002309Y001689D01*
X002652Y001597D01*
X003135Y001631D02*
X037775Y001631D01*
X037902Y001597D02*
X037559Y001689D01*
X037251Y001867D01*
X037000Y002119D01*
X036822Y002426D01*
X036730Y002770D01*
X036730Y003125D01*
X036822Y003469D01*
X037000Y003776D01*
X037066Y003842D01*
X036932Y003842D01*
X036815Y003960D01*
X036815Y004585D01*
X036932Y004702D01*
X037728Y004702D01*
X037845Y004585D01*
X037845Y004282D01*
X037902Y004297D01*
X038258Y004297D01*
X038601Y004205D01*
X038909Y004028D01*
X039160Y003776D01*
X039338Y003469D01*
X039430Y003125D01*
X039430Y002770D01*
X039338Y002426D01*
X039160Y002119D01*
X038909Y001867D01*
X038601Y001689D01*
X038258Y001597D01*
X037902Y001597D01*
X038385Y001631D02*
X039580Y001631D01*
X039580Y001790D02*
X038775Y001790D01*
X038990Y001948D02*
X039580Y001948D01*
X039580Y002107D02*
X039149Y002107D01*
X039245Y002265D02*
X039580Y002265D01*
X039580Y002424D02*
X039337Y002424D01*
X039380Y002582D02*
X039580Y002582D01*
X039580Y002741D02*
X039422Y002741D01*
X039430Y002899D02*
X039580Y002899D01*
X039580Y003058D02*
X039430Y003058D01*
X039406Y003216D02*
X039580Y003216D01*
X039580Y003375D02*
X039363Y003375D01*
X039301Y003533D02*
X039580Y003533D01*
X039580Y003692D02*
X039209Y003692D01*
X039086Y003850D02*
X039580Y003850D01*
X039580Y004009D02*
X038928Y004009D01*
X038667Y004167D02*
X039580Y004167D01*
X039580Y004326D02*
X037845Y004326D01*
X037845Y004484D02*
X039580Y004484D01*
X039580Y004643D02*
X037787Y004643D01*
X036873Y004643D02*
X035236Y004643D01*
X035115Y004764D02*
X034615Y005264D01*
X034521Y005357D01*
X031139Y005357D01*
X030139Y004357D01*
X030045Y004264D01*
X030045Y002006D01*
X030295Y001756D01*
X030389Y001662D01*
X035021Y001662D01*
X035365Y002006D01*
X035365Y002139D01*
X035365Y004381D01*
X035365Y004514D01*
X035115Y004764D01*
X035077Y004801D02*
X039580Y004801D01*
X039580Y004960D02*
X034919Y004960D01*
X034760Y005118D02*
X039580Y005118D01*
X039580Y005277D02*
X034602Y005277D01*
X034388Y005932D02*
X034470Y006014D01*
X034470Y008630D01*
X034220Y008880D01*
X034220Y009264D01*
X034388Y009432D01*
X034470Y009514D01*
X034470Y011505D01*
X034220Y011755D01*
X034220Y012139D01*
X034498Y012417D01*
X034690Y012417D01*
X034690Y012389D01*
X034940Y012139D01*
X034940Y011212D01*
X034897Y011212D01*
X034647Y010962D01*
X034565Y010880D01*
X034565Y010264D01*
X034815Y010014D01*
X034897Y009932D01*
X037263Y009932D01*
X037345Y010014D01*
X037513Y010182D01*
X037595Y010264D01*
X037595Y010764D01*
X037720Y010889D01*
X037720Y012446D01*
X038688Y012446D01*
X038806Y012563D01*
X038806Y013083D01*
X038740Y013149D01*
X038740Y013246D01*
X038806Y013311D01*
X038806Y014208D01*
X038688Y014326D01*
X037485Y014326D01*
X037485Y014378D01*
X037442Y014481D01*
X037364Y014560D01*
X036989Y014935D01*
X036886Y014977D01*
X036807Y014977D01*
X036783Y015002D01*
X036651Y015056D01*
X036509Y015056D01*
X036377Y015002D01*
X036353Y014977D01*
X035901Y014977D01*
X035845Y015034D01*
X035845Y015040D01*
X035728Y015157D01*
X035722Y015157D01*
X035521Y015357D01*
X034845Y015357D01*
X034845Y015380D01*
X034595Y015630D01*
X034595Y016264D01*
X034638Y016307D01*
X037388Y016307D01*
X038513Y017432D01*
X038595Y017514D01*
X038595Y018193D01*
X038407Y018380D01*
X038325Y018462D01*
X034638Y018462D01*
X034595Y018505D01*
X034595Y019139D01*
X034763Y019307D01*
X034845Y019389D01*
X034845Y022443D01*
X034365Y022923D01*
X034365Y022951D01*
X034271Y023045D01*
X023701Y023045D01*
X023264Y022607D01*
X023170Y022514D01*
X023170Y006131D01*
X023545Y005756D01*
X023545Y005756D01*
X023639Y005662D01*
X023889Y005662D01*
X024065Y005486D01*
X024065Y003962D01*
X023647Y003962D01*
X023565Y003880D01*
X023522Y003837D01*
X023440Y003755D01*
X023440Y002389D01*
X023565Y002264D01*
X023647Y002182D01*
X027700Y002182D01*
X028950Y003432D01*
X029638Y003432D01*
X029720Y003514D01*
X029720Y005062D01*
X029915Y005257D01*
X029915Y005638D01*
X029817Y005736D01*
X030013Y005932D01*
X034388Y005932D01*
X034470Y006069D02*
X039580Y006069D01*
X039580Y005911D02*
X029992Y005911D01*
X030109Y005752D02*
X029833Y005752D01*
X029915Y005594D02*
X029995Y005594D01*
X029995Y005638D02*
X029995Y005257D01*
X030264Y004987D01*
X030646Y004987D01*
X030915Y005257D01*
X030915Y005638D01*
X030646Y005907D01*
X030264Y005907D01*
X029995Y005638D01*
X029995Y005435D02*
X029915Y005435D01*
X029915Y005277D02*
X029995Y005277D01*
X030133Y005118D02*
X029777Y005118D01*
X029720Y004960D02*
X030741Y004960D01*
X030777Y005118D02*
X030900Y005118D01*
X030915Y005277D02*
X031058Y005277D01*
X030915Y005435D02*
X039580Y005435D01*
X039580Y005594D02*
X030915Y005594D01*
X030801Y005752D02*
X039580Y005752D01*
X039580Y006228D02*
X034470Y006228D01*
X034470Y006386D02*
X036206Y006386D01*
X036188Y006393D02*
X036498Y006292D01*
X036823Y006326D01*
X037105Y006489D01*
X037105Y006489D01*
X037105Y006489D01*
X037297Y006753D01*
X037297Y006753D01*
X037365Y007072D01*
X037297Y007392D01*
X037105Y007656D01*
X036823Y007819D01*
X036823Y007819D01*
X036498Y007853D01*
X036188Y007752D01*
X036188Y007752D01*
X035945Y007534D01*
X035812Y007236D01*
X035812Y006909D01*
X035945Y006611D01*
X036188Y006393D01*
X036188Y006393D01*
X036018Y006545D02*
X034470Y006545D01*
X034470Y006703D02*
X035904Y006703D01*
X035945Y006611D02*
X035945Y006611D01*
X035945Y006611D01*
X035833Y006862D02*
X034470Y006862D01*
X034470Y007020D02*
X035812Y007020D01*
X035812Y007179D02*
X034470Y007179D01*
X034470Y007337D02*
X035857Y007337D01*
X035928Y007496D02*
X034470Y007496D01*
X034470Y007654D02*
X036079Y007654D01*
X035945Y007534D02*
X035945Y007534D01*
X036374Y007813D02*
X034470Y007813D01*
X034470Y007971D02*
X039580Y007971D01*
X039580Y007813D02*
X036833Y007813D01*
X037105Y007656D02*
X037105Y007656D01*
X037105Y007656D01*
X037106Y007654D02*
X039580Y007654D01*
X039580Y007496D02*
X037221Y007496D01*
X037297Y007392D02*
X037297Y007392D01*
X037309Y007337D02*
X039580Y007337D01*
X039580Y007179D02*
X037342Y007179D01*
X037354Y007020D02*
X039580Y007020D01*
X039580Y006862D02*
X037320Y006862D01*
X037261Y006703D02*
X039580Y006703D01*
X039580Y006545D02*
X037146Y006545D01*
X036928Y006386D02*
X039580Y006386D01*
X039580Y008130D02*
X034470Y008130D01*
X034470Y008288D02*
X039580Y008288D01*
X039580Y008447D02*
X034470Y008447D01*
X034470Y008605D02*
X039580Y008605D01*
X039580Y008764D02*
X034336Y008764D01*
X034220Y008922D02*
X039580Y008922D01*
X039580Y009081D02*
X034220Y009081D01*
X034220Y009239D02*
X039580Y009239D01*
X039580Y009398D02*
X034354Y009398D01*
X034470Y009556D02*
X039580Y009556D01*
X039580Y009715D02*
X034470Y009715D01*
X034470Y009873D02*
X039580Y009873D01*
X039580Y010032D02*
X037363Y010032D01*
X037521Y010190D02*
X039580Y010190D01*
X039580Y010349D02*
X037595Y010349D01*
X037595Y010507D02*
X039580Y010507D01*
X039580Y010666D02*
X037595Y010666D01*
X037655Y010824D02*
X039580Y010824D01*
X039580Y010983D02*
X037720Y010983D01*
X037720Y011141D02*
X039580Y011141D01*
X039580Y011300D02*
X037720Y011300D01*
X037720Y011458D02*
X039580Y011458D01*
X039580Y011617D02*
X037720Y011617D01*
X037720Y011775D02*
X039580Y011775D01*
X039580Y011934D02*
X037720Y011934D01*
X037720Y012092D02*
X039580Y012092D01*
X039580Y012251D02*
X037720Y012251D01*
X037720Y012409D02*
X039580Y012409D01*
X039580Y012568D02*
X038806Y012568D01*
X038806Y012726D02*
X039580Y012726D01*
X039580Y012885D02*
X038806Y012885D01*
X038806Y013043D02*
X039580Y013043D01*
X039580Y013202D02*
X038740Y013202D01*
X038806Y013360D02*
X039580Y013360D01*
X039580Y013519D02*
X038806Y013519D01*
X038806Y013677D02*
X039580Y013677D01*
X039580Y013836D02*
X038806Y013836D01*
X038806Y013994D02*
X039580Y013994D01*
X039580Y014153D02*
X038806Y014153D01*
X038703Y014311D02*
X039580Y014311D01*
X039580Y014470D02*
X037447Y014470D01*
X037295Y014628D02*
X039580Y014628D01*
X039580Y014787D02*
X037136Y014787D01*
X036963Y014945D02*
X039580Y014945D01*
X039580Y015104D02*
X035781Y015104D01*
X035616Y015262D02*
X039580Y015262D01*
X039580Y015421D02*
X034804Y015421D01*
X034646Y015579D02*
X039580Y015579D01*
X039580Y015738D02*
X034595Y015738D01*
X034595Y015896D02*
X039580Y015896D01*
X039580Y016055D02*
X034595Y016055D01*
X034595Y016213D02*
X039580Y016213D01*
X039580Y016372D02*
X037453Y016372D01*
X037611Y016530D02*
X039580Y016530D01*
X039580Y016689D02*
X037770Y016689D01*
X037928Y016847D02*
X039580Y016847D01*
X039580Y017006D02*
X038087Y017006D01*
X038245Y017164D02*
X039580Y017164D01*
X039580Y017323D02*
X038404Y017323D01*
X038562Y017481D02*
X039580Y017481D01*
X039580Y017640D02*
X038595Y017640D01*
X038595Y017798D02*
X039580Y017798D01*
X039580Y017957D02*
X038595Y017957D01*
X038595Y018115D02*
X039580Y018115D01*
X039580Y018274D02*
X038514Y018274D01*
X038355Y018432D02*
X039580Y018432D01*
X039580Y018591D02*
X034595Y018591D01*
X034595Y018749D02*
X039580Y018749D01*
X039580Y018908D02*
X034595Y018908D01*
X034595Y019066D02*
X039580Y019066D01*
X039580Y019225D02*
X034681Y019225D01*
X034839Y019383D02*
X039580Y019383D01*
X039580Y019542D02*
X034845Y019542D01*
X034845Y019700D02*
X039580Y019700D01*
X039580Y019859D02*
X034845Y019859D01*
X034845Y020017D02*
X039580Y020017D01*
X039580Y020176D02*
X036996Y020176D01*
X037105Y020239D02*
X036823Y020076D01*
X036823Y020076D01*
X036498Y020042D01*
X036498Y020042D01*
X036188Y020143D01*
X036188Y020143D01*
X035945Y020361D01*
X035945Y020361D01*
X035812Y020659D01*
X035812Y020986D01*
X035945Y021284D01*
X035945Y021284D01*
X036188Y021502D01*
X036498Y021603D01*
X036823Y021569D01*
X037105Y021406D01*
X037105Y021406D01*
X037297Y021142D01*
X037297Y021142D01*
X037365Y020822D01*
X037365Y020822D01*
X037297Y020503D01*
X037105Y020239D01*
X037105Y020239D01*
X037105Y020239D01*
X037175Y020334D02*
X039580Y020334D01*
X039580Y020493D02*
X037290Y020493D01*
X037297Y020503D02*
X037297Y020503D01*
X037329Y020651D02*
X039580Y020651D01*
X039580Y020810D02*
X037362Y020810D01*
X037334Y020968D02*
X039580Y020968D01*
X039580Y021127D02*
X037300Y021127D01*
X037193Y021285D02*
X039580Y021285D01*
X039580Y021444D02*
X037039Y021444D01*
X036504Y021602D02*
X039580Y021602D01*
X039580Y021761D02*
X034845Y021761D01*
X034845Y021919D02*
X039580Y021919D01*
X039580Y022078D02*
X034845Y022078D01*
X034845Y022236D02*
X039580Y022236D01*
X039580Y022395D02*
X034845Y022395D01*
X034734Y022553D02*
X039580Y022553D01*
X039580Y022712D02*
X034576Y022712D01*
X034417Y022870D02*
X039580Y022870D01*
X039580Y023029D02*
X034287Y023029D01*
X033580Y022072D02*
X027615Y022072D01*
X027615Y015197D01*
X030080Y015197D01*
X030080Y016947D01*
X030705Y017572D01*
X032580Y017572D01*
X032580Y018447D01*
X033955Y018447D01*
X033955Y018685D01*
X033950Y018697D01*
X033950Y018948D01*
X033955Y018960D01*
X033955Y019964D01*
X033821Y019964D01*
X033689Y020018D01*
X033588Y020119D01*
X033534Y020251D01*
X033534Y020394D01*
X033588Y020526D01*
X033689Y020627D01*
X033821Y020681D01*
X033955Y020681D01*
X033955Y021697D01*
X033580Y022072D01*
X033733Y021919D02*
X027615Y021919D01*
X027615Y021761D02*
X033891Y021761D01*
X033955Y021602D02*
X027615Y021602D01*
X027615Y021444D02*
X033955Y021444D01*
X033955Y021285D02*
X027615Y021285D01*
X027615Y021127D02*
X033955Y021127D01*
X033955Y020968D02*
X027615Y020968D01*
X027615Y020810D02*
X033955Y020810D01*
X033749Y020651D02*
X033036Y020651D01*
X033096Y020627D02*
X032964Y020681D01*
X032821Y020681D01*
X032689Y020627D01*
X032588Y020526D01*
X032534Y020394D01*
X032534Y020251D01*
X032588Y020119D01*
X032689Y020018D01*
X032821Y019964D01*
X032964Y019964D01*
X033096Y020018D01*
X033197Y020119D01*
X033251Y020251D01*
X033251Y020394D01*
X033197Y020526D01*
X033096Y020627D01*
X033210Y020493D02*
X033575Y020493D01*
X033534Y020334D02*
X033251Y020334D01*
X033220Y020176D02*
X033565Y020176D01*
X033691Y020017D02*
X033094Y020017D01*
X032691Y020017D02*
X029250Y020017D01*
X029245Y020022D02*
X028665Y020022D01*
X028255Y019612D01*
X028255Y019032D01*
X028665Y018622D01*
X029245Y018622D01*
X029655Y019032D01*
X029655Y019612D01*
X029245Y020022D01*
X029408Y019859D02*
X033955Y019859D01*
X033955Y019700D02*
X029567Y019700D01*
X029655Y019542D02*
X033955Y019542D01*
X033955Y019383D02*
X029655Y019383D01*
X029655Y019225D02*
X033955Y019225D01*
X033955Y019066D02*
X029655Y019066D01*
X029530Y018908D02*
X033950Y018908D01*
X033950Y018749D02*
X029372Y018749D01*
X028538Y018749D02*
X027615Y018749D01*
X027615Y018591D02*
X033955Y018591D01*
X033955Y018072D02*
X033955Y016085D01*
X033950Y016073D01*
X033950Y015822D01*
X033955Y015810D01*
X033955Y013447D01*
X033455Y012947D01*
X033455Y009032D01*
X033139Y009032D01*
X032870Y008763D01*
X032870Y008382D01*
X033139Y008112D01*
X033455Y008112D01*
X033455Y008032D01*
X033139Y008032D01*
X032870Y007763D01*
X032870Y007382D01*
X033050Y007202D01*
X033050Y006943D01*
X032870Y006763D01*
X032870Y006572D01*
X027615Y006572D01*
X027615Y013447D01*
X030705Y013447D01*
X031080Y013822D01*
X031080Y015822D01*
X031330Y016072D01*
X032955Y016072D01*
X033080Y016197D01*
X033080Y016264D01*
X033101Y016285D01*
X033101Y017041D01*
X033080Y017062D01*
X033080Y017322D01*
X032955Y017447D01*
X032955Y018072D01*
X033955Y018072D01*
X033955Y017957D02*
X032955Y017957D01*
X032955Y017798D02*
X033955Y017798D01*
X033955Y017640D02*
X032955Y017640D01*
X032955Y017481D02*
X033955Y017481D01*
X033955Y017323D02*
X033079Y017323D01*
X033080Y017164D02*
X033955Y017164D01*
X033955Y017006D02*
X033101Y017006D01*
X033101Y016847D02*
X033955Y016847D01*
X033955Y016689D02*
X033101Y016689D01*
X033101Y016530D02*
X033955Y016530D01*
X033955Y016372D02*
X033101Y016372D01*
X033189Y016314D02*
X033088Y016213D01*
X033034Y016081D01*
X033034Y015939D01*
X033088Y015807D01*
X033189Y015706D01*
X033321Y015651D01*
X033464Y015651D01*
X033596Y015706D01*
X033697Y015807D01*
X033751Y015939D01*
X033751Y016081D01*
X033697Y016213D01*
X033596Y016314D01*
X033464Y016369D01*
X033321Y016369D01*
X033189Y016314D01*
X033089Y016213D02*
X033080Y016213D01*
X033034Y016055D02*
X031313Y016055D01*
X031154Y015896D02*
X033051Y015896D01*
X033157Y015738D02*
X031080Y015738D01*
X031080Y015579D02*
X033955Y015579D01*
X033955Y015421D02*
X031551Y015421D01*
X031526Y015431D02*
X031384Y015431D01*
X031252Y015377D01*
X031151Y015276D01*
X031096Y015144D01*
X031096Y015001D01*
X031151Y014869D01*
X031252Y014768D01*
X031384Y014714D01*
X031526Y014714D01*
X031658Y014768D01*
X031759Y014869D01*
X031814Y015001D01*
X031814Y015144D01*
X031759Y015276D01*
X031658Y015377D01*
X031526Y015431D01*
X031359Y015421D02*
X031080Y015421D01*
X031080Y015262D02*
X031145Y015262D01*
X031096Y015104D02*
X031080Y015104D01*
X031080Y014945D02*
X031119Y014945D01*
X031080Y014787D02*
X031233Y014787D01*
X031080Y014628D02*
X033955Y014628D01*
X033955Y014470D02*
X031080Y014470D01*
X031080Y014311D02*
X033955Y014311D01*
X033955Y014153D02*
X032757Y014153D01*
X032759Y014151D02*
X032658Y014252D01*
X032526Y014306D01*
X032384Y014306D01*
X032252Y014252D01*
X032151Y014151D01*
X032096Y014019D01*
X032096Y013876D01*
X032151Y013744D01*
X032252Y013643D01*
X032384Y013589D01*
X032526Y013589D01*
X032658Y013643D01*
X032759Y013744D01*
X032814Y013876D01*
X032814Y014019D01*
X032759Y014151D01*
X032814Y013994D02*
X033955Y013994D01*
X033955Y013836D02*
X032797Y013836D01*
X032692Y013677D02*
X033955Y013677D01*
X033955Y013519D02*
X030777Y013519D01*
X030935Y013677D02*
X032218Y013677D01*
X032113Y013836D02*
X031080Y013836D01*
X031080Y013994D02*
X032096Y013994D01*
X032153Y014153D02*
X031080Y014153D01*
X030800Y014153D02*
X027615Y014153D01*
X027615Y014311D02*
X030800Y014311D01*
X030800Y014470D02*
X027615Y014470D01*
X027615Y014628D02*
X030800Y014628D01*
X030800Y014787D02*
X027615Y014787D01*
X027615Y014917D02*
X030024Y014917D01*
X030136Y014917D01*
X030239Y014960D01*
X030317Y015039D01*
X030360Y015142D01*
X030360Y016831D01*
X030821Y017292D01*
X032636Y017292D01*
X032704Y017321D01*
X032718Y017289D01*
X032796Y017210D01*
X032800Y017206D01*
X032800Y016417D01*
X032735Y016352D01*
X031274Y016352D01*
X031202Y016322D01*
X031080Y016322D01*
X030830Y016072D01*
X030830Y015951D01*
X030800Y015878D01*
X030800Y013938D01*
X030589Y013727D01*
X027615Y013727D01*
X027615Y014917D01*
X027615Y015262D02*
X030080Y015262D01*
X030080Y015421D02*
X027615Y015421D01*
X027615Y015579D02*
X030080Y015579D01*
X030080Y015738D02*
X027615Y015738D01*
X027615Y015896D02*
X030080Y015896D01*
X030080Y016055D02*
X027615Y016055D01*
X027615Y016213D02*
X030080Y016213D01*
X030080Y016372D02*
X029733Y016372D01*
X029668Y016307D02*
X029970Y016609D01*
X029970Y017036D01*
X029668Y017337D01*
X029242Y017337D01*
X028940Y017036D01*
X028940Y016609D01*
X029242Y016307D01*
X029668Y016307D01*
X029891Y016530D02*
X030080Y016530D01*
X030080Y016689D02*
X029970Y016689D01*
X029970Y016847D02*
X030080Y016847D01*
X030139Y017006D02*
X029970Y017006D01*
X029841Y017164D02*
X030297Y017164D01*
X030456Y017323D02*
X029683Y017323D01*
X029227Y017323D02*
X027615Y017323D01*
X027615Y017481D02*
X030614Y017481D01*
X030693Y017164D02*
X032800Y017164D01*
X032800Y017006D02*
X030535Y017006D01*
X030376Y016847D02*
X032800Y016847D01*
X032800Y016689D02*
X030360Y016689D01*
X030360Y016530D02*
X032800Y016530D01*
X032755Y016372D02*
X030360Y016372D01*
X030360Y016213D02*
X030971Y016213D01*
X030830Y016055D02*
X030360Y016055D01*
X030360Y015896D02*
X030808Y015896D01*
X030800Y015738D02*
X030360Y015738D01*
X030360Y015579D02*
X030800Y015579D01*
X030800Y015421D02*
X030360Y015421D01*
X030360Y015262D02*
X030800Y015262D01*
X030800Y015104D02*
X030344Y015104D01*
X030203Y014945D02*
X030800Y014945D01*
X031677Y014787D02*
X033955Y014787D01*
X033955Y014945D02*
X031791Y014945D01*
X031814Y015104D02*
X033955Y015104D01*
X033955Y015262D02*
X031765Y015262D01*
X030800Y013994D02*
X027615Y013994D01*
X027615Y013836D02*
X030698Y013836D01*
X029747Y012259D02*
X029557Y012337D01*
X029353Y012337D01*
X029163Y012259D01*
X029018Y012114D01*
X028940Y011925D01*
X028940Y011720D01*
X029018Y011531D01*
X029163Y011386D01*
X029353Y011307D01*
X029557Y011307D01*
X029747Y011386D01*
X029892Y011531D01*
X029970Y011720D01*
X029970Y011925D01*
X029892Y012114D01*
X029747Y012259D01*
X029755Y012251D02*
X033455Y012251D01*
X033455Y012409D02*
X027615Y012409D01*
X027615Y012251D02*
X029155Y012251D01*
X029009Y012092D02*
X027615Y012092D01*
X027615Y011934D02*
X028944Y011934D01*
X028940Y011775D02*
X027615Y011775D01*
X027615Y011617D02*
X028983Y011617D01*
X029091Y011458D02*
X027615Y011458D01*
X027615Y011300D02*
X033455Y011300D01*
X033455Y011458D02*
X029819Y011458D01*
X029927Y011617D02*
X033455Y011617D01*
X033455Y011775D02*
X029970Y011775D01*
X029966Y011934D02*
X033455Y011934D01*
X033455Y012092D02*
X029901Y012092D01*
X027615Y012568D02*
X033455Y012568D01*
X033455Y012726D02*
X027615Y012726D01*
X027615Y012885D02*
X033455Y012885D01*
X033551Y013043D02*
X027615Y013043D01*
X027615Y013202D02*
X033710Y013202D01*
X033868Y013360D02*
X027615Y013360D01*
X027615Y011141D02*
X033455Y011141D01*
X033455Y010983D02*
X027615Y010983D01*
X027615Y010824D02*
X033455Y010824D01*
X033455Y010666D02*
X027615Y010666D01*
X027615Y010507D02*
X033455Y010507D01*
X033455Y010349D02*
X027615Y010349D01*
X027615Y010190D02*
X033455Y010190D01*
X033455Y010032D02*
X027615Y010032D01*
X027615Y009873D02*
X028516Y009873D01*
X028558Y009916D02*
X028362Y009719D01*
X028255Y009462D01*
X028255Y009183D01*
X028362Y008926D01*
X028558Y008729D01*
X028816Y008622D01*
X029094Y008622D01*
X029352Y008729D01*
X029548Y008926D01*
X029655Y009183D01*
X029655Y009462D01*
X029548Y009719D01*
X029352Y009916D01*
X029094Y010022D01*
X028816Y010022D01*
X028558Y009916D01*
X028360Y009715D02*
X027615Y009715D01*
X027615Y009556D02*
X028294Y009556D01*
X028255Y009398D02*
X027615Y009398D01*
X027615Y009239D02*
X028255Y009239D01*
X028297Y009081D02*
X027615Y009081D01*
X027615Y008922D02*
X028365Y008922D01*
X028524Y008764D02*
X027615Y008764D01*
X027615Y008605D02*
X032870Y008605D01*
X032870Y008447D02*
X027615Y008447D01*
X027615Y008288D02*
X032963Y008288D01*
X033122Y008130D02*
X027615Y008130D01*
X027615Y007971D02*
X033078Y007971D01*
X032920Y007813D02*
X027615Y007813D01*
X027615Y007654D02*
X032870Y007654D01*
X032870Y007496D02*
X027615Y007496D01*
X027615Y007337D02*
X032914Y007337D01*
X033050Y007179D02*
X027615Y007179D01*
X027615Y007020D02*
X033050Y007020D01*
X032969Y006862D02*
X027615Y006862D01*
X027615Y006703D02*
X032870Y006703D01*
X033330Y006572D02*
X033330Y007572D01*
X032871Y008764D02*
X029386Y008764D01*
X029545Y008922D02*
X033029Y008922D01*
X033455Y009081D02*
X029613Y009081D01*
X029655Y009239D02*
X033455Y009239D01*
X033455Y009398D02*
X029655Y009398D01*
X029616Y009556D02*
X033455Y009556D01*
X033455Y009715D02*
X029550Y009715D01*
X029394Y009873D02*
X033455Y009873D01*
X034470Y010032D02*
X034797Y010032D01*
X034639Y010190D02*
X034470Y010190D01*
X034470Y010349D02*
X034565Y010349D01*
X034565Y010507D02*
X034470Y010507D01*
X034470Y010666D02*
X034565Y010666D01*
X034565Y010824D02*
X034470Y010824D01*
X034470Y010983D02*
X034668Y010983D01*
X034826Y011141D02*
X034470Y011141D01*
X034470Y011300D02*
X034940Y011300D01*
X034940Y011458D02*
X034470Y011458D01*
X034358Y011617D02*
X034940Y011617D01*
X034940Y011775D02*
X034220Y011775D01*
X034220Y011934D02*
X034940Y011934D01*
X034940Y012092D02*
X034220Y012092D01*
X034332Y012251D02*
X034828Y012251D01*
X034690Y012409D02*
X034490Y012409D01*
X033830Y012697D02*
X035456Y012697D01*
X035456Y012572D01*
X035456Y011947D01*
X035456Y011073D01*
X035080Y010697D01*
X035080Y010572D01*
X036204Y011947D02*
X036393Y011947D01*
X036393Y012572D01*
X036581Y012572D01*
X036393Y012572D02*
X036204Y012572D01*
X036393Y011947D02*
X036581Y011947D01*
X037329Y011947D02*
X037329Y012572D01*
X037580Y012823D01*
X037705Y012823D01*
X038330Y012823D01*
X038330Y013571D02*
X038330Y013760D01*
X037705Y013760D01*
X037705Y013572D01*
X037705Y013571D01*
X037705Y013760D02*
X037705Y013948D01*
X037205Y013994D02*
X037160Y013994D01*
X037160Y014063D02*
X037072Y014276D01*
X036909Y014439D01*
X036695Y014527D01*
X036581Y014527D01*
X036581Y014556D01*
X036464Y014673D01*
X035944Y014673D01*
X035845Y014574D01*
X035845Y014587D01*
X035955Y014697D01*
X036830Y014697D01*
X037205Y014322D01*
X037205Y013572D01*
X036830Y013197D01*
X035955Y013197D01*
X035823Y013329D01*
X035830Y013336D01*
X035944Y013222D01*
X036464Y013222D01*
X036581Y013339D01*
X036581Y013367D01*
X036695Y013367D01*
X036909Y013456D01*
X037072Y013619D01*
X037160Y013832D01*
X037160Y014063D01*
X037123Y014153D02*
X037205Y014153D01*
X037205Y014311D02*
X037036Y014311D01*
X037057Y014470D02*
X036834Y014470D01*
X036899Y014628D02*
X036509Y014628D01*
X036204Y014197D02*
X036204Y013947D01*
X036580Y013947D01*
X036204Y013947D02*
X036204Y013697D01*
X036581Y013360D02*
X036993Y013360D01*
X036972Y013519D02*
X037152Y013519D01*
X037205Y013677D02*
X037096Y013677D01*
X037160Y013836D02*
X037205Y013836D01*
X036835Y013202D02*
X035950Y013202D01*
X035830Y013322D02*
X035830Y014572D01*
X035886Y014628D02*
X035899Y014628D01*
X035456Y014634D02*
X035456Y014197D01*
X035456Y013697D01*
X035456Y012697D01*
X035456Y014634D02*
X035330Y014760D01*
X033955Y015738D02*
X033628Y015738D01*
X033734Y015896D02*
X033950Y015896D01*
X033950Y016055D02*
X033751Y016055D01*
X033696Y016213D02*
X033955Y016213D01*
X032580Y017640D02*
X027615Y017640D01*
X027615Y017798D02*
X032580Y017798D01*
X032580Y017957D02*
X027615Y017957D01*
X027615Y018115D02*
X032580Y018115D01*
X032580Y018274D02*
X027615Y018274D01*
X027615Y018432D02*
X032580Y018432D01*
X032565Y020176D02*
X027615Y020176D01*
X027615Y020334D02*
X032534Y020334D01*
X032575Y020493D02*
X027615Y020493D01*
X027615Y020651D02*
X032749Y020651D01*
X034845Y020651D02*
X035816Y020651D01*
X035812Y020810D02*
X034845Y020810D01*
X034845Y020968D02*
X035812Y020968D01*
X035875Y021127D02*
X034845Y021127D01*
X034845Y021285D02*
X035947Y021285D01*
X036123Y021444D02*
X034845Y021444D01*
X034845Y021602D02*
X036496Y021602D01*
X035886Y020493D02*
X034845Y020493D01*
X034845Y020334D02*
X035974Y020334D01*
X036150Y020176D02*
X034845Y020176D01*
X036932Y023192D02*
X037728Y023192D01*
X037845Y023310D01*
X037845Y023613D01*
X037902Y023597D01*
X038258Y023597D01*
X038601Y023689D01*
X038909Y023867D01*
X039160Y024119D01*
X039338Y024426D01*
X039430Y024770D01*
X039430Y025125D01*
X039338Y025469D01*
X039160Y025776D01*
X038909Y026028D01*
X038601Y026205D01*
X038258Y026297D01*
X037902Y026297D01*
X037559Y026205D01*
X037251Y026028D01*
X037000Y025776D01*
X036822Y025469D01*
X036730Y025125D01*
X036730Y024770D01*
X036822Y024426D01*
X037000Y024119D01*
X037066Y024052D01*
X036932Y024052D01*
X036815Y023935D01*
X036815Y023310D01*
X036932Y023192D01*
X036815Y023346D02*
X020365Y023346D01*
X020365Y023504D02*
X036815Y023504D01*
X036815Y023663D02*
X020365Y023663D01*
X020365Y023821D02*
X022194Y023821D01*
X022228Y023807D02*
X022432Y023807D01*
X022622Y023886D01*
X022767Y024031D01*
X022845Y024220D01*
X022845Y024425D01*
X022767Y024614D01*
X031455Y024614D01*
X031455Y024772D02*
X022589Y024772D01*
X022622Y024759D02*
X022432Y024837D01*
X022228Y024837D01*
X022038Y024759D01*
X021893Y024614D01*
X020365Y024614D01*
X020365Y024639D02*
X020271Y024732D01*
X020021Y024982D01*
X016139Y024982D01*
X016045Y024889D01*
X016045Y024889D01*
X015764Y024607D01*
X015670Y024514D01*
X015670Y023131D01*
X015764Y023037D01*
X016639Y022162D01*
X018889Y022162D01*
X019045Y022006D01*
X019045Y021256D01*
X019139Y021162D01*
X019264Y021037D01*
X020646Y021037D01*
X020740Y021131D01*
X020865Y021256D01*
X020865Y022389D01*
X020771Y022482D01*
X020365Y022889D01*
X020365Y024639D01*
X020365Y024455D02*
X021828Y024455D01*
X021815Y024425D02*
X021815Y024220D01*
X021893Y024031D01*
X022038Y023886D01*
X022228Y023807D01*
X022466Y023821D02*
X036815Y023821D01*
X036860Y023980D02*
X022716Y023980D01*
X022811Y024138D02*
X036988Y024138D01*
X036897Y024297D02*
X022845Y024297D01*
X022832Y024455D02*
X036814Y024455D01*
X036772Y024614D02*
X033955Y024614D01*
X033955Y024772D02*
X036730Y024772D01*
X036730Y024931D02*
X033955Y024931D01*
X033955Y025089D02*
X036730Y025089D01*
X036763Y025248D02*
X033955Y025248D01*
X033955Y025406D02*
X036805Y025406D01*
X036878Y025565D02*
X033955Y025565D01*
X033955Y025723D02*
X036969Y025723D01*
X037105Y025882D02*
X033955Y025882D01*
X033955Y026040D02*
X037273Y026040D01*
X037548Y026199D02*
X033955Y026199D01*
X033955Y026357D02*
X039580Y026357D01*
X039580Y026199D02*
X038612Y026199D01*
X038887Y026040D02*
X039580Y026040D01*
X039580Y025882D02*
X039055Y025882D01*
X039191Y025723D02*
X039580Y025723D01*
X039580Y025565D02*
X039282Y025565D01*
X039355Y025406D02*
X039580Y025406D01*
X039580Y025248D02*
X039397Y025248D01*
X039430Y025089D02*
X039580Y025089D01*
X039580Y024931D02*
X039430Y024931D01*
X039430Y024772D02*
X039580Y024772D01*
X039580Y024614D02*
X039388Y024614D01*
X039346Y024455D02*
X039580Y024455D01*
X039580Y024297D02*
X039263Y024297D01*
X039172Y024138D02*
X039580Y024138D01*
X039580Y023980D02*
X039022Y023980D01*
X038830Y023821D02*
X039580Y023821D01*
X039580Y023663D02*
X038502Y023663D01*
X037845Y023504D02*
X039580Y023504D01*
X039580Y023346D02*
X037845Y023346D01*
X039580Y023187D02*
X020365Y023187D01*
X020365Y023029D02*
X023685Y023029D01*
X023527Y022870D02*
X020383Y022870D01*
X020542Y022712D02*
X023368Y022712D01*
X023210Y022553D02*
X020700Y022553D01*
X020859Y022395D02*
X023170Y022395D01*
X023170Y022236D02*
X020865Y022236D01*
X020865Y022078D02*
X023170Y022078D01*
X023170Y021919D02*
X020865Y021919D01*
X020865Y021761D02*
X023170Y021761D01*
X023170Y021602D02*
X020865Y021602D01*
X020865Y021444D02*
X023170Y021444D01*
X023170Y021285D02*
X020865Y021285D01*
X020736Y021127D02*
X023170Y021127D01*
X023170Y020968D02*
X022907Y020968D01*
X022886Y020977D02*
X020774Y020977D01*
X020671Y020935D01*
X020593Y020856D01*
X020550Y020753D01*
X020550Y019392D01*
X020593Y019289D01*
X020671Y019210D01*
X020774Y019167D01*
X022886Y019167D01*
X022989Y019210D01*
X023067Y019289D01*
X023110Y019392D01*
X023110Y019503D01*
X023110Y020753D01*
X023067Y020856D01*
X022989Y020935D01*
X022886Y020977D01*
X023086Y020810D02*
X023170Y020810D01*
X023170Y020651D02*
X023110Y020651D01*
X023110Y020493D02*
X023170Y020493D01*
X023170Y020334D02*
X023110Y020334D01*
X023110Y020176D02*
X023170Y020176D01*
X023170Y020017D02*
X023110Y020017D01*
X023110Y019859D02*
X023170Y019859D01*
X023170Y019700D02*
X023110Y019700D01*
X023110Y019542D02*
X023170Y019542D01*
X023170Y019383D02*
X023107Y019383D01*
X023170Y019225D02*
X023004Y019225D01*
X023170Y019066D02*
X018906Y019066D01*
X018892Y019031D02*
X018970Y019220D01*
X018970Y019425D01*
X018892Y019614D01*
X018747Y019759D01*
X018557Y019837D01*
X018353Y019837D01*
X018163Y019759D01*
X018018Y019614D01*
X017940Y019425D01*
X017940Y019220D01*
X018018Y019031D01*
X018163Y018886D01*
X018353Y018807D01*
X018557Y018807D01*
X018747Y018886D01*
X018892Y019031D01*
X018769Y018908D02*
X023170Y018908D01*
X023170Y018749D02*
X017740Y018749D01*
X017740Y018591D02*
X023170Y018591D01*
X023170Y018432D02*
X017740Y018432D01*
X017740Y018274D02*
X023170Y018274D01*
X023170Y018115D02*
X017740Y018115D01*
X017740Y017957D02*
X023170Y017957D01*
X023170Y017798D02*
X018151Y017798D01*
X018057Y017837D02*
X017853Y017837D01*
X017740Y017791D01*
X017740Y019014D01*
X017646Y019107D01*
X015014Y019107D01*
X014920Y019014D01*
X014920Y017506D01*
X014979Y017447D01*
X014979Y017436D01*
X015097Y017319D01*
X016170Y017319D01*
X016170Y015756D01*
X016229Y015697D01*
X016229Y015688D01*
X016347Y015571D01*
X017230Y015571D01*
X017704Y015097D01*
X017620Y015013D01*
X017620Y014632D01*
X017889Y014362D01*
X018271Y014362D01*
X018335Y014427D01*
X018993Y014427D01*
X019110Y014544D01*
X019110Y015851D01*
X018993Y015968D01*
X018512Y015968D01*
X018420Y016060D01*
X018470Y016109D01*
X018470Y016536D01*
X018168Y016837D01*
X018130Y016837D01*
X018247Y016886D01*
X018392Y017031D01*
X018470Y017220D01*
X018470Y017425D01*
X018392Y017614D01*
X018247Y017759D01*
X018057Y017837D01*
X017759Y017798D02*
X017740Y017798D01*
X018366Y017640D02*
X023170Y017640D01*
X023170Y017481D02*
X018447Y017481D01*
X018470Y017323D02*
X023170Y017323D01*
X023170Y017164D02*
X018447Y017164D01*
X018367Y017006D02*
X023170Y017006D01*
X023170Y016847D02*
X018154Y016847D01*
X018317Y016689D02*
X020681Y016689D01*
X020671Y016685D02*
X020593Y016606D01*
X020550Y016503D01*
X020550Y015269D01*
X020545Y015264D01*
X020545Y013381D01*
X020550Y013376D01*
X020550Y012142D01*
X020593Y012039D01*
X020671Y011960D01*
X020774Y011917D01*
X022886Y011917D01*
X022989Y011960D01*
X023067Y012039D01*
X023110Y012142D01*
X023110Y013376D01*
X023115Y013381D01*
X023115Y015264D01*
X023110Y015269D01*
X023110Y016503D01*
X023067Y016606D01*
X022989Y016685D01*
X022886Y016727D01*
X020774Y016727D01*
X020671Y016685D01*
X020561Y016530D02*
X018470Y016530D01*
X018470Y016372D02*
X020550Y016372D01*
X020550Y016213D02*
X018470Y016213D01*
X018425Y016055D02*
X020550Y016055D01*
X020550Y015896D02*
X020245Y015896D01*
X020291Y015851D02*
X020174Y015968D01*
X019417Y015968D01*
X019300Y015851D01*
X019300Y014544D01*
X019417Y014427D01*
X020174Y014427D01*
X020291Y014544D01*
X020291Y015851D01*
X020291Y015738D02*
X020550Y015738D01*
X020550Y015579D02*
X020291Y015579D01*
X020291Y015421D02*
X020550Y015421D01*
X020545Y015262D02*
X020291Y015262D01*
X020291Y015104D02*
X020545Y015104D01*
X020545Y014945D02*
X020291Y014945D01*
X020291Y014787D02*
X020545Y014787D01*
X020545Y014628D02*
X020291Y014628D01*
X020217Y014470D02*
X020545Y014470D01*
X020545Y014311D02*
X015990Y014311D01*
X015990Y014153D02*
X017760Y014153D01*
X017889Y014282D02*
X017620Y014013D01*
X017620Y013632D01*
X017670Y013582D01*
X017670Y012837D01*
X017363Y012837D01*
X017246Y012720D01*
X017246Y011925D01*
X017363Y011807D01*
X017545Y011807D01*
X017545Y011641D01*
X017440Y011536D01*
X017440Y011109D01*
X017742Y010807D01*
X018168Y010807D01*
X018470Y011109D01*
X018470Y011536D01*
X018365Y011641D01*
X018365Y012004D01*
X018392Y012031D01*
X018470Y012220D01*
X018470Y012425D01*
X018408Y012573D01*
X018512Y012677D01*
X018993Y012677D01*
X019110Y012794D01*
X019110Y014101D01*
X018993Y014218D01*
X018335Y014218D01*
X018271Y014282D01*
X017889Y014282D01*
X017782Y014470D02*
X017378Y014470D01*
X017271Y014362D02*
X016889Y014362D01*
X016620Y014632D01*
X016620Y015013D01*
X016889Y015282D01*
X017271Y015282D01*
X017540Y015013D01*
X017540Y014632D01*
X017271Y014362D01*
X017537Y014628D02*
X017623Y014628D01*
X017620Y014787D02*
X017540Y014787D01*
X017540Y014945D02*
X017620Y014945D01*
X017697Y015104D02*
X017449Y015104D01*
X017539Y015262D02*
X017291Y015262D01*
X017380Y015421D02*
X015990Y015421D01*
X015990Y015579D02*
X016338Y015579D01*
X016188Y015738D02*
X016040Y015738D01*
X016040Y015632D02*
X016040Y016013D01*
X015771Y016282D01*
X015389Y016282D01*
X015339Y016232D01*
X014821Y016232D01*
X014771Y016282D01*
X014389Y016282D01*
X014120Y016013D01*
X014120Y015632D01*
X014170Y015582D01*
X014170Y015063D01*
X014120Y015013D01*
X014120Y014632D01*
X014170Y014582D01*
X014170Y014063D01*
X014120Y014013D01*
X014120Y013632D01*
X014389Y013362D01*
X014771Y013362D01*
X014821Y013412D01*
X015339Y013412D01*
X015389Y013362D01*
X015771Y013362D01*
X016040Y013632D01*
X016040Y014013D01*
X015990Y014063D01*
X015990Y014582D01*
X016040Y014632D01*
X016040Y015013D01*
X015990Y015063D01*
X015990Y015582D01*
X016040Y015632D01*
X016040Y015896D02*
X016170Y015896D01*
X016170Y016055D02*
X015998Y016055D01*
X015840Y016213D02*
X016170Y016213D01*
X016170Y016372D02*
X013740Y016372D01*
X013740Y016389D02*
X013470Y016659D01*
X013470Y017040D01*
X013353Y017157D01*
X012557Y017157D01*
X012503Y017102D01*
X011426Y017102D01*
X011309Y016985D01*
X011309Y016229D01*
X011340Y016198D01*
X011340Y015910D01*
X011319Y015901D01*
X011252Y015833D01*
X011127Y015708D01*
X011090Y015620D01*
X011090Y012525D01*
X011127Y012436D01*
X011194Y012369D01*
X011252Y012311D01*
X011319Y012244D01*
X011407Y012207D01*
X012565Y012207D01*
X012565Y011855D01*
X012580Y011840D01*
X012580Y011604D01*
X012563Y011597D01*
X012376Y011409D01*
X012306Y011339D01*
X012268Y011247D01*
X012268Y011225D01*
X012152Y011273D01*
X012101Y011273D01*
X012101Y011291D01*
X011984Y011408D01*
X010676Y011408D01*
X010559Y011291D01*
X010559Y011244D01*
X010521Y011282D01*
X010139Y011282D01*
X009870Y011013D01*
X009870Y010632D01*
X010139Y010362D01*
X010521Y010362D01*
X010626Y010468D01*
X010676Y010418D01*
X011565Y010418D01*
X011565Y010230D01*
X011682Y010113D01*
X012478Y010113D01*
X012595Y010230D01*
X012595Y010236D01*
X012740Y010381D01*
X012740Y010510D01*
X013005Y010510D01*
X013097Y010548D01*
X013284Y010736D01*
X013354Y010806D01*
X013392Y010898D01*
X013392Y011247D01*
X013354Y011339D01*
X013339Y011355D01*
X013790Y011807D01*
X013846Y011830D01*
X014010Y011994D01*
X014065Y012126D01*
X014065Y012269D01*
X014010Y012401D01*
X014004Y012407D01*
X014033Y012436D01*
X014070Y012525D01*
X014070Y015620D01*
X014033Y015708D01*
X013966Y015776D01*
X013841Y015901D01*
X013753Y015937D01*
X013740Y015937D01*
X013740Y016389D01*
X013740Y016213D02*
X014320Y016213D01*
X014162Y016055D02*
X013740Y016055D01*
X013845Y015896D02*
X014120Y015896D01*
X014120Y015738D02*
X014004Y015738D01*
X014070Y015579D02*
X014170Y015579D01*
X014170Y015421D02*
X014070Y015421D01*
X014070Y015262D02*
X014170Y015262D01*
X014170Y015104D02*
X014070Y015104D01*
X014070Y014945D02*
X014120Y014945D01*
X014120Y014787D02*
X014070Y014787D01*
X014070Y014628D02*
X014123Y014628D01*
X014170Y014470D02*
X014070Y014470D01*
X014070Y014311D02*
X014170Y014311D01*
X014170Y014153D02*
X014070Y014153D01*
X014070Y013994D02*
X014120Y013994D01*
X014120Y013836D02*
X014070Y013836D01*
X014070Y013677D02*
X014120Y013677D01*
X014070Y013519D02*
X014233Y013519D01*
X014070Y013360D02*
X017670Y013360D01*
X017670Y013202D02*
X015851Y013202D01*
X015771Y013282D02*
X016040Y013013D01*
X016040Y012632D01*
X015990Y012582D01*
X015990Y012063D01*
X016040Y012013D01*
X016040Y011632D01*
X015771Y011362D01*
X015389Y011362D01*
X015339Y011412D01*
X014821Y011412D01*
X014771Y011362D01*
X014389Y011362D01*
X014120Y011632D01*
X014120Y012013D01*
X014170Y012063D01*
X014170Y012582D01*
X014120Y012632D01*
X014120Y013013D01*
X014389Y013282D01*
X014771Y013282D01*
X014821Y013232D01*
X015339Y013232D01*
X015389Y013282D01*
X015771Y013282D01*
X015927Y013519D02*
X017670Y013519D01*
X017620Y013677D02*
X016040Y013677D01*
X016040Y013836D02*
X017620Y013836D01*
X017620Y013994D02*
X016040Y013994D01*
X015990Y014470D02*
X016782Y014470D01*
X016623Y014628D02*
X016037Y014628D01*
X016040Y014787D02*
X016620Y014787D01*
X016620Y014945D02*
X016040Y014945D01*
X015990Y015104D02*
X016711Y015104D01*
X016869Y015262D02*
X015990Y015262D01*
X015080Y015322D02*
X014580Y015822D01*
X015080Y015322D02*
X015080Y014322D01*
X014580Y013822D01*
X014309Y013202D02*
X014070Y013202D01*
X014070Y013043D02*
X014150Y013043D01*
X014120Y012885D02*
X014070Y012885D01*
X014070Y012726D02*
X014120Y012726D01*
X014070Y012568D02*
X014170Y012568D01*
X014170Y012409D02*
X014006Y012409D01*
X014065Y012251D02*
X014170Y012251D01*
X014170Y012092D02*
X014051Y012092D01*
X014120Y011934D02*
X013951Y011934D01*
X014120Y011775D02*
X013759Y011775D01*
X013601Y011617D02*
X014135Y011617D01*
X014293Y011458D02*
X013442Y011458D01*
X013371Y011300D02*
X017440Y011300D01*
X017440Y011458D02*
X015867Y011458D01*
X016025Y011617D02*
X017521Y011617D01*
X017545Y011775D02*
X016040Y011775D01*
X016040Y011934D02*
X016371Y011934D01*
X016371Y011925D02*
X016488Y011807D01*
X017047Y011807D01*
X017164Y011925D01*
X017164Y012425D01*
X017220Y012480D01*
X017220Y013040D01*
X017103Y013157D01*
X016307Y013157D01*
X016190Y013040D01*
X016190Y012480D01*
X016307Y012363D01*
X016371Y012363D01*
X016371Y011925D01*
X016371Y012092D02*
X015990Y012092D01*
X015990Y012251D02*
X016371Y012251D01*
X016261Y012409D02*
X015990Y012409D01*
X015990Y012568D02*
X016190Y012568D01*
X016190Y012726D02*
X016040Y012726D01*
X016040Y012885D02*
X016190Y012885D01*
X016194Y013043D02*
X016010Y013043D01*
X016705Y012760D02*
X016705Y012385D01*
X016767Y012322D01*
X017164Y012251D02*
X017246Y012251D01*
X017246Y012409D02*
X017164Y012409D01*
X017220Y012568D02*
X017246Y012568D01*
X017252Y012726D02*
X017220Y012726D01*
X017220Y012885D02*
X017670Y012885D01*
X017670Y013043D02*
X017216Y013043D01*
X017642Y012322D02*
X017955Y012322D01*
X018417Y012092D02*
X020570Y012092D01*
X020550Y012251D02*
X018470Y012251D01*
X018470Y012409D02*
X020550Y012409D01*
X020550Y012568D02*
X018411Y012568D01*
X019042Y012726D02*
X019368Y012726D01*
X019417Y012677D02*
X020174Y012677D01*
X020291Y012794D01*
X020291Y014101D01*
X020174Y014218D01*
X019417Y014218D01*
X019300Y014101D01*
X019300Y012794D01*
X019417Y012677D01*
X019300Y012885D02*
X019110Y012885D01*
X019110Y013043D02*
X019300Y013043D01*
X019300Y013202D02*
X019110Y013202D01*
X019110Y013360D02*
X019300Y013360D01*
X019300Y013519D02*
X019110Y013519D01*
X019110Y013677D02*
X019300Y013677D01*
X019300Y013836D02*
X019110Y013836D01*
X019110Y013994D02*
X019300Y013994D01*
X019352Y014153D02*
X019058Y014153D01*
X019036Y014470D02*
X019374Y014470D01*
X019300Y014628D02*
X019110Y014628D01*
X019110Y014787D02*
X019300Y014787D01*
X019300Y014945D02*
X019110Y014945D01*
X019110Y015104D02*
X019300Y015104D01*
X019300Y015262D02*
X019110Y015262D01*
X019110Y015421D02*
X019300Y015421D01*
X019300Y015579D02*
X019110Y015579D01*
X019110Y015738D02*
X019300Y015738D01*
X019346Y015896D02*
X019064Y015896D01*
X018614Y015197D02*
X018739Y014822D01*
X018080Y014822D01*
X018080Y013822D02*
X018739Y013822D01*
X018614Y013447D01*
X019705Y013447D02*
X019796Y013447D01*
X020291Y013519D02*
X020545Y013519D01*
X020545Y013677D02*
X020291Y013677D01*
X020291Y013836D02*
X020545Y013836D01*
X020545Y013994D02*
X020291Y013994D01*
X020239Y014153D02*
X020545Y014153D01*
X020550Y013360D02*
X020291Y013360D01*
X020291Y013202D02*
X020550Y013202D01*
X020550Y013043D02*
X020291Y013043D01*
X020291Y012885D02*
X020550Y012885D01*
X020550Y012726D02*
X020224Y012726D01*
X020830Y012726D02*
X022830Y012726D01*
X022830Y012568D02*
X020830Y012568D01*
X020830Y012409D02*
X022830Y012409D01*
X022830Y012251D02*
X020830Y012251D01*
X020830Y012197D02*
X020830Y013322D01*
X022830Y013322D01*
X022830Y012197D01*
X020830Y012197D01*
X020734Y011934D02*
X018365Y011934D01*
X018365Y011775D02*
X023170Y011775D01*
X023170Y011617D02*
X018389Y011617D01*
X018470Y011458D02*
X023170Y011458D01*
X023170Y011300D02*
X018470Y011300D01*
X018470Y011141D02*
X023170Y011141D01*
X023170Y010983D02*
X018344Y010983D01*
X018185Y010824D02*
X023170Y010824D01*
X023170Y010666D02*
X017088Y010666D01*
X017240Y010514D02*
X016865Y010889D01*
X016771Y010982D01*
X014389Y010982D01*
X014139Y010732D01*
X014045Y010639D01*
X014045Y010006D01*
X014170Y009881D01*
X014170Y009563D01*
X014120Y009513D01*
X014120Y009132D01*
X014170Y009082D01*
X014170Y007381D01*
X014639Y006912D01*
X014771Y006912D01*
X017014Y006912D01*
X017146Y006912D01*
X017240Y007006D01*
X017240Y010514D01*
X017240Y010507D02*
X023170Y010507D01*
X023170Y010349D02*
X017240Y010349D01*
X017240Y010190D02*
X023170Y010190D01*
X023170Y010032D02*
X017240Y010032D01*
X017240Y009873D02*
X023170Y009873D01*
X023170Y009715D02*
X017240Y009715D01*
X017240Y009556D02*
X023170Y009556D01*
X023170Y009398D02*
X023025Y009398D01*
X022989Y009435D02*
X022886Y009477D01*
X020774Y009477D01*
X020671Y009435D01*
X020593Y009356D01*
X020550Y009253D01*
X020550Y007892D01*
X020593Y007789D01*
X020671Y007710D01*
X020774Y007667D01*
X020886Y007667D01*
X022774Y007667D01*
X022886Y007667D01*
X022989Y007710D01*
X023067Y007789D01*
X023110Y007892D01*
X023110Y009253D01*
X023067Y009356D01*
X022989Y009435D01*
X023110Y009239D02*
X023170Y009239D01*
X023170Y009081D02*
X023110Y009081D01*
X023110Y008922D02*
X023170Y008922D01*
X023170Y008764D02*
X023110Y008764D01*
X023110Y008605D02*
X023170Y008605D01*
X023170Y008447D02*
X023110Y008447D01*
X023110Y008288D02*
X023170Y008288D01*
X023170Y008130D02*
X023110Y008130D01*
X023110Y007971D02*
X023170Y007971D01*
X023170Y007813D02*
X023077Y007813D01*
X023170Y007654D02*
X017240Y007654D01*
X017240Y007496D02*
X023170Y007496D01*
X023170Y007337D02*
X017240Y007337D01*
X017240Y007179D02*
X023170Y007179D01*
X023170Y007020D02*
X017240Y007020D01*
X017240Y007813D02*
X020583Y007813D01*
X020550Y007971D02*
X017240Y007971D01*
X017240Y008130D02*
X020550Y008130D01*
X020550Y008288D02*
X017240Y008288D01*
X017240Y008447D02*
X018102Y008447D01*
X018242Y008307D02*
X017940Y008609D01*
X017940Y009036D01*
X018242Y009337D01*
X018668Y009337D01*
X018970Y009036D01*
X018970Y008609D01*
X018668Y008307D01*
X018242Y008307D01*
X017944Y008605D02*
X017240Y008605D01*
X017240Y008764D02*
X017940Y008764D01*
X017940Y008922D02*
X017240Y008922D01*
X017240Y009081D02*
X017985Y009081D01*
X018144Y009239D02*
X017240Y009239D01*
X017240Y009398D02*
X020635Y009398D01*
X020550Y009239D02*
X018766Y009239D01*
X018925Y009081D02*
X020550Y009081D01*
X020550Y008922D02*
X018970Y008922D01*
X018970Y008764D02*
X020550Y008764D01*
X020550Y008605D02*
X018966Y008605D01*
X018808Y008447D02*
X020550Y008447D01*
X020830Y008447D02*
X022830Y008447D01*
X022830Y008605D02*
X020830Y008605D01*
X020830Y008764D02*
X022830Y008764D01*
X022830Y008922D02*
X020830Y008922D01*
X020830Y009081D02*
X022830Y009081D01*
X022830Y009197D02*
X022830Y007947D01*
X020830Y007947D01*
X020830Y009197D01*
X022830Y009197D01*
X022830Y008288D02*
X020830Y008288D01*
X020830Y008130D02*
X022830Y008130D01*
X022830Y007971D02*
X020830Y007971D01*
X023170Y006862D02*
X012485Y006862D01*
X012471Y006877D02*
X012572Y006776D01*
X012600Y006707D01*
X013194Y006707D01*
X013290Y006668D01*
X013488Y006470D01*
X013527Y006374D01*
X013527Y005521D01*
X013488Y005425D01*
X013415Y005352D01*
X013290Y005227D01*
X013194Y005187D01*
X012528Y005187D01*
X012433Y005227D01*
X012360Y005300D01*
X012360Y005300D01*
X012235Y005425D01*
X012232Y005432D01*
X011547Y005432D01*
X011478Y005363D01*
X010682Y005363D01*
X010565Y005480D01*
X010565Y005737D01*
X010426Y005737D01*
X010309Y005854D01*
X010309Y006138D01*
X010163Y006238D01*
X009682Y006238D01*
X009565Y006355D01*
X009565Y006915D01*
X009682Y007032D01*
X010478Y007032D01*
X010595Y006915D01*
X010595Y006727D01*
X011734Y006727D01*
X011748Y006712D01*
X011897Y006712D01*
X012022Y006837D01*
X012025Y006837D01*
X012064Y006877D01*
X012196Y006931D01*
X012339Y006931D01*
X012471Y006877D01*
X012050Y006862D02*
X010595Y006862D01*
X010489Y007020D02*
X014531Y007020D01*
X014372Y007179D02*
X013949Y007179D01*
X013942Y007164D02*
X013985Y007267D01*
X013985Y007337D01*
X014001Y007376D01*
X014001Y007519D01*
X013985Y007558D01*
X013985Y007649D01*
X014001Y007689D01*
X014001Y007831D01*
X013985Y007871D01*
X013985Y007962D01*
X014001Y008001D01*
X014001Y008144D01*
X013985Y008183D01*
X013985Y008274D01*
X014001Y008314D01*
X014001Y008456D01*
X013985Y008496D01*
X013985Y008587D01*
X014001Y008626D01*
X014001Y008769D01*
X013985Y008808D01*
X013985Y008899D01*
X014001Y008939D01*
X014001Y009081D01*
X014170Y009081D01*
X014170Y008922D02*
X013995Y008922D01*
X014001Y008764D02*
X014170Y008764D01*
X014170Y008605D02*
X013993Y008605D01*
X014001Y008447D02*
X014170Y008447D01*
X014170Y008288D02*
X013991Y008288D01*
X014001Y008130D02*
X014170Y008130D01*
X014170Y007971D02*
X013989Y007971D01*
X014001Y007813D02*
X014170Y007813D01*
X014170Y007654D02*
X013987Y007654D01*
X014001Y007496D02*
X014170Y007496D01*
X014214Y007337D02*
X013985Y007337D01*
X013942Y007164D02*
X013864Y007085D01*
X013761Y007042D01*
X011899Y007042D01*
X011796Y007085D01*
X011718Y007164D01*
X011675Y007267D01*
X011675Y007337D01*
X011659Y007376D01*
X011659Y007519D01*
X011675Y007558D01*
X011675Y007649D01*
X011659Y007689D01*
X011659Y007831D01*
X011675Y007871D01*
X011675Y007962D01*
X011659Y008001D01*
X011659Y008144D01*
X011675Y008183D01*
X011675Y008274D01*
X011659Y008314D01*
X011659Y008456D01*
X011675Y008496D01*
X011675Y008587D01*
X011659Y008626D01*
X011659Y008769D01*
X011675Y008808D01*
X011675Y008899D01*
X011659Y008939D01*
X011659Y009081D01*
X010722Y009081D01*
X010790Y009013D02*
X010521Y009282D01*
X010139Y009282D01*
X009870Y009013D01*
X009870Y008632D01*
X010139Y008362D01*
X010521Y008362D01*
X010790Y008632D01*
X010790Y009013D01*
X010790Y008922D02*
X011665Y008922D01*
X011659Y008764D02*
X010790Y008764D01*
X010764Y008605D02*
X011667Y008605D01*
X011659Y008447D02*
X010605Y008447D01*
X010055Y008447D02*
X002525Y008447D01*
X002525Y008605D02*
X009896Y008605D01*
X009870Y008764D02*
X002525Y008764D01*
X002525Y008922D02*
X009870Y008922D01*
X009938Y009081D02*
X002525Y009081D01*
X002525Y009239D02*
X008781Y009239D01*
X008776Y009244D02*
X008877Y009143D01*
X009009Y009089D01*
X009151Y009089D01*
X009283Y009143D01*
X009384Y009244D01*
X009439Y009376D01*
X009439Y009519D01*
X009384Y009651D01*
X009283Y009752D01*
X009151Y009806D01*
X009009Y009806D01*
X008877Y009752D01*
X008776Y009651D01*
X008721Y009519D01*
X008721Y009376D01*
X008776Y009244D01*
X008721Y009398D02*
X002525Y009398D01*
X002525Y009556D02*
X008737Y009556D01*
X008840Y009715D02*
X002525Y009715D01*
X002525Y009873D02*
X009870Y009873D01*
X009870Y010013D02*
X009870Y009632D01*
X010139Y009362D01*
X010521Y009362D01*
X010790Y009632D01*
X010790Y010013D01*
X010521Y010282D01*
X010139Y010282D01*
X009870Y010013D01*
X009889Y010032D02*
X002525Y010032D01*
X002525Y010190D02*
X010047Y010190D01*
X009994Y010507D02*
X002525Y010507D01*
X002525Y010349D02*
X011565Y010349D01*
X011605Y010190D02*
X010613Y010190D01*
X010771Y010032D02*
X014045Y010032D01*
X014045Y010190D02*
X012555Y010190D01*
X012708Y010349D02*
X014045Y010349D01*
X014045Y010507D02*
X012740Y010507D01*
X013215Y010666D02*
X014072Y010666D01*
X014231Y010824D02*
X013362Y010824D01*
X013392Y010983D02*
X017566Y010983D01*
X017440Y011141D02*
X013392Y011141D01*
X012580Y011617D02*
X010775Y011617D01*
X010790Y011632D02*
X010790Y012013D01*
X010521Y012282D01*
X010471Y012282D01*
X010396Y012357D01*
X009771Y012357D01*
X009240Y012889D01*
X009240Y013006D01*
X009521Y013287D01*
X010521Y013287D01*
X010615Y013381D01*
X010774Y013540D01*
X010777Y013540D01*
X010820Y013586D01*
X010865Y013631D01*
X010865Y013635D01*
X010867Y013637D01*
X010865Y013701D01*
X010865Y013764D01*
X010862Y013766D01*
X010790Y015651D01*
X010790Y016013D01*
X010775Y016027D01*
X010754Y016596D01*
X010790Y016632D01*
X010790Y017013D01*
X010521Y017282D01*
X010139Y017282D01*
X010089Y017232D01*
X007639Y017232D01*
X006971Y016564D01*
X006908Y016627D01*
X006776Y016681D01*
X006634Y016681D01*
X006502Y016627D01*
X006401Y016526D01*
X006346Y016394D01*
X006346Y016251D01*
X006401Y016119D01*
X006502Y016018D01*
X006634Y015964D01*
X006776Y015964D01*
X006908Y016018D01*
X006920Y016030D01*
X006920Y012631D01*
X007014Y012537D01*
X008514Y011037D01*
X009771Y011037D01*
X009865Y011131D01*
X010118Y011384D01*
X010139Y011362D01*
X010521Y011362D01*
X010790Y011632D01*
X010790Y011775D02*
X012580Y011775D01*
X012565Y011934D02*
X010790Y011934D01*
X010711Y012092D02*
X012565Y012092D01*
X012425Y011458D02*
X010617Y011458D01*
X010568Y011300D02*
X010034Y011300D01*
X009998Y011141D02*
X009875Y011141D01*
X009870Y010983D02*
X004230Y010983D01*
X004280Y011032D02*
X003870Y010622D01*
X003290Y010622D01*
X002880Y011032D01*
X002880Y011612D01*
X003290Y012022D01*
X003870Y012022D01*
X004280Y011612D01*
X004280Y011032D01*
X004280Y011141D02*
X008410Y011141D01*
X008251Y011300D02*
X004280Y011300D01*
X004280Y011458D02*
X008093Y011458D01*
X007934Y011617D02*
X004275Y011617D01*
X004117Y011775D02*
X007776Y011775D01*
X007617Y011934D02*
X003958Y011934D01*
X003202Y011934D02*
X002525Y011934D01*
X002525Y012092D02*
X007459Y012092D01*
X007300Y012251D02*
X002525Y012251D01*
X002525Y012409D02*
X007142Y012409D01*
X006983Y012568D02*
X002525Y012568D01*
X002525Y012726D02*
X006920Y012726D01*
X006920Y012885D02*
X002525Y012885D01*
X002525Y013043D02*
X003373Y013043D01*
X003448Y013012D02*
X004233Y013012D01*
X004275Y012971D01*
X005385Y012971D01*
X005502Y013088D01*
X005502Y013962D01*
X005385Y014080D01*
X004702Y014080D01*
X004679Y014103D01*
X004462Y014192D01*
X003448Y014192D01*
X003231Y014103D01*
X003065Y013937D01*
X002975Y013720D01*
X002975Y013485D01*
X003065Y013268D01*
X003231Y013102D01*
X003448Y013012D01*
X003131Y013202D02*
X002525Y013202D01*
X002525Y013360D02*
X003027Y013360D01*
X002975Y013519D02*
X002525Y013519D01*
X002525Y013677D02*
X002975Y013677D01*
X003023Y013836D02*
X002525Y013836D01*
X002525Y013994D02*
X003123Y013994D01*
X003352Y014153D02*
X002525Y014153D01*
X002525Y014311D02*
X006920Y014311D01*
X006920Y014153D02*
X004558Y014153D01*
X005470Y013994D02*
X006920Y013994D01*
X006920Y013836D02*
X005502Y013836D01*
X005502Y013677D02*
X006920Y013677D01*
X006920Y013519D02*
X005502Y013519D01*
X005502Y013360D02*
X006920Y013360D01*
X006920Y013202D02*
X005502Y013202D01*
X005458Y013043D02*
X006920Y013043D01*
X006920Y014470D02*
X002525Y014470D01*
X002525Y014628D02*
X006920Y014628D01*
X006920Y014787D02*
X002525Y014787D01*
X002525Y014945D02*
X006920Y014945D01*
X006920Y015104D02*
X002525Y015104D01*
X002525Y015262D02*
X006920Y015262D01*
X006920Y015421D02*
X002525Y015421D01*
X002525Y015579D02*
X006920Y015579D01*
X006920Y015738D02*
X002525Y015738D01*
X002525Y015896D02*
X006920Y015896D01*
X006465Y016055D02*
X002525Y016055D01*
X002525Y016213D02*
X006362Y016213D01*
X006346Y016372D02*
X002582Y016372D01*
X002525Y016315D02*
X003246Y017036D01*
X003448Y016952D01*
X004462Y016952D01*
X004679Y017042D01*
X004702Y017065D01*
X005385Y017065D01*
X005502Y017183D01*
X005502Y018057D01*
X005385Y018174D01*
X004275Y018174D01*
X004233Y018132D01*
X003448Y018132D01*
X003231Y018043D01*
X003065Y017877D01*
X002982Y017677D01*
X002024Y016719D01*
X001934Y016629D01*
X001885Y016511D01*
X001885Y006009D01*
X001934Y005891D01*
X002559Y005266D01*
X002649Y005176D01*
X002766Y005127D01*
X002790Y005127D01*
X002884Y005089D01*
X003026Y005089D01*
X003158Y005143D01*
X003259Y005244D01*
X003314Y005376D01*
X003314Y005519D01*
X003259Y005651D01*
X003158Y005752D01*
X003026Y005806D01*
X002924Y005806D01*
X002525Y006205D01*
X002525Y016315D01*
X002741Y016530D02*
X006406Y016530D01*
X007095Y016689D02*
X002899Y016689D01*
X003058Y016847D02*
X007254Y016847D01*
X007412Y017006D02*
X004592Y017006D01*
X005484Y017164D02*
X007571Y017164D01*
X006658Y018393D02*
X006526Y018339D01*
X006384Y018339D01*
X006252Y018393D01*
X006151Y018494D01*
X006096Y018626D01*
X006096Y018769D01*
X006135Y018863D01*
X006057Y018863D01*
X005940Y018980D01*
X005940Y019540D01*
X006057Y019657D01*
X006853Y019657D01*
X006970Y019540D01*
X006970Y018980D01*
X006853Y018863D01*
X006775Y018863D01*
X006814Y018769D01*
X006814Y018626D01*
X006759Y018494D01*
X006658Y018393D01*
X006697Y018432D02*
X010800Y018432D01*
X010800Y018294D02*
X010800Y018998D01*
X010752Y019018D01*
X010651Y019119D01*
X010596Y019251D01*
X010596Y019394D01*
X010651Y019526D01*
X010752Y019627D01*
X010878Y019679D01*
X010917Y019718D01*
X011674Y019718D01*
X011791Y019601D01*
X011791Y018294D01*
X011674Y018177D01*
X010917Y018177D01*
X010800Y018294D01*
X010820Y018274D02*
X001392Y018274D01*
X001392Y018432D02*
X006213Y018432D01*
X006111Y018591D02*
X001392Y018591D01*
X001392Y018749D02*
X006096Y018749D01*
X006012Y018908D02*
X001392Y018908D01*
X001392Y019066D02*
X005940Y019066D01*
X005940Y019225D02*
X001392Y019225D01*
X001392Y019383D02*
X005940Y019383D01*
X005942Y019542D02*
X001392Y019542D01*
X001392Y019700D02*
X006945Y019700D01*
X006921Y019710D02*
X007024Y019667D01*
X009636Y019667D01*
X009739Y019710D01*
X009817Y019789D01*
X009860Y019892D01*
X009860Y020878D01*
X009817Y020981D01*
X009739Y021060D01*
X009636Y021102D01*
X009110Y021102D01*
X009110Y022253D01*
X009067Y022356D01*
X008989Y022435D01*
X008886Y022477D01*
X006774Y022477D01*
X006671Y022435D01*
X006593Y022356D01*
X006550Y022253D01*
X006550Y021017D01*
X006593Y020914D01*
X006671Y020835D01*
X006774Y020792D01*
X006800Y020792D01*
X006800Y020532D01*
X006057Y020532D01*
X005940Y020415D01*
X005940Y019855D01*
X006057Y019738D01*
X006700Y019738D01*
X006759Y019714D01*
X006901Y019714D01*
X006913Y019719D01*
X006921Y019710D01*
X006968Y019542D02*
X010667Y019542D01*
X010596Y019383D02*
X006970Y019383D01*
X006970Y019225D02*
X010607Y019225D01*
X010704Y019066D02*
X006970Y019066D01*
X006898Y018908D02*
X010800Y018908D01*
X010800Y018749D02*
X006814Y018749D01*
X006799Y018591D02*
X010800Y018591D01*
X011009Y017681D02*
X010877Y017627D01*
X010776Y017526D01*
X010721Y017394D01*
X010721Y017251D01*
X010776Y017119D01*
X010877Y017018D01*
X011009Y016964D01*
X011151Y016964D01*
X011283Y017018D01*
X011384Y017119D01*
X011439Y017251D01*
X011439Y017394D01*
X011384Y017526D01*
X011283Y017627D01*
X011151Y017681D01*
X011009Y017681D01*
X010909Y017640D02*
X005502Y017640D01*
X005502Y017798D02*
X014920Y017798D01*
X014920Y017640D02*
X011251Y017640D01*
X011402Y017481D02*
X014945Y017481D01*
X015093Y017323D02*
X011439Y017323D01*
X011403Y017164D02*
X016170Y017164D01*
X016170Y017006D02*
X013470Y017006D01*
X013470Y016847D02*
X016170Y016847D01*
X016170Y016689D02*
X013470Y016689D01*
X013598Y016530D02*
X016170Y016530D01*
X014920Y017957D02*
X005502Y017957D01*
X005444Y018115D02*
X014920Y018115D01*
X014920Y018274D02*
X011771Y018274D01*
X011791Y018432D02*
X014920Y018432D01*
X014920Y018591D02*
X011791Y018591D01*
X011791Y018749D02*
X014920Y018749D01*
X014920Y018908D02*
X011791Y018908D01*
X011791Y019066D02*
X014973Y019066D01*
X014941Y019122D02*
X015219Y019122D01*
X015477Y019229D01*
X015673Y019426D01*
X015780Y019683D01*
X015780Y019962D01*
X015673Y020219D01*
X015477Y020416D01*
X015219Y020522D01*
X014941Y020522D01*
X014884Y020499D01*
X014884Y020512D01*
X014767Y020629D01*
X013893Y020629D01*
X013776Y020512D01*
X013776Y019795D01*
X013893Y019678D01*
X014296Y019678D01*
X014356Y019619D01*
X014443Y019531D01*
X014487Y019426D01*
X014683Y019229D01*
X014941Y019122D01*
X014693Y019225D02*
X011791Y019225D01*
X011791Y019383D02*
X014529Y019383D01*
X014432Y019542D02*
X011791Y019542D01*
X011691Y019700D02*
X013870Y019700D01*
X013776Y019859D02*
X013013Y019859D01*
X012989Y019835D02*
X013067Y019914D01*
X013110Y020017D01*
X013110Y020878D01*
X013067Y020981D01*
X012989Y021060D01*
X012886Y021102D01*
X010967Y021102D01*
X010970Y021105D01*
X010970Y021665D01*
X010970Y021915D01*
X010853Y022032D01*
X010057Y022032D01*
X009940Y021915D01*
X009940Y021105D01*
X010016Y021029D01*
X009968Y020981D01*
X009925Y020878D01*
X009925Y020017D01*
X009968Y019914D01*
X010046Y019835D01*
X010149Y019792D01*
X012886Y019792D01*
X012989Y019835D01*
X013110Y020017D02*
X013776Y020017D01*
X013776Y020176D02*
X013110Y020176D01*
X013110Y020334D02*
X013776Y020334D01*
X013776Y020493D02*
X013110Y020493D01*
X013110Y020651D02*
X020550Y020651D01*
X020550Y020493D02*
X015290Y020493D01*
X015558Y020334D02*
X020550Y020334D01*
X020550Y020176D02*
X015691Y020176D01*
X015757Y020017D02*
X020550Y020017D01*
X020550Y019859D02*
X015780Y019859D01*
X015780Y019700D02*
X018105Y019700D01*
X017989Y019542D02*
X015722Y019542D01*
X015631Y019383D02*
X017940Y019383D01*
X017940Y019225D02*
X015467Y019225D01*
X017687Y019066D02*
X018004Y019066D01*
X018141Y018908D02*
X017740Y018908D01*
X018970Y019225D02*
X020656Y019225D01*
X020553Y019383D02*
X018970Y019383D01*
X018921Y019542D02*
X020550Y019542D01*
X020550Y019700D02*
X018805Y019700D01*
X020574Y020810D02*
X013110Y020810D01*
X013073Y020968D02*
X020753Y020968D01*
X020830Y020697D02*
X020830Y019447D01*
X022830Y019447D01*
X022830Y020697D01*
X020830Y020697D01*
X020830Y020651D02*
X022830Y020651D01*
X022830Y020493D02*
X020830Y020493D01*
X020830Y020334D02*
X022830Y020334D01*
X022830Y020176D02*
X020830Y020176D01*
X020830Y020017D02*
X022830Y020017D01*
X022830Y019859D02*
X020830Y019859D01*
X020830Y019700D02*
X022830Y019700D01*
X022830Y019542D02*
X020830Y019542D01*
X019174Y021127D02*
X010970Y021127D01*
X010970Y021285D02*
X019045Y021285D01*
X019045Y021444D02*
X010970Y021444D01*
X010970Y021602D02*
X019045Y021602D01*
X019045Y021761D02*
X010970Y021761D01*
X010965Y021919D02*
X019045Y021919D01*
X018973Y022078D02*
X009110Y022078D01*
X009110Y022236D02*
X016565Y022236D01*
X016406Y022395D02*
X013049Y022395D01*
X013067Y022414D02*
X013110Y022517D01*
X013110Y023503D01*
X013067Y023606D01*
X012989Y023685D01*
X012886Y023727D01*
X010899Y023727D01*
X010796Y023685D01*
X010718Y023606D01*
X010675Y023503D01*
X010675Y022517D01*
X010718Y022414D01*
X010796Y022335D01*
X010899Y022292D01*
X011011Y022292D01*
X012774Y022292D01*
X012886Y022292D01*
X012989Y022335D01*
X013067Y022414D01*
X013110Y022553D02*
X016248Y022553D01*
X016089Y022712D02*
X013110Y022712D01*
X013110Y022870D02*
X015931Y022870D01*
X015772Y023029D02*
X013110Y023029D01*
X013110Y023187D02*
X015670Y023187D01*
X015670Y023346D02*
X013110Y023346D01*
X013109Y023504D02*
X015670Y023504D01*
X015670Y023663D02*
X013010Y023663D01*
X012830Y023447D02*
X012830Y022572D01*
X010970Y022572D01*
X010970Y022790D01*
X010955Y022805D01*
X010955Y023447D01*
X012830Y023447D01*
X012830Y023346D02*
X010955Y023346D01*
X010955Y023187D02*
X012830Y023187D01*
X012830Y023029D02*
X010955Y023029D01*
X010955Y022870D02*
X012830Y022870D01*
X012830Y022712D02*
X010970Y022712D01*
X010675Y022712D02*
X001392Y022712D01*
X001392Y022870D02*
X010675Y022870D01*
X010675Y023029D02*
X001392Y023029D01*
X001392Y023187D02*
X010675Y023187D01*
X010675Y023346D02*
X001392Y023346D01*
X001392Y023504D02*
X010676Y023504D01*
X010775Y023663D02*
X003252Y023663D01*
X003351Y023689D02*
X003008Y023597D01*
X002652Y023597D01*
X002309Y023689D01*
X002001Y023867D01*
X001750Y024119D01*
X001572Y024426D01*
X001480Y024770D01*
X001480Y025125D01*
X001572Y025469D01*
X001750Y025776D01*
X002001Y026028D01*
X002309Y026205D01*
X002652Y026297D01*
X003008Y026297D01*
X003351Y026205D01*
X003659Y026028D01*
X003910Y025776D01*
X004088Y025469D01*
X004090Y025462D01*
X004468Y025462D01*
X004585Y025345D01*
X004585Y024550D01*
X004468Y024432D01*
X004090Y024432D01*
X004088Y024426D01*
X003910Y024119D01*
X003659Y023867D01*
X003351Y023689D01*
X003580Y023821D02*
X015670Y023821D01*
X015670Y023980D02*
X003772Y023980D01*
X003922Y024138D02*
X007736Y024138D01*
X007852Y024022D02*
X008308Y024022D01*
X008630Y024345D01*
X008630Y024800D01*
X008308Y025122D01*
X007852Y025122D01*
X007530Y024800D01*
X007530Y024345D01*
X007852Y024022D01*
X007578Y024297D02*
X004013Y024297D01*
X004491Y024455D02*
X007530Y024455D01*
X007530Y024614D02*
X004585Y024614D01*
X004585Y024772D02*
X007530Y024772D01*
X007661Y024931D02*
X004585Y024931D01*
X004585Y025089D02*
X007819Y025089D01*
X008341Y025089D02*
X011819Y025089D01*
X011852Y025122D02*
X011530Y024800D01*
X011530Y024345D01*
X011852Y024022D01*
X012308Y024022D01*
X012630Y024345D01*
X012630Y024800D01*
X012308Y025122D01*
X011852Y025122D01*
X011661Y024931D02*
X008499Y024931D01*
X008630Y024772D02*
X011530Y024772D01*
X011530Y024614D02*
X008630Y024614D01*
X008630Y024455D02*
X011530Y024455D01*
X011578Y024297D02*
X008582Y024297D01*
X008424Y024138D02*
X011736Y024138D01*
X012424Y024138D02*
X015670Y024138D01*
X015670Y024297D02*
X012582Y024297D01*
X012630Y024455D02*
X015670Y024455D01*
X015764Y024607D02*
X015764Y024607D01*
X015770Y024614D02*
X012630Y024614D01*
X012630Y024772D02*
X015929Y024772D01*
X016087Y024931D02*
X012499Y024931D01*
X012341Y025089D02*
X031455Y025089D01*
X031455Y024931D02*
X020073Y024931D01*
X020231Y024772D02*
X022071Y024772D01*
X021893Y024614D02*
X021815Y024425D01*
X021815Y024297D02*
X020365Y024297D01*
X020365Y024138D02*
X021849Y024138D01*
X021944Y023980D02*
X020365Y023980D01*
X022622Y024759D02*
X022767Y024614D01*
X027881Y021572D02*
X027955Y021572D01*
X027615Y020017D02*
X028660Y020017D01*
X028502Y019859D02*
X027615Y019859D01*
X027615Y019700D02*
X028343Y019700D01*
X028255Y019542D02*
X027615Y019542D01*
X027615Y019383D02*
X028255Y019383D01*
X028255Y019225D02*
X027615Y019225D01*
X027615Y019066D02*
X028255Y019066D01*
X028380Y018908D02*
X027615Y018908D01*
X027615Y017164D02*
X029069Y017164D01*
X028940Y017006D02*
X027615Y017006D01*
X027615Y016847D02*
X028940Y016847D01*
X028940Y016689D02*
X027615Y016689D01*
X027615Y016530D02*
X029019Y016530D01*
X029177Y016372D02*
X027615Y016372D01*
X023170Y016372D02*
X023110Y016372D01*
X023110Y016213D02*
X023170Y016213D01*
X023170Y016055D02*
X023110Y016055D01*
X023110Y015896D02*
X023170Y015896D01*
X023170Y015738D02*
X023110Y015738D01*
X023110Y015579D02*
X023170Y015579D01*
X023170Y015421D02*
X023110Y015421D01*
X023115Y015262D02*
X023170Y015262D01*
X023170Y015104D02*
X023115Y015104D01*
X023115Y014945D02*
X023170Y014945D01*
X023170Y014787D02*
X023115Y014787D01*
X023115Y014628D02*
X023170Y014628D01*
X023170Y014470D02*
X023115Y014470D01*
X023115Y014311D02*
X023170Y014311D01*
X023170Y014153D02*
X023115Y014153D01*
X023115Y013994D02*
X023170Y013994D01*
X023170Y013836D02*
X023115Y013836D01*
X023115Y013677D02*
X023170Y013677D01*
X023170Y013519D02*
X023115Y013519D01*
X023110Y013360D02*
X023170Y013360D01*
X023170Y013202D02*
X023110Y013202D01*
X023110Y013043D02*
X023170Y013043D01*
X023170Y012885D02*
X023110Y012885D01*
X023110Y012726D02*
X023170Y012726D01*
X023170Y012568D02*
X023110Y012568D01*
X023110Y012409D02*
X023170Y012409D01*
X023170Y012251D02*
X023110Y012251D01*
X023090Y012092D02*
X023170Y012092D01*
X023170Y011934D02*
X022926Y011934D01*
X022830Y012885D02*
X020830Y012885D01*
X020830Y013043D02*
X022830Y013043D01*
X022830Y013202D02*
X020830Y013202D01*
X019796Y015197D02*
X019705Y015197D01*
X020830Y015322D02*
X020830Y016447D01*
X022830Y016447D01*
X022830Y015322D01*
X020830Y015322D01*
X020830Y015421D02*
X022830Y015421D01*
X022830Y015579D02*
X020830Y015579D01*
X020830Y015738D02*
X022830Y015738D01*
X022830Y015896D02*
X020830Y015896D01*
X020830Y016055D02*
X022830Y016055D01*
X022830Y016213D02*
X020830Y016213D01*
X020830Y016372D02*
X022830Y016372D01*
X023099Y016530D02*
X023170Y016530D01*
X023170Y016689D02*
X022979Y016689D01*
X017246Y012092D02*
X017164Y012092D01*
X017164Y011934D02*
X017246Y011934D01*
X016929Y010824D02*
X017725Y010824D01*
X014170Y009873D02*
X010790Y009873D01*
X010790Y009715D02*
X014170Y009715D01*
X014163Y009556D02*
X010715Y009556D01*
X010556Y009398D02*
X011858Y009398D01*
X011899Y009415D02*
X011796Y009372D01*
X011718Y009294D01*
X011675Y009191D01*
X011675Y009121D01*
X011659Y009081D01*
X011695Y009239D02*
X010564Y009239D01*
X010096Y009239D02*
X009379Y009239D01*
X009439Y009398D02*
X010104Y009398D01*
X009945Y009556D02*
X009423Y009556D01*
X009320Y009715D02*
X009870Y009715D01*
X009870Y010666D02*
X003913Y010666D01*
X004072Y010824D02*
X009870Y010824D01*
X009205Y010572D02*
X009080Y010572D01*
X010552Y012251D02*
X011312Y012251D01*
X011252Y012311D02*
X011252Y012311D01*
X011154Y012409D02*
X010568Y012409D01*
X010521Y012362D02*
X010790Y012632D01*
X010790Y013013D01*
X010521Y013282D01*
X010139Y013282D01*
X009870Y013013D01*
X009870Y012632D01*
X010139Y012362D01*
X010521Y012362D01*
X010726Y012568D02*
X011090Y012568D01*
X011090Y012726D02*
X010790Y012726D01*
X010790Y012885D02*
X011090Y012885D01*
X011090Y013043D02*
X010760Y013043D01*
X010601Y013202D02*
X011090Y013202D01*
X011090Y013360D02*
X010594Y013360D01*
X010753Y013519D02*
X011090Y013519D01*
X011090Y013677D02*
X010866Y013677D01*
X010860Y013836D02*
X011090Y013836D01*
X011090Y013994D02*
X010854Y013994D01*
X010848Y014153D02*
X011090Y014153D01*
X011090Y014311D02*
X010842Y014311D01*
X010835Y014470D02*
X011090Y014470D01*
X011090Y014628D02*
X010829Y014628D01*
X010823Y014787D02*
X011090Y014787D01*
X011090Y014945D02*
X010817Y014945D01*
X010811Y015104D02*
X011090Y015104D01*
X011090Y015262D02*
X010805Y015262D01*
X010799Y015421D02*
X011090Y015421D01*
X011090Y015579D02*
X010793Y015579D01*
X010790Y015738D02*
X011156Y015738D01*
X011252Y015833D02*
X011252Y015833D01*
X011315Y015896D02*
X010790Y015896D01*
X010774Y016055D02*
X011340Y016055D01*
X011324Y016213D02*
X010768Y016213D01*
X010762Y016372D02*
X011309Y016372D01*
X011309Y016530D02*
X010756Y016530D01*
X010790Y016689D02*
X011309Y016689D01*
X011309Y016847D02*
X010790Y016847D01*
X010790Y017006D02*
X010907Y017006D01*
X010757Y017164D02*
X010638Y017164D01*
X010721Y017323D02*
X005502Y017323D01*
X005502Y017481D02*
X010758Y017481D01*
X011253Y017006D02*
X011330Y017006D01*
X013080Y016072D02*
X013080Y016010D01*
X013580Y015447D02*
X013580Y014322D01*
X011580Y014322D01*
X011580Y015447D01*
X013580Y015447D01*
X013580Y015421D02*
X011580Y015421D01*
X011580Y015262D02*
X013580Y015262D01*
X013580Y015104D02*
X011580Y015104D01*
X011580Y014945D02*
X013580Y014945D01*
X013580Y014787D02*
X011580Y014787D01*
X011580Y014628D02*
X013580Y014628D01*
X013580Y014470D02*
X011580Y014470D01*
X011580Y013822D02*
X013580Y013822D01*
X013580Y012697D01*
X011580Y012697D01*
X011580Y013822D01*
X011580Y013677D02*
X013580Y013677D01*
X013580Y013519D02*
X011580Y013519D01*
X011580Y013360D02*
X013580Y013360D01*
X013580Y013202D02*
X011580Y013202D01*
X011580Y013043D02*
X013580Y013043D01*
X013580Y012885D02*
X011580Y012885D01*
X011580Y012726D02*
X013580Y012726D01*
X013455Y013197D02*
X013330Y013260D01*
X013080Y013010D01*
X012289Y011300D02*
X012092Y011300D01*
X010092Y012409D02*
X009719Y012409D01*
X009561Y012568D02*
X009934Y012568D01*
X009870Y012726D02*
X009402Y012726D01*
X009244Y012885D02*
X009870Y012885D01*
X009900Y013043D02*
X009277Y013043D01*
X009436Y013202D02*
X010059Y013202D01*
X012143Y015197D02*
X012330Y015322D01*
X010900Y019700D02*
X009715Y019700D01*
X009846Y019859D02*
X010022Y019859D01*
X009925Y020017D02*
X009860Y020017D01*
X009860Y020176D02*
X009925Y020176D01*
X009925Y020334D02*
X009860Y020334D01*
X009860Y020493D02*
X009925Y020493D01*
X009925Y020651D02*
X009860Y020651D01*
X009860Y020810D02*
X009925Y020810D01*
X009962Y020968D02*
X009823Y020968D01*
X009940Y021127D02*
X009110Y021127D01*
X009110Y021285D02*
X009940Y021285D01*
X009940Y021444D02*
X009110Y021444D01*
X009110Y021602D02*
X009940Y021602D01*
X009940Y021761D02*
X009110Y021761D01*
X009110Y021919D02*
X009945Y021919D01*
X010455Y021635D02*
X010455Y021385D01*
X010205Y020822D02*
X012830Y020822D01*
X012830Y020072D01*
X010205Y020072D01*
X010205Y020822D01*
X010205Y020810D02*
X012830Y020810D01*
X012830Y020651D02*
X010205Y020651D01*
X010205Y020493D02*
X012830Y020493D01*
X012830Y020334D02*
X010205Y020334D01*
X010205Y020176D02*
X012830Y020176D01*
X010736Y022395D02*
X009028Y022395D01*
X008830Y022197D02*
X008830Y021072D01*
X006830Y021072D01*
X006830Y022197D01*
X008830Y022197D01*
X008830Y022078D02*
X006830Y022078D01*
X006830Y021919D02*
X008830Y021919D01*
X008830Y021761D02*
X006830Y021761D01*
X006830Y021602D02*
X008830Y021602D01*
X008830Y021444D02*
X006830Y021444D01*
X006830Y021285D02*
X008830Y021285D01*
X008830Y021127D02*
X006830Y021127D01*
X006550Y021127D02*
X005212Y021127D01*
X005173Y021219D02*
X004977Y021416D01*
X004719Y021522D01*
X004441Y021522D01*
X004183Y021416D01*
X003987Y021219D01*
X003880Y020962D01*
X003880Y020683D01*
X003987Y020426D01*
X004183Y020229D01*
X004441Y020122D01*
X004719Y020122D01*
X004977Y020229D01*
X005173Y020426D01*
X005280Y020683D01*
X005280Y020962D01*
X005173Y021219D01*
X005107Y021285D02*
X006550Y021285D01*
X006550Y021444D02*
X004909Y021444D01*
X004251Y021444D02*
X001392Y021444D01*
X001392Y021602D02*
X006550Y021602D01*
X006550Y021761D02*
X001392Y021761D01*
X001392Y021919D02*
X006550Y021919D01*
X006550Y022078D02*
X001392Y022078D01*
X001392Y022236D02*
X006550Y022236D01*
X006632Y022395D02*
X001392Y022395D01*
X001392Y022553D02*
X010675Y022553D01*
X009580Y020822D02*
X009580Y019955D01*
X009573Y019947D01*
X007167Y019947D01*
X007189Y020001D01*
X007189Y020144D01*
X007134Y020276D01*
X007080Y020330D01*
X007080Y020822D01*
X009580Y020822D01*
X009580Y020810D02*
X007080Y020810D01*
X007080Y020651D02*
X009580Y020651D01*
X009580Y020493D02*
X007080Y020493D01*
X007080Y020334D02*
X009580Y020334D01*
X009580Y020176D02*
X007175Y020176D01*
X007189Y020017D02*
X009580Y020017D01*
X008330Y020288D02*
X008205Y020413D01*
X008330Y020447D01*
X006800Y020651D02*
X005267Y020651D01*
X005280Y020810D02*
X006732Y020810D01*
X006570Y020968D02*
X005277Y020968D01*
X005201Y020493D02*
X006018Y020493D01*
X005940Y020334D02*
X005082Y020334D01*
X004848Y020176D02*
X005940Y020176D01*
X005940Y020017D02*
X001392Y020017D01*
X001392Y019859D02*
X005940Y019859D01*
X006455Y020135D02*
X006518Y020072D01*
X006830Y020072D01*
X006455Y019260D02*
X006455Y018697D01*
X004311Y020176D02*
X001392Y020176D01*
X001392Y020334D02*
X004078Y020334D01*
X003959Y020493D02*
X001392Y020493D01*
X001392Y020651D02*
X003893Y020651D01*
X003880Y020810D02*
X001392Y020810D01*
X001392Y020968D02*
X003883Y020968D01*
X003948Y021127D02*
X001392Y021127D01*
X001392Y021285D02*
X004053Y021285D01*
X002408Y023663D02*
X001392Y023663D01*
X001392Y023821D02*
X002080Y023821D01*
X001888Y023980D02*
X001392Y023980D01*
X001392Y024138D02*
X001738Y024138D01*
X001647Y024297D02*
X001392Y024297D01*
X001392Y024455D02*
X001564Y024455D01*
X001522Y024614D02*
X001392Y024614D01*
X001392Y024772D02*
X001480Y024772D01*
X001480Y024931D02*
X001392Y024931D01*
X001392Y025089D02*
X001480Y025089D01*
X001513Y025248D02*
X001392Y025248D01*
X001392Y025406D02*
X001555Y025406D01*
X001628Y025565D02*
X001392Y025565D01*
X001392Y025723D02*
X001719Y025723D01*
X001855Y025882D02*
X001392Y025882D01*
X001392Y026040D02*
X002023Y026040D01*
X002298Y026199D02*
X001392Y026199D01*
X001392Y026357D02*
X031455Y026357D01*
X031455Y026199D02*
X003362Y026199D01*
X003637Y026040D02*
X031455Y026040D01*
X031455Y025882D02*
X003805Y025882D01*
X003941Y025723D02*
X031455Y025723D01*
X031455Y025565D02*
X004032Y025565D01*
X004524Y025406D02*
X031455Y025406D01*
X031455Y025248D02*
X004585Y025248D01*
X001392Y026516D02*
X031455Y026516D01*
X031830Y026447D02*
X033580Y026447D01*
X033580Y024947D01*
X031830Y024947D01*
X031830Y026447D01*
X031830Y026357D02*
X033580Y026357D01*
X033580Y026199D02*
X031830Y026199D01*
X031830Y026040D02*
X033580Y026040D01*
X033580Y025882D02*
X031830Y025882D01*
X031830Y025723D02*
X033580Y025723D01*
X033580Y025565D02*
X031830Y025565D01*
X031830Y025406D02*
X033580Y025406D01*
X033580Y025248D02*
X031830Y025248D01*
X031830Y025089D02*
X033580Y025089D01*
X033955Y026516D02*
X039580Y026516D01*
X038330Y013948D02*
X038330Y013760D01*
X036498Y007853D02*
X036498Y007853D01*
X036823Y006326D02*
X036823Y006326D01*
X036498Y006292D02*
X036498Y006292D01*
X036815Y004484D02*
X035365Y004484D01*
X035365Y004326D02*
X036815Y004326D01*
X036815Y004167D02*
X035365Y004167D01*
X035365Y004009D02*
X036815Y004009D01*
X036924Y003850D02*
X035365Y003850D01*
X035365Y003692D02*
X036951Y003692D01*
X036859Y003533D02*
X035365Y003533D01*
X035365Y003375D02*
X036797Y003375D01*
X036754Y003216D02*
X035365Y003216D01*
X035365Y003058D02*
X036730Y003058D01*
X036730Y002899D02*
X035365Y002899D01*
X035365Y002741D02*
X036738Y002741D01*
X036780Y002582D02*
X035365Y002582D01*
X035365Y002424D02*
X036823Y002424D01*
X036915Y002265D02*
X035365Y002265D01*
X035365Y002107D02*
X037011Y002107D01*
X037170Y001948D02*
X035307Y001948D01*
X035149Y001790D02*
X037385Y001790D01*
X034705Y001982D02*
X032705Y001982D01*
X032705Y002197D01*
X033955Y002197D01*
X033955Y003697D01*
X034705Y003697D01*
X034705Y001982D01*
X034705Y002107D02*
X032705Y002107D01*
X030705Y002107D01*
X030705Y001982D02*
X030705Y003697D01*
X031455Y003697D01*
X031455Y002197D01*
X032705Y002197D01*
X032705Y001982D01*
X030705Y001982D01*
X030705Y002265D02*
X031455Y002265D01*
X031455Y002424D02*
X030705Y002424D01*
X030705Y002582D02*
X031455Y002582D01*
X031455Y002741D02*
X030705Y002741D01*
X030705Y002899D02*
X031455Y002899D01*
X031455Y003058D02*
X030705Y003058D01*
X030705Y003216D02*
X031455Y003216D01*
X031455Y003375D02*
X030705Y003375D01*
X030705Y003533D02*
X031455Y003533D01*
X031455Y003692D02*
X030705Y003692D01*
X030045Y003692D02*
X029720Y003692D01*
X029720Y003850D02*
X030045Y003850D01*
X030045Y004009D02*
X029720Y004009D01*
X029720Y004167D02*
X030045Y004167D01*
X030107Y004326D02*
X029720Y004326D01*
X029720Y004484D02*
X030266Y004484D01*
X030424Y004643D02*
X029720Y004643D01*
X029720Y004801D02*
X030583Y004801D01*
X031830Y003697D02*
X033580Y003697D01*
X033580Y002447D01*
X031830Y002447D01*
X031830Y003697D01*
X031830Y003692D02*
X033580Y003692D01*
X033580Y003533D02*
X031830Y003533D01*
X031830Y003375D02*
X033580Y003375D01*
X033580Y003216D02*
X031830Y003216D01*
X031830Y003058D02*
X033580Y003058D01*
X033580Y002899D02*
X031830Y002899D01*
X031830Y002741D02*
X033580Y002741D01*
X033580Y002582D02*
X031830Y002582D01*
X030261Y001790D02*
X003525Y001790D01*
X003740Y001948D02*
X030103Y001948D01*
X030045Y002107D02*
X003899Y002107D01*
X003995Y002265D02*
X023564Y002265D01*
X023440Y002424D02*
X022021Y002424D01*
X022033Y002436D02*
X021966Y002369D01*
X021878Y002332D01*
X021782Y002332D01*
X018282Y002332D01*
X018194Y002369D01*
X018127Y002436D01*
X018090Y002525D01*
X018090Y003620D01*
X018127Y003708D01*
X018194Y003776D01*
X018282Y003812D01*
X021112Y003812D01*
X020815Y004109D01*
X020815Y004536D01*
X021117Y004837D01*
X021543Y004837D01*
X021845Y004536D01*
X021845Y004109D01*
X021548Y003812D01*
X021878Y003812D01*
X021966Y003776D01*
X022033Y003708D01*
X022070Y003620D01*
X022070Y002525D01*
X022033Y002436D01*
X022070Y002582D02*
X023440Y002582D01*
X023440Y002741D02*
X022070Y002741D01*
X022070Y002899D02*
X023440Y002899D01*
X023440Y003058D02*
X022070Y003058D01*
X022070Y003216D02*
X023440Y003216D01*
X023440Y003375D02*
X022070Y003375D01*
X022070Y003533D02*
X023440Y003533D01*
X023440Y003692D02*
X022040Y003692D01*
X021745Y004009D02*
X024065Y004009D01*
X024065Y004167D02*
X021845Y004167D01*
X021845Y004326D02*
X024065Y004326D01*
X024065Y004484D02*
X021845Y004484D01*
X021738Y004643D02*
X024065Y004643D01*
X024065Y004801D02*
X021579Y004801D01*
X021081Y004801D02*
X020030Y004801D01*
X020030Y004643D02*
X020922Y004643D01*
X020815Y004484D02*
X019982Y004484D01*
X020030Y004532D02*
X019620Y004122D01*
X019040Y004122D01*
X018630Y004532D01*
X018630Y005112D01*
X019040Y005522D01*
X019620Y005522D01*
X020030Y005112D01*
X020030Y004532D01*
X019823Y004326D02*
X020815Y004326D01*
X020815Y004167D02*
X019665Y004167D01*
X018995Y004167D02*
X017368Y004167D01*
X017353Y004177D02*
X017351Y004177D01*
X014271Y006025D01*
X014236Y006049D01*
X014230Y006050D01*
X014225Y006053D01*
X014183Y006059D01*
X014142Y006067D01*
X014136Y006066D01*
X014131Y006067D01*
X014090Y006057D01*
X014049Y006048D01*
X014044Y006045D01*
X014038Y006044D01*
X014004Y006019D01*
X013969Y005995D01*
X013966Y005990D01*
X013961Y005987D01*
X013940Y005951D01*
X013467Y005242D01*
X013464Y005239D01*
X013441Y005202D01*
X013416Y005166D01*
X013416Y005162D01*
X013413Y005158D01*
X013406Y005115D01*
X013398Y005072D01*
X013399Y005068D01*
X013398Y005064D01*
X013408Y005021D01*
X013417Y004979D01*
X013419Y004975D01*
X013420Y004971D01*
X013445Y004936D01*
X013470Y004899D01*
X013473Y004897D01*
X013475Y004894D01*
X013513Y004871D01*
X013549Y004846D01*
X013553Y004845D01*
X016601Y002956D01*
X016601Y002956D01*
X016641Y002931D01*
X016682Y002906D01*
X016682Y002906D01*
X016682Y002906D01*
X016729Y002898D01*
X016776Y002890D01*
X016776Y002890D01*
X016777Y002890D01*
X016823Y002901D01*
X016869Y002912D01*
X016869Y002912D01*
X016870Y002913D01*
X016908Y002940D01*
X016946Y002968D01*
X016947Y002968D01*
X016947Y002969D02*
X016972Y003009D01*
X016997Y003049D01*
X016997Y003049D01*
X017448Y003782D01*
X017449Y003783D01*
X017473Y003823D01*
X017497Y003862D01*
X017497Y003864D01*
X017498Y003865D01*
X017505Y003911D01*
X017512Y003957D01*
X017512Y003958D01*
X017512Y003959D01*
X017501Y004004D01*
X017490Y004049D01*
X017489Y004051D01*
X017489Y004052D01*
X017461Y004089D01*
X017434Y004127D01*
X017433Y004128D01*
X017432Y004129D01*
X017392Y004153D01*
X017353Y004177D01*
X017500Y004009D02*
X020915Y004009D01*
X021074Y003850D02*
X017490Y003850D01*
X017392Y003692D02*
X018120Y003692D01*
X018090Y003533D02*
X017295Y003533D01*
X017197Y003375D02*
X018090Y003375D01*
X018090Y003216D02*
X017099Y003216D01*
X017002Y003058D02*
X018090Y003058D01*
X018090Y002899D02*
X016815Y002899D01*
X016720Y002899D02*
X004180Y002899D01*
X004172Y002741D02*
X018090Y002741D01*
X018090Y002582D02*
X004130Y002582D01*
X004087Y002424D02*
X018139Y002424D01*
X016947Y002968D02*
X016947Y002969D01*
X016436Y003058D02*
X004180Y003058D01*
X004156Y003216D02*
X016181Y003216D01*
X015925Y003375D02*
X004113Y003375D01*
X004051Y003533D02*
X015669Y003533D01*
X015414Y003692D02*
X003959Y003692D01*
X003836Y003850D02*
X015158Y003850D01*
X014902Y004009D02*
X006874Y004009D01*
X006914Y004050D02*
X006797Y003932D01*
X006238Y003932D01*
X006121Y004050D01*
X006121Y004845D01*
X006238Y004962D01*
X006463Y004962D01*
X006502Y005002D01*
X006634Y005056D01*
X006776Y005056D01*
X006908Y005002D01*
X007009Y004901D01*
X007064Y004769D01*
X007064Y004626D01*
X007009Y004494D01*
X006982Y004467D01*
X006976Y004454D01*
X006914Y004392D01*
X006914Y004050D01*
X006914Y004167D02*
X014647Y004167D01*
X014391Y004326D02*
X006914Y004326D01*
X006999Y004484D02*
X014135Y004484D01*
X013880Y004643D02*
X007064Y004643D01*
X007050Y004801D02*
X013624Y004801D01*
X013428Y004960D02*
X006950Y004960D01*
X006705Y004697D02*
X006705Y004635D01*
X006297Y005057D02*
X006414Y005175D01*
X006414Y005970D01*
X006297Y006087D01*
X005738Y006087D01*
X005687Y006036D01*
X004814Y006036D01*
X004697Y005919D01*
X004697Y005123D01*
X004814Y005006D01*
X005385Y005006D01*
X005385Y004737D01*
X005346Y004644D01*
X005346Y004501D01*
X005401Y004369D01*
X005502Y004268D01*
X005634Y004214D01*
X005776Y004214D01*
X005908Y004268D01*
X006009Y004369D01*
X006064Y004501D01*
X006064Y004644D01*
X006025Y004737D01*
X006025Y005057D01*
X006297Y005057D01*
X006358Y005118D02*
X008955Y005118D01*
X008913Y005136D02*
X009103Y005057D01*
X009307Y005057D01*
X009497Y005136D01*
X009642Y005281D01*
X009720Y005470D01*
X009720Y005675D01*
X009642Y005864D01*
X009497Y006009D01*
X009307Y006087D01*
X009103Y006087D01*
X008913Y006009D01*
X008768Y005864D01*
X008690Y005675D01*
X008690Y005470D01*
X008768Y005281D01*
X008913Y005136D01*
X008772Y005277D02*
X006414Y005277D01*
X006414Y005435D02*
X008704Y005435D01*
X008690Y005594D02*
X006414Y005594D01*
X006414Y005752D02*
X008722Y005752D01*
X008815Y005911D02*
X006414Y005911D01*
X006315Y006069D02*
X009059Y006069D01*
X009351Y006069D02*
X010309Y006069D01*
X010309Y005911D02*
X009595Y005911D01*
X009688Y005752D02*
X010410Y005752D01*
X010565Y005594D02*
X009720Y005594D01*
X009706Y005435D02*
X010610Y005435D01*
X011080Y005760D02*
X011080Y006232D01*
X011080Y005947D02*
X010080Y006635D01*
X009565Y006703D02*
X006064Y006703D01*
X005997Y006636D02*
X006142Y006781D01*
X006220Y006970D01*
X006220Y007175D01*
X006142Y007364D01*
X005997Y007509D01*
X005807Y007587D01*
X005603Y007587D01*
X005413Y007509D01*
X005268Y007364D01*
X005190Y007175D01*
X005190Y007139D01*
X004814Y007139D01*
X004707Y007032D01*
X004578Y007032D01*
X004479Y007072D01*
X003681Y007072D01*
X003497Y006996D01*
X003356Y006856D01*
X003280Y006672D01*
X003280Y006473D01*
X003356Y006289D01*
X003497Y006149D01*
X003681Y006072D01*
X004479Y006072D01*
X004663Y006149D01*
X004719Y006204D01*
X004814Y006109D01*
X005846Y006109D01*
X005963Y006226D01*
X005963Y006622D01*
X005997Y006636D01*
X005963Y006545D02*
X009565Y006545D01*
X009565Y006386D02*
X005963Y006386D01*
X005963Y006228D02*
X010178Y006228D01*
X009565Y006862D02*
X006175Y006862D01*
X006220Y007020D02*
X009671Y007020D01*
X009682Y007113D02*
X010478Y007113D01*
X010595Y007230D01*
X010595Y007790D01*
X010478Y007907D01*
X009682Y007907D01*
X009565Y007790D01*
X009565Y007727D01*
X009182Y007727D01*
X009158Y007752D01*
X009026Y007806D01*
X008884Y007806D01*
X008752Y007752D01*
X008651Y007651D01*
X008596Y007519D01*
X008596Y007376D01*
X008651Y007244D01*
X008752Y007143D01*
X008884Y007089D01*
X009026Y007089D01*
X009158Y007143D01*
X009182Y007167D01*
X009628Y007167D01*
X009682Y007113D01*
X009955Y007447D02*
X010080Y007510D01*
X009955Y007447D02*
X008955Y007447D01*
X008716Y007179D02*
X006218Y007179D01*
X006153Y007337D02*
X008612Y007337D01*
X008596Y007496D02*
X006010Y007496D01*
X005400Y007496D02*
X002525Y007496D01*
X002525Y007654D02*
X008655Y007654D01*
X009588Y007813D02*
X002525Y007813D01*
X002525Y007971D02*
X011671Y007971D01*
X011659Y007813D02*
X010572Y007813D01*
X010595Y007654D02*
X011673Y007654D01*
X011659Y007496D02*
X010595Y007496D01*
X010595Y007337D02*
X011675Y007337D01*
X011711Y007179D02*
X010544Y007179D01*
X011955Y007322D02*
X011955Y009135D01*
X013705Y009135D01*
X013705Y007322D01*
X011955Y007322D01*
X011955Y007337D02*
X013705Y007337D01*
X013705Y007496D02*
X011955Y007496D01*
X011955Y007654D02*
X013705Y007654D01*
X013705Y007813D02*
X011955Y007813D01*
X011955Y007971D02*
X013705Y007971D01*
X013705Y008130D02*
X011955Y008130D01*
X011955Y008288D02*
X013705Y008288D01*
X013705Y008447D02*
X011955Y008447D01*
X011955Y008605D02*
X013705Y008605D01*
X013705Y008764D02*
X011955Y008764D01*
X011955Y008922D02*
X013705Y008922D01*
X013705Y009081D02*
X011955Y009081D01*
X011899Y009415D02*
X013761Y009415D01*
X013864Y009372D01*
X013942Y009294D01*
X013985Y009191D01*
X013985Y009121D01*
X014001Y009081D01*
X013965Y009239D02*
X014120Y009239D01*
X014120Y009398D02*
X013802Y009398D01*
X011669Y008288D02*
X002525Y008288D01*
X002525Y008130D02*
X011659Y008130D01*
X013204Y006703D02*
X023170Y006703D01*
X023170Y006545D02*
X013413Y006545D01*
X013522Y006386D02*
X023170Y006386D01*
X023170Y006228D02*
X013527Y006228D01*
X013527Y006069D02*
X023232Y006069D01*
X023390Y005911D02*
X014461Y005911D01*
X014726Y005752D02*
X023549Y005752D01*
X023957Y005594D02*
X014990Y005594D01*
X015254Y005435D02*
X018953Y005435D01*
X018795Y005277D02*
X015518Y005277D01*
X015782Y005118D02*
X018636Y005118D01*
X018630Y004960D02*
X016046Y004960D01*
X016311Y004801D02*
X018630Y004801D01*
X018630Y004643D02*
X016575Y004643D01*
X016839Y004484D02*
X018678Y004484D01*
X018837Y004326D02*
X017103Y004326D01*
X019707Y005435D02*
X024065Y005435D01*
X024065Y005277D02*
X019865Y005277D01*
X020024Y005118D02*
X024065Y005118D01*
X024065Y004960D02*
X020030Y004960D01*
X021586Y003850D02*
X023535Y003850D01*
X024455Y003895D02*
X024455Y005322D01*
X024795Y005662D01*
X025771Y005662D01*
X025806Y005697D01*
X025830Y005697D01*
X025995Y005862D01*
X026021Y005862D01*
X026290Y006132D01*
X026290Y006157D01*
X026330Y006197D01*
X026830Y006197D01*
X026830Y005947D01*
X026330Y005947D01*
X026207Y005825D01*
X026171Y005810D01*
X026093Y005731D01*
X025843Y005481D01*
X025828Y005445D01*
X025580Y005197D01*
X025580Y003697D01*
X024455Y003697D01*
X024455Y003749D01*
X024470Y003764D01*
X024470Y003880D01*
X024455Y003895D01*
X024470Y003850D02*
X025580Y003850D01*
X025580Y004009D02*
X024455Y004009D01*
X024455Y004167D02*
X025580Y004167D01*
X025580Y004326D02*
X024455Y004326D01*
X024455Y004484D02*
X025580Y004484D01*
X025580Y004643D02*
X024455Y004643D01*
X024455Y004801D02*
X025580Y004801D01*
X025580Y004960D02*
X024455Y004960D01*
X024455Y005118D02*
X025580Y005118D01*
X025660Y005277D02*
X024455Y005277D01*
X024568Y005435D02*
X025818Y005435D01*
X025956Y005594D02*
X024727Y005594D01*
X025885Y005752D02*
X026114Y005752D01*
X026093Y005731D02*
X026093Y005731D01*
X026069Y005911D02*
X026294Y005911D01*
X026228Y006069D02*
X026830Y006069D01*
X026330Y005572D02*
X028080Y005572D01*
X028205Y005697D01*
X028580Y005697D01*
X028705Y005572D01*
X028705Y005322D01*
X028580Y005197D01*
X028205Y005197D01*
X026705Y003697D01*
X026080Y003697D01*
X026080Y005322D01*
X026330Y005572D01*
X026193Y005435D02*
X028705Y005435D01*
X028683Y005594D02*
X028102Y005594D01*
X028126Y005118D02*
X026080Y005118D01*
X026080Y004960D02*
X027968Y004960D01*
X027809Y004801D02*
X026080Y004801D01*
X026080Y004643D02*
X027651Y004643D01*
X027492Y004484D02*
X026080Y004484D01*
X026080Y004326D02*
X027334Y004326D01*
X027175Y004167D02*
X026080Y004167D01*
X026080Y004009D02*
X027017Y004009D01*
X026858Y003850D02*
X026080Y003850D01*
X026080Y005277D02*
X028660Y005277D01*
X028893Y003375D02*
X030045Y003375D01*
X030045Y003533D02*
X029720Y003533D01*
X030045Y003216D02*
X028735Y003216D01*
X028576Y003058D02*
X030045Y003058D01*
X030045Y002899D02*
X028418Y002899D01*
X028259Y002741D02*
X030045Y002741D01*
X030045Y002582D02*
X028101Y002582D01*
X027942Y002424D02*
X030045Y002424D01*
X030045Y002265D02*
X027784Y002265D01*
X033955Y002265D02*
X034705Y002265D01*
X034705Y002424D02*
X033955Y002424D01*
X033955Y002582D02*
X034705Y002582D01*
X034705Y002741D02*
X033955Y002741D01*
X033955Y002899D02*
X034705Y002899D01*
X034705Y003058D02*
X033955Y003058D01*
X033955Y003216D02*
X034705Y003216D01*
X034705Y003375D02*
X033955Y003375D01*
X033955Y003533D02*
X034705Y003533D01*
X034705Y003692D02*
X033955Y003692D01*
X013913Y005911D02*
X013527Y005911D01*
X013527Y005752D02*
X013807Y005752D01*
X013702Y005594D02*
X013527Y005594D01*
X013492Y005435D02*
X013596Y005435D01*
X013490Y005277D02*
X013340Y005277D01*
X013407Y005118D02*
X009455Y005118D01*
X009638Y005277D02*
X012383Y005277D01*
X012017Y005947D02*
X011080Y005947D01*
X011080Y005760D01*
X012830Y006072D02*
X012892Y005947D01*
X006235Y004960D02*
X006025Y004960D01*
X006025Y004801D02*
X006121Y004801D01*
X006121Y004643D02*
X006064Y004643D01*
X006057Y004484D02*
X006121Y004484D01*
X006121Y004326D02*
X005966Y004326D01*
X006121Y004167D02*
X003417Y004167D01*
X003345Y004326D02*
X005444Y004326D01*
X005353Y004484D02*
X003345Y004484D01*
X003287Y004643D02*
X005346Y004643D01*
X005385Y004801D02*
X001392Y004801D01*
X001392Y004643D02*
X002373Y004643D01*
X002315Y004484D02*
X001392Y004484D01*
X001392Y004326D02*
X002315Y004326D01*
X002243Y004167D02*
X001392Y004167D01*
X001392Y004009D02*
X001982Y004009D01*
X001824Y003850D02*
X001392Y003850D01*
X001392Y003692D02*
X001701Y003692D01*
X001609Y003533D02*
X001392Y003533D01*
X001392Y003375D02*
X001547Y003375D01*
X001504Y003216D02*
X001392Y003216D01*
X001392Y003058D02*
X001480Y003058D01*
X001480Y002899D02*
X001392Y002899D01*
X001392Y002741D02*
X001488Y002741D01*
X001530Y002582D02*
X001392Y002582D01*
X001392Y002424D02*
X001573Y002424D01*
X001665Y002265D02*
X001392Y002265D01*
X001392Y002107D02*
X001761Y002107D01*
X001920Y001948D02*
X001392Y001948D01*
X001392Y001790D02*
X002135Y001790D01*
X003678Y004009D02*
X006161Y004009D01*
X005385Y004960D02*
X001392Y004960D01*
X001392Y005118D02*
X002812Y005118D01*
X003098Y005118D02*
X004702Y005118D01*
X004697Y005277D02*
X003273Y005277D01*
X003314Y005435D02*
X004697Y005435D01*
X004697Y005594D02*
X003283Y005594D01*
X003156Y005752D02*
X004697Y005752D01*
X004697Y005911D02*
X002819Y005911D01*
X002661Y006069D02*
X005720Y006069D01*
X006017Y005572D02*
X005944Y005521D01*
X005192Y007179D02*
X002525Y007179D01*
X002525Y007337D02*
X005257Y007337D01*
X003555Y007020D02*
X002525Y007020D01*
X002525Y006862D02*
X003362Y006862D01*
X003293Y006703D02*
X002525Y006703D01*
X002525Y006545D02*
X003280Y006545D01*
X003316Y006386D02*
X002525Y006386D01*
X002525Y006228D02*
X003417Y006228D01*
X002548Y005277D02*
X001392Y005277D01*
X001392Y005435D02*
X002389Y005435D01*
X002231Y005594D02*
X001392Y005594D01*
X001392Y005752D02*
X002072Y005752D01*
X001926Y005911D02*
X001392Y005911D01*
X001392Y006069D02*
X001885Y006069D01*
X001885Y006228D02*
X001392Y006228D01*
X001392Y006386D02*
X001885Y006386D01*
X001885Y006545D02*
X001392Y006545D01*
X001392Y006703D02*
X001885Y006703D01*
X001885Y006862D02*
X001392Y006862D01*
X001392Y007020D02*
X001885Y007020D01*
X001885Y007179D02*
X001392Y007179D01*
X001392Y007337D02*
X001885Y007337D01*
X001885Y007496D02*
X001392Y007496D01*
X001392Y007654D02*
X001885Y007654D01*
X001885Y007813D02*
X001392Y007813D01*
X001392Y007971D02*
X001885Y007971D01*
X001885Y008130D02*
X001392Y008130D01*
X001392Y008288D02*
X001885Y008288D01*
X001885Y008447D02*
X001392Y008447D01*
X001392Y008605D02*
X001885Y008605D01*
X001885Y008764D02*
X001392Y008764D01*
X001392Y008922D02*
X001885Y008922D01*
X001885Y009081D02*
X001392Y009081D01*
X001392Y009239D02*
X001885Y009239D01*
X001885Y009398D02*
X001392Y009398D01*
X001392Y009556D02*
X001885Y009556D01*
X001885Y009715D02*
X001392Y009715D01*
X001392Y009873D02*
X001885Y009873D01*
X001885Y010032D02*
X001392Y010032D01*
X001392Y010190D02*
X001885Y010190D01*
X001885Y010349D02*
X001392Y010349D01*
X001392Y010507D02*
X001885Y010507D01*
X001885Y010666D02*
X001392Y010666D01*
X001392Y010824D02*
X001885Y010824D01*
X001885Y010983D02*
X001392Y010983D01*
X001392Y011141D02*
X001885Y011141D01*
X001885Y011300D02*
X001392Y011300D01*
X001392Y011458D02*
X001885Y011458D01*
X001885Y011617D02*
X001392Y011617D01*
X001392Y011775D02*
X001885Y011775D01*
X001885Y011934D02*
X001392Y011934D01*
X001392Y012092D02*
X001885Y012092D01*
X001885Y012251D02*
X001392Y012251D01*
X001392Y012409D02*
X001885Y012409D01*
X001885Y012568D02*
X001392Y012568D01*
X001392Y012726D02*
X001885Y012726D01*
X001885Y012885D02*
X001392Y012885D01*
X001392Y013043D02*
X001885Y013043D01*
X001885Y013202D02*
X001392Y013202D01*
X001392Y013360D02*
X001885Y013360D01*
X001885Y013519D02*
X001392Y013519D01*
X001392Y013677D02*
X001885Y013677D01*
X001885Y013836D02*
X001392Y013836D01*
X001392Y013994D02*
X001885Y013994D01*
X001885Y014153D02*
X001392Y014153D01*
X001392Y014311D02*
X001885Y014311D01*
X001885Y014470D02*
X001392Y014470D01*
X001392Y014628D02*
X001885Y014628D01*
X001885Y014787D02*
X001392Y014787D01*
X001392Y014945D02*
X001885Y014945D01*
X001885Y015104D02*
X001392Y015104D01*
X001392Y015262D02*
X001885Y015262D01*
X001885Y015421D02*
X001392Y015421D01*
X001392Y015579D02*
X001885Y015579D01*
X001885Y015738D02*
X001392Y015738D01*
X001392Y015896D02*
X001885Y015896D01*
X001885Y016055D02*
X001392Y016055D01*
X001392Y016213D02*
X001885Y016213D01*
X001885Y016372D02*
X001392Y016372D01*
X001392Y016530D02*
X001893Y016530D01*
X001994Y016689D02*
X001392Y016689D01*
X001392Y016847D02*
X002152Y016847D01*
X002311Y017006D02*
X001392Y017006D01*
X001392Y017164D02*
X002469Y017164D01*
X002628Y017323D02*
X001392Y017323D01*
X001392Y017481D02*
X002786Y017481D01*
X002945Y017640D02*
X001392Y017640D01*
X001392Y017798D02*
X003032Y017798D01*
X003145Y017957D02*
X001392Y017957D01*
X001392Y018115D02*
X003407Y018115D01*
X003318Y017006D02*
X003216Y017006D01*
X003043Y011775D02*
X002525Y011775D01*
X002525Y011617D02*
X002885Y011617D01*
X002880Y011458D02*
X002525Y011458D01*
X002525Y011300D02*
X002880Y011300D01*
X002880Y011141D02*
X002525Y011141D01*
X002525Y010983D02*
X002930Y010983D01*
X003088Y010824D02*
X002525Y010824D01*
X002525Y010666D02*
X003247Y010666D01*
D35*
X007830Y011072D03*
X009080Y010572D03*
X009080Y009447D03*
X010830Y009447D03*
X011143Y009447D03*
X012018Y009010D03*
X012018Y008697D03*
X012018Y008385D03*
X012018Y008072D03*
X012018Y007760D03*
X012018Y007447D03*
X011330Y007322D03*
X010830Y007322D03*
X012268Y006572D03*
X012830Y006072D03*
X013830Y006572D03*
X014205Y006322D03*
X013643Y007447D03*
X013643Y007760D03*
X013643Y008072D03*
X013643Y008385D03*
X013643Y008697D03*
X013643Y009010D03*
X012830Y011072D03*
X011768Y010947D03*
X011455Y010947D03*
X011580Y011697D03*
X013705Y012197D03*
X013455Y012822D03*
X013455Y013197D03*
X012330Y014947D03*
X012330Y015322D03*
X013080Y016072D03*
X012080Y016447D03*
X011080Y017322D03*
X011830Y017572D03*
X012080Y017822D03*
X012330Y017572D03*
X012580Y017822D03*
X012830Y017572D03*
X013080Y017822D03*
X010955Y019322D03*
X010330Y018947D03*
X010080Y018697D03*
X010080Y019197D03*
X009830Y019697D03*
X008580Y019322D03*
X008330Y019072D03*
X008080Y019322D03*
X007830Y019072D03*
X007580Y019322D03*
X007330Y019072D03*
X006455Y018697D03*
X006080Y017697D03*
X006705Y016322D03*
X009455Y012947D03*
X008955Y007447D03*
X006705Y004697D03*
X005705Y004572D03*
X002955Y005447D03*
X012705Y005010D03*
X013080Y004760D03*
X016955Y002197D03*
X017330Y001947D03*
X017705Y001822D03*
X018080Y001822D03*
X018330Y004072D03*
X018705Y004072D03*
X017955Y004197D03*
X022205Y001822D03*
X022580Y001822D03*
X022955Y001822D03*
X023330Y001822D03*
X023830Y002572D03*
X023830Y003572D03*
X022955Y004197D03*
X022955Y004697D03*
X024580Y004322D03*
X024955Y004322D03*
X025330Y003072D03*
X026330Y003072D03*
X027955Y001947D03*
X028205Y001697D03*
X027955Y001447D03*
X028455Y001447D03*
X028705Y001697D03*
X028955Y001447D03*
X029205Y001697D03*
X029455Y001447D03*
X029705Y001697D03*
X029955Y001447D03*
X029955Y001947D03*
X029705Y002197D03*
X029455Y001947D03*
X029205Y002197D03*
X028955Y001947D03*
X028705Y002197D03*
X028455Y001947D03*
X028205Y002197D03*
X028455Y002447D03*
X028705Y002697D03*
X028955Y002447D03*
X029205Y002697D03*
X029455Y002447D03*
X029705Y002697D03*
X029955Y002447D03*
X029955Y002947D03*
X029705Y003197D03*
X029455Y002947D03*
X029205Y003197D03*
X028955Y002947D03*
X028580Y004197D03*
X029080Y004822D03*
X027080Y005322D03*
X026705Y005322D03*
X027330Y005947D03*
X026705Y006072D03*
X022580Y006572D03*
X022580Y006947D03*
X021080Y008697D03*
X021080Y009072D03*
X022580Y010822D03*
X022580Y011197D03*
X021080Y012947D03*
X021080Y013322D03*
X019705Y013447D03*
X019705Y015197D03*
X022580Y015322D03*
X022580Y015697D03*
X021080Y017447D03*
X021080Y017822D03*
X022580Y019572D03*
X022580Y019947D03*
X021080Y021697D03*
X021080Y022072D03*
X021955Y023197D03*
X021705Y023447D03*
X021455Y023697D03*
X022330Y023322D03*
X027955Y024572D03*
X028205Y024322D03*
X028455Y024572D03*
X028705Y024322D03*
X028955Y024572D03*
X029205Y024322D03*
X029455Y024572D03*
X029705Y024322D03*
X029955Y024572D03*
X030205Y024322D03*
X030455Y024572D03*
X030705Y024322D03*
X030705Y024822D03*
X030455Y025072D03*
X030205Y024822D03*
X029955Y025072D03*
X029705Y024822D03*
X029455Y025072D03*
X029205Y024822D03*
X028955Y025072D03*
X028705Y024822D03*
X028455Y025072D03*
X028205Y024822D03*
X027955Y025072D03*
X028205Y025322D03*
X027955Y025572D03*
X028205Y025822D03*
X028455Y025572D03*
X028705Y025322D03*
X028955Y025572D03*
X029205Y025322D03*
X029455Y025572D03*
X029705Y025322D03*
X029955Y025572D03*
X030205Y025322D03*
X030455Y025572D03*
X030705Y025322D03*
X030705Y025822D03*
X030455Y026072D03*
X030205Y025822D03*
X029955Y026072D03*
X029705Y025822D03*
X029455Y026072D03*
X029205Y025822D03*
X028955Y026072D03*
X028705Y025822D03*
X028455Y026072D03*
X028205Y026322D03*
X027955Y026072D03*
X028705Y026322D03*
X029205Y026322D03*
X029705Y026322D03*
X030205Y026322D03*
X030705Y026322D03*
X031955Y026322D03*
X031955Y025947D03*
X031955Y025572D03*
X032330Y025572D03*
X032705Y025572D03*
X033080Y025572D03*
X033455Y025572D03*
X033455Y025947D03*
X033080Y025947D03*
X032705Y025947D03*
X032330Y025947D03*
X032330Y026322D03*
X032705Y026322D03*
X033080Y026322D03*
X033455Y026322D03*
X034705Y026322D03*
X034955Y026072D03*
X034705Y025822D03*
X034955Y025572D03*
X034705Y025322D03*
X034955Y025072D03*
X034705Y024822D03*
X034955Y024572D03*
X034705Y024322D03*
X035205Y024322D03*
X035455Y024572D03*
X035705Y024322D03*
X035955Y024572D03*
X035705Y024822D03*
X035455Y025072D03*
X035205Y024822D03*
X035205Y025322D03*
X035455Y025572D03*
X035705Y025322D03*
X035955Y025072D03*
X035955Y025572D03*
X035705Y025822D03*
X035455Y026072D03*
X035205Y025822D03*
X035205Y026322D03*
X035705Y026322D03*
X035955Y026072D03*
X033455Y025197D03*
X033080Y025197D03*
X032705Y025197D03*
X032330Y025197D03*
X031955Y025197D03*
X032893Y020322D03*
X033893Y020322D03*
X031705Y018072D03*
X031705Y017697D03*
X031705Y017072D03*
X031455Y016822D03*
X031205Y016572D03*
X031705Y016572D03*
X032205Y016572D03*
X032455Y016822D03*
X032705Y016572D03*
X032705Y017072D03*
X032205Y017072D03*
X031205Y017072D03*
X032705Y015947D03*
X032705Y015572D03*
X033393Y016010D03*
X031455Y015072D03*
X030705Y014947D03*
X030705Y014572D03*
X030705Y015322D03*
X028705Y015322D03*
X027705Y015322D03*
X027705Y014697D03*
X027705Y014322D03*
X027705Y013947D03*
X027705Y013322D03*
X028705Y013322D03*
X032455Y013947D03*
X033830Y012697D03*
X036580Y013197D03*
X036580Y014697D03*
X035955Y003447D03*
X035705Y003197D03*
X035455Y002947D03*
X035705Y002697D03*
X035455Y002447D03*
X035705Y002197D03*
X035455Y001947D03*
X035705Y001697D03*
X035455Y001447D03*
X035955Y001447D03*
X035955Y001947D03*
X035955Y002447D03*
X035955Y002947D03*
X035455Y003447D03*
X034580Y003447D03*
X034330Y003197D03*
X034080Y002947D03*
X034330Y002697D03*
X034080Y002447D03*
X033455Y002697D03*
X033080Y002697D03*
X032705Y002697D03*
X032330Y002697D03*
X031955Y002697D03*
X031330Y002447D03*
X031080Y002697D03*
X030830Y002447D03*
X030830Y002947D03*
X031080Y003197D03*
X031330Y002947D03*
X031955Y003072D03*
X032330Y003072D03*
X032705Y003072D03*
X033080Y003072D03*
X033455Y003072D03*
X033455Y003447D03*
X033080Y003447D03*
X032705Y003447D03*
X032330Y003447D03*
X031955Y003447D03*
X031330Y003447D03*
X030830Y003447D03*
X034080Y003447D03*
X034580Y002947D03*
X034580Y002447D03*
X012205Y020572D03*
X011955Y020447D03*
X012080Y021447D03*
X011830Y021697D03*
X011580Y021447D03*
X011330Y021697D03*
X011080Y021447D03*
X010455Y021322D03*
X009705Y021322D03*
X009705Y021697D03*
X009705Y022072D03*
X010455Y022447D03*
X011080Y021947D03*
X011580Y021947D03*
X012080Y021947D03*
X012330Y021697D03*
X012580Y021447D03*
X012830Y021697D03*
X012580Y021947D03*
X013580Y021697D03*
X013830Y021447D03*
X014080Y021697D03*
X013830Y021947D03*
X011955Y023135D03*
X011768Y022947D03*
X011580Y023135D03*
X008705Y021947D03*
X008455Y021697D03*
X008205Y021447D03*
X007955Y021697D03*
X007705Y021447D03*
X007455Y021697D03*
X007205Y021447D03*
X006955Y021697D03*
X007205Y021947D03*
X007705Y021947D03*
X008205Y021947D03*
X008705Y021447D03*
X008330Y020447D03*
X008080Y020322D03*
X008580Y020322D03*
X006830Y020072D03*
X006705Y020697D03*
X006955Y022697D03*
X006955Y024197D03*
X007330Y024197D03*
X007330Y024572D03*
X006955Y024572D03*
D36*
X004155Y024947D02*
X002830Y024947D01*
X003985Y017572D02*
X003955Y017542D01*
X003985Y017572D02*
X004830Y017572D01*
X004830Y017620D01*
X004753Y013602D02*
X003955Y013602D01*
X004753Y013602D02*
X004830Y013525D01*
X011330Y010913D02*
X011768Y010947D01*
X012080Y010913D02*
X012080Y010663D01*
X012080Y010510D01*
X012080Y010663D02*
X011330Y010913D01*
X012080Y010913D01*
X013080Y012135D02*
X013642Y012135D01*
X013705Y012197D01*
X012080Y016447D02*
X012080Y016607D01*
X012080Y016697D01*
X012580Y016697D01*
X012955Y016760D01*
X014661Y019822D02*
X015080Y019822D01*
X014661Y019822D02*
X014330Y020153D01*
X002830Y004272D02*
X002830Y002947D01*
X037330Y004197D02*
X038080Y003447D01*
X038080Y002947D01*
X037330Y004197D02*
X037330Y004272D01*
X037330Y023622D02*
X037330Y023697D01*
X038080Y024447D01*
X038080Y024947D01*
D37*
X013080Y012135D02*
X013080Y012135D01*
X013018Y012135D01*
X012830Y011947D01*
X012830Y011385D01*
X012705Y011385D01*
X012518Y011197D01*
X012518Y010947D01*
X012705Y010760D01*
X012955Y010760D01*
X013143Y010947D01*
X013143Y011197D01*
X012955Y011385D01*
X012830Y011385D01*
D38*
X012268Y006572D02*
X012393Y006447D01*
X012455Y006447D01*
X012455Y005572D01*
X012580Y005447D01*
X013143Y005447D01*
X013268Y005572D01*
X013268Y006322D01*
X013143Y006447D01*
X012455Y006447D01*
X011296Y018947D02*
X011296Y019232D01*
X010955Y019322D01*
X011955Y020447D02*
X012205Y020572D01*
X010455Y021322D02*
X010455Y021385D01*
X011455Y023072D02*
X011580Y023135D01*
X011830Y023072D02*
X011768Y022947D01*
X011955Y023135D02*
X011989Y023197D01*
X012205Y023038D01*
M02*
