%
M48
M72
T01C0.0157
T02C0.0320
T03C0.0400
T04C0.0433
T05C0.0512
T06C0.0520
T07C0.1260
%
T01
X5705Y4572
X6705Y4697
X8955Y7447
X10830Y7322
X11330Y7322
X12018Y7447
X12018Y7760
X12018Y8072
X12018Y8385
X12018Y8697
X12018Y9010
X11143Y9447
X10830Y9447
X11455Y10947
X11768Y10947
X11580Y11697
X12830Y11072
X13705Y12197
X13455Y12822
X13455Y13197
X12330Y14947
X12330Y15322
X13080Y16072
X12080Y16447
X11080Y17322
X11830Y17572
X12080Y17822
X12330Y17572
X12580Y17822
X12830Y17572
X13080Y17822
X10955Y19322
X10330Y18947
X10080Y18697
X10080Y19197
X9830Y19697
X8580Y19322
X8330Y19072
X8080Y19322
X7830Y19072
X7580Y19322
X7330Y19072
X6455Y18697
X6080Y17697
X6705Y16322
X9455Y12947
X7830Y11072
X9080Y10572
X9080Y9447
X12268Y6572
X12830Y6072
X13830Y6572
X14205Y6322
X13643Y7447
X13643Y7760
X13643Y8072
X13643Y8385
X13643Y8697
X13643Y9010
X12705Y5010
X13080Y4760
X16955Y2197
X17330Y1947
X17705Y1822
X18080Y1822
X18330Y4072
X18705Y4072
X17955Y4197
X22205Y1822
X22580Y1822
X22955Y1822
X23330Y1822
X23830Y2572
X23830Y3572
X22955Y4197
X22955Y4697
X24580Y4322
X24955Y4322
X25330Y3072
X26330Y3072
X27955Y1947
X28205Y1697
X27955Y1447
X28455Y1447
X28705Y1697
X28955Y1447
X29205Y1697
X29455Y1447
X29705Y1697
X29955Y1447
X29955Y1947
X29705Y2197
X29455Y1947
X29205Y2197
X28955Y1947
X28705Y2197
X28455Y1947
X28205Y2197
X28455Y2447
X28705Y2697
X28955Y2447
X29205Y2697
X29455Y2447
X29705Y2697
X29955Y2447
X29955Y2947
X29705Y3197
X29455Y2947
X29205Y3197
X28955Y2947
X28580Y4197
X29080Y4822
X27080Y5322
X26705Y5322
X27330Y5947
X26705Y6072
X22580Y6572
X22580Y6947
X21080Y8697
X21080Y9072
X22580Y10822
X22580Y11197
X21080Y12947
X21080Y13322
X19705Y13447
X19705Y15197
X22580Y15322
X22580Y15697
X21080Y17447
X21080Y17822
X22580Y19572
X22580Y19947
X21080Y21697
X21080Y22072
X21955Y23197
X21705Y23447
X21455Y23697
X22330Y23322
X27955Y24572
X28205Y24322
X28455Y24572
X28705Y24322
X28955Y24572
X29205Y24322
X29455Y24572
X29705Y24322
X29955Y24572
X30205Y24322
X30455Y24572
X30705Y24322
X30705Y24822
X30455Y25072
X30205Y24822
X29955Y25072
X29705Y24822
X29455Y25072
X29205Y24822
X28955Y25072
X28705Y24822
X28455Y25072
X28205Y24822
X27955Y25072
X28205Y25322
X27955Y25572
X28205Y25822
X28455Y25572
X28705Y25322
X28955Y25572
X29205Y25322
X29455Y25572
X29705Y25322
X29955Y25572
X30205Y25322
X30455Y25572
X30705Y25322
X30705Y25822
X30455Y26072
X30205Y25822
X29955Y26072
X29705Y25822
X29455Y26072
X29205Y25822
X28955Y26072
X28705Y25822
X28455Y26072
X28205Y26322
X27955Y26072
X28705Y26322
X29205Y26322
X29705Y26322
X30205Y26322
X30705Y26322
X31955Y26322
X31955Y25947
X31955Y25572
X32330Y25572
X32705Y25572
X33080Y25572
X33455Y25572
X33455Y25947
X33080Y25947
X32705Y25947
X32330Y25947
X32330Y26322
X32705Y26322
X33080Y26322
X33455Y26322
X34705Y26322
X34955Y26072
X34705Y25822
X34955Y25572
X34705Y25322
X34955Y25072
X34705Y24822
X34955Y24572
X34705Y24322
X35205Y24322
X35455Y24572
X35705Y24322
X35955Y24572
X35705Y24822
X35455Y25072
X35205Y24822
X35205Y25322
X35455Y25572
X35705Y25322
X35955Y25072
X35955Y25572
X35705Y25822
X35455Y26072
X35205Y25822
X35205Y26322
X35705Y26322
X35955Y26072
X33455Y25197
X33080Y25197
X32705Y25197
X32330Y25197
X31955Y25197
X32893Y20322
X33893Y20322
X31705Y18072
X31705Y17697
X31705Y17072
X31455Y16822
X31205Y16572
X31705Y16572
X32205Y16572
X32455Y16822
X32705Y16572
X32705Y17072
X32205Y17072
X31205Y17072
X32705Y15947
X32705Y15572
X33393Y16010
X31455Y15072
X30705Y14947
X30705Y14572
X30705Y15322
X28705Y15322
X27705Y15322
X27705Y14697
X27705Y14322
X27705Y13947
X27705Y13322
X28705Y13322
X32455Y13947
X33830Y12697
X36580Y13197
X36580Y14697
X35955Y3447
X35705Y3197
X35455Y2947
X35705Y2697
X35455Y2447
X35705Y2197
X35455Y1947
X35705Y1697
X35455Y1447
X35955Y1447
X35955Y1947
X35955Y2447
X35955Y2947
X35455Y3447
X34580Y3447
X34330Y3197
X34080Y2947
X34330Y2697
X34080Y2447
X33455Y2697
X33080Y2697
X32705Y2697
X32330Y2697
X31955Y2697
X31330Y2447
X31080Y2697
X30830Y2447
X30830Y2947
X31080Y3197
X31330Y2947
X31955Y3072
X32330Y3072
X32705Y3072
X33080Y3072
X33455Y3072
X33455Y3447
X33080Y3447
X32705Y3447
X32330Y3447
X31955Y3447
X31330Y3447
X30830Y3447
X34080Y3447
X34580Y2947
X34580Y2447
X12205Y20572
X11955Y20447
X12080Y21447
X11830Y21697
X11580Y21447
X11330Y21697
X11080Y21447
X10455Y21322
X9705Y21322
X9705Y21697
X9705Y22072
X10455Y22447
X11080Y21947
X11580Y21947
X12080Y21947
X12330Y21697
X12580Y21447
X12830Y21697
X12580Y21947
X13580Y21697
X13830Y21447
X14080Y21697
X13830Y21947
X11955Y23135
X11768Y22947
X11580Y23135
X8705Y21947
X8455Y21697
X8205Y21447
X7955Y21697
X7705Y21447
X7455Y21697
X7205Y21447
X6955Y21697
X7205Y21947
X7705Y21947
X8205Y21947
X8705Y21447
X8330Y20447
X8080Y20322
X8580Y20322
X6830Y20072
X6705Y20697
X6955Y22697
X6955Y24197
X7330Y24197
X7330Y24572
X6955Y24572
X2955Y5447
T02
X5705Y7072
X6705Y7072
X9205Y5572
X10205Y5572
X10330Y8822
X11330Y8822
X10330Y9822
X10330Y10822
X10330Y11822
X10330Y12822
X10330Y13822
X9330Y14322
X8330Y14322
X10330Y14822
X10330Y15822
X9330Y15822
X9330Y16822
X10330Y16822
X14580Y15822
X15580Y15822
X15580Y14822
X14580Y14822
X14580Y13822
X15580Y13822
X15580Y12822
X14580Y12822
X14580Y11822
X15580Y11822
X15580Y10322
X14580Y10322
X14580Y9322
X16580Y10322
X17955Y11322
X17955Y12322
X18080Y13822
X17080Y13822
X17080Y14822
X18080Y14822
X17955Y16322
X17955Y17322
X18455Y19322
X18455Y20322
X18830Y23322
X19830Y23322
X19830Y24322
X18830Y24322
X21330Y24322
X22330Y24322
X23830Y22322
X24830Y22322
X25830Y22322
X25830Y21322
X25830Y20322
X25830Y19322
X24830Y19322
X23830Y19322
X23830Y20322
X24830Y20322
X24830Y21322
X23830Y21322
X23830Y18072
X24830Y18072
X25830Y18072
X25830Y17072
X25830Y16072
X25830Y15072
X24830Y15072
X23830Y15072
X23830Y16072
X24830Y16072
X24830Y17072
X23830Y17072
X23830Y13572
X24830Y13572
X25830Y13572
X25830Y12572
X25830Y11572
X25830Y10572
X24830Y10572
X23830Y10572
X23830Y11572
X24830Y11572
X24830Y12572
X23830Y12572
X23830Y9322
X24830Y9322
X25830Y9322
X25830Y8322
X25830Y7322
X25830Y6322
X24830Y6322
X23830Y6322
X23830Y7322
X24830Y7322
X24830Y8322
X23830Y8322
X28455Y5447
X29455Y5447
X30455Y5447
X31455Y5447
X33330Y5572
X33330Y6572
X33330Y7572
X33330Y8572
X35080Y10572
X36080Y10572
X37080Y10572
X38080Y10572
X38080Y16885
X37080Y16885
X37080Y17885
X38080Y17885
X36080Y17385
X35080Y17385
X29455Y16822
X28455Y16822
X28455Y11822
X29455Y11822
X22330Y4322
X21330Y4322
X18455Y7822
X18455Y8822
T03
X19330Y4822
X17330Y4822
X28955Y7322
X28955Y9322
X28955Y19322
X28955Y21322
X15080Y21822
X15080Y19822
X12080Y24572
X10080Y24572
X8080Y24572
X4580Y20822
X2580Y20822
X3580Y11322
X3580Y9322
X4080Y7572
X4080Y6572
T04
X36580Y7072
X36580Y13947
X36580Y20822
T05
X34580Y22822
X38580Y22822
X38580Y18822
X38580Y15947
X34580Y15947
X34580Y18822
X34580Y11947
X34580Y9072
X38580Y9072
X38580Y11947
X38580Y5072
X34580Y5072
T06
X3955Y13602
X3955Y15572
X3955Y17542
T07
X2830Y2947
X2830Y24947
X38080Y24947
X38080Y2947
M30
