G75*
%MOIN*%
%OFA0B0*%
%FSLAX24Y24*%
%IPPOS*%
%LPD*%
%AMOC8*
5,1,8,0,0,1.08239X$1,22.5*
%
%ADD10C,0.0160*%
%ADD11OC8,0.0600*%
%ADD12R,0.0710X0.1143*%
%ADD13R,0.0671X0.1222*%
%ADD14OC8,0.0710*%
%ADD15C,0.0710*%
%ADD16R,0.1222X0.0671*%
%ADD17R,0.0710X0.0474*%
%ADD18C,0.1080*%
%ADD19OC8,0.1080*%
%ADD20R,0.0434X0.0631*%
%ADD21R,0.0631X0.0434*%
%ADD22R,0.0474X0.0710*%
%ADD23R,0.0789X0.0631*%
%ADD24C,0.0860*%
%ADD25C,0.0840*%
%ADD26C,0.0940*%
%ADD27C,0.2380*%
%ADD28OC8,0.0780*%
%ADD29R,0.1025X0.0789*%
%ADD30R,0.0540X0.0710*%
%ADD31R,0.0060X0.0720*%
%ADD32R,0.0710X0.0540*%
%ADD33R,0.0720X0.0060*%
%ADD34R,0.0946X0.0710*%
%ADD35C,0.0680*%
%ADD36C,0.0397*%
D10*
X027705Y001197D02*
X027705Y002072D01*
X029080Y003447D01*
X029705Y003447D01*
X029705Y003697D01*
X030080Y003697D01*
X030080Y001197D01*
X027705Y001197D01*
X027705Y001314D02*
X030080Y001314D01*
X030080Y001473D02*
X027705Y001473D01*
X027705Y001631D02*
X030080Y001631D01*
X030080Y001790D02*
X027705Y001790D01*
X027705Y001948D02*
X030080Y001948D01*
X030080Y002107D02*
X027740Y002107D01*
X027898Y002265D02*
X030080Y002265D01*
X030080Y002424D02*
X028057Y002424D01*
X028215Y002582D02*
X030080Y002582D01*
X030080Y002741D02*
X028374Y002741D01*
X028532Y002899D02*
X030080Y002899D01*
X030080Y003058D02*
X028691Y003058D01*
X028849Y003216D02*
X030080Y003216D01*
X030080Y003375D02*
X029008Y003375D01*
X029705Y003533D02*
X030080Y003533D01*
X030080Y003692D02*
X029705Y003692D01*
X030705Y003692D02*
X031455Y003692D01*
X031455Y003697D02*
X030705Y003697D01*
X030705Y001947D01*
X033830Y001947D01*
X033830Y002072D01*
X031455Y002072D01*
X031455Y003697D01*
X031455Y003533D02*
X030705Y003533D01*
X030705Y003375D02*
X031455Y003375D01*
X031455Y003216D02*
X030705Y003216D01*
X030705Y003058D02*
X031455Y003058D01*
X031455Y002899D02*
X030705Y002899D01*
X030705Y002741D02*
X031455Y002741D01*
X031455Y002582D02*
X030705Y002582D01*
X030705Y002424D02*
X031455Y002424D01*
X031455Y002265D02*
X030705Y002265D01*
X030705Y002107D02*
X031455Y002107D01*
X031830Y002447D02*
X033580Y002447D01*
X033580Y003697D01*
X031830Y003697D01*
X031830Y002447D01*
X031830Y002582D02*
X033580Y002582D01*
X033580Y002741D02*
X031830Y002741D01*
X031830Y002899D02*
X033580Y002899D01*
X033580Y003058D02*
X031830Y003058D01*
X031830Y003216D02*
X033580Y003216D01*
X033580Y003375D02*
X031830Y003375D01*
X031830Y003533D02*
X033580Y003533D01*
X033580Y003692D02*
X031830Y003692D01*
X033955Y003692D02*
X034705Y003692D01*
X034705Y003697D02*
X034705Y001947D01*
X033955Y001947D01*
X033955Y003697D01*
X034705Y003697D01*
X034705Y003533D02*
X033955Y003533D01*
X033955Y003375D02*
X034705Y003375D01*
X034705Y003216D02*
X033955Y003216D01*
X033955Y003058D02*
X034705Y003058D01*
X034705Y002899D02*
X033955Y002899D01*
X033955Y002741D02*
X034705Y002741D01*
X034705Y002582D02*
X033955Y002582D01*
X033955Y002424D02*
X034705Y002424D01*
X034705Y002265D02*
X033955Y002265D01*
X033955Y002107D02*
X034705Y002107D01*
X034705Y001948D02*
X033955Y001948D01*
X033830Y001948D02*
X030705Y001948D01*
X035330Y001948D02*
X036080Y001948D01*
X036080Y001790D02*
X035330Y001790D01*
X035330Y001631D02*
X036080Y001631D01*
X036080Y001473D02*
X035330Y001473D01*
X035330Y001314D02*
X036080Y001314D01*
X036080Y001197D02*
X035330Y001197D01*
X035330Y003697D01*
X036080Y003697D01*
X036080Y001197D01*
X036080Y002107D02*
X035330Y002107D01*
X035330Y002265D02*
X036080Y002265D01*
X036080Y002424D02*
X035330Y002424D01*
X035330Y002582D02*
X036080Y002582D01*
X036080Y002741D02*
X035330Y002741D01*
X035330Y002899D02*
X036080Y002899D01*
X036080Y003058D02*
X035330Y003058D01*
X035330Y003216D02*
X036080Y003216D01*
X036080Y003375D02*
X035330Y003375D01*
X035330Y003533D02*
X036080Y003533D01*
X036080Y003692D02*
X035330Y003692D01*
X034455Y024072D02*
X034455Y026572D01*
X036205Y026572D01*
X036205Y024072D01*
X034455Y024072D01*
X034455Y024138D02*
X036205Y024138D01*
X036205Y024297D02*
X034455Y024297D01*
X034455Y024455D02*
X036205Y024455D01*
X036205Y024614D02*
X034455Y024614D01*
X034455Y024772D02*
X036205Y024772D01*
X036205Y024931D02*
X034455Y024931D01*
X034455Y025089D02*
X036205Y025089D01*
X036205Y025248D02*
X034455Y025248D01*
X034455Y025406D02*
X036205Y025406D01*
X036205Y025565D02*
X034455Y025565D01*
X034455Y025723D02*
X036205Y025723D01*
X036205Y025882D02*
X034455Y025882D01*
X034455Y026040D02*
X036205Y026040D01*
X036205Y026199D02*
X034455Y026199D01*
X034455Y026357D02*
X036205Y026357D01*
X036205Y026516D02*
X034455Y026516D01*
X033580Y026447D02*
X031830Y026447D01*
X031830Y024947D01*
X033580Y024947D01*
X033580Y026447D01*
X033580Y026357D02*
X031830Y026357D01*
X031830Y026199D02*
X033580Y026199D01*
X033580Y026040D02*
X031830Y026040D01*
X031830Y025882D02*
X033580Y025882D01*
X033580Y025723D02*
X031830Y025723D01*
X031830Y025565D02*
X033580Y025565D01*
X033580Y025406D02*
X031830Y025406D01*
X031830Y025248D02*
X033580Y025248D01*
X033580Y025089D02*
X031830Y025089D01*
X030955Y025089D02*
X027705Y025089D01*
X027705Y024931D02*
X030955Y024931D01*
X030955Y024772D02*
X027705Y024772D01*
X027705Y024614D02*
X030955Y024614D01*
X030955Y024455D02*
X027705Y024455D01*
X027705Y024297D02*
X030955Y024297D01*
X030955Y024138D02*
X027705Y024138D01*
X027705Y024072D02*
X030955Y024072D01*
X030955Y026572D01*
X027705Y026572D01*
X027705Y024072D01*
X027705Y025248D02*
X030955Y025248D01*
X030955Y025406D02*
X027705Y025406D01*
X027705Y025565D02*
X030955Y025565D01*
X030955Y025723D02*
X027705Y025723D01*
X027705Y025882D02*
X030955Y025882D01*
X030955Y026040D02*
X027705Y026040D01*
X027705Y026199D02*
X030955Y026199D01*
X030955Y026357D02*
X027705Y026357D01*
X027705Y026516D02*
X030955Y026516D01*
D11*
X025830Y022322D03*
X024830Y022322D03*
X023830Y022322D03*
X023830Y021322D03*
X024830Y021322D03*
X024830Y020322D03*
X023830Y020322D03*
X023830Y019322D03*
X024830Y019322D03*
X025830Y019322D03*
X025830Y020322D03*
X025830Y021322D03*
X025830Y018072D03*
X024830Y018072D03*
X023830Y018072D03*
X023830Y017072D03*
X024830Y017072D03*
X024830Y016072D03*
X023830Y016072D03*
X023830Y015072D03*
X024830Y015072D03*
X025830Y015072D03*
X025830Y016072D03*
X025830Y017072D03*
X025830Y013572D03*
X024830Y013572D03*
X023830Y013572D03*
X023830Y012572D03*
X024830Y012572D03*
X024830Y011572D03*
X023830Y011572D03*
X023830Y010572D03*
X024830Y010572D03*
X025830Y010572D03*
X025830Y011572D03*
X025830Y012572D03*
X025830Y009322D03*
X024830Y009322D03*
X023830Y009322D03*
X023830Y008322D03*
X024830Y008322D03*
X024830Y007322D03*
X023830Y007322D03*
X023830Y006322D03*
X024830Y006322D03*
X025830Y006322D03*
X025830Y007322D03*
X025830Y008322D03*
X028455Y005447D03*
X029455Y005447D03*
X030455Y005447D03*
X031455Y005447D03*
X033330Y005572D03*
X033330Y006572D03*
X033330Y007572D03*
X033330Y008572D03*
X035080Y010572D03*
X036080Y010572D03*
X037080Y010572D03*
X038080Y010572D03*
X038080Y016885D03*
X037080Y016885D03*
X037080Y017885D03*
X038080Y017885D03*
X036080Y017385D03*
X035080Y017385D03*
X019830Y023322D03*
X018830Y023322D03*
X018830Y024322D03*
X019830Y024322D03*
X010330Y016822D03*
X009330Y016822D03*
X009330Y015822D03*
X010330Y015822D03*
X010330Y014822D03*
X009330Y014322D03*
X008330Y014322D03*
X010330Y013822D03*
X010330Y012822D03*
X010330Y011822D03*
X010330Y010822D03*
X010330Y009822D03*
X010330Y008822D03*
X011330Y008822D03*
X014580Y009322D03*
X014580Y010322D03*
X015580Y010322D03*
X016580Y010322D03*
X015580Y011822D03*
X014580Y011822D03*
X014580Y012822D03*
X015580Y012822D03*
X015580Y013822D03*
X014580Y013822D03*
X014580Y014822D03*
X015580Y014822D03*
X015580Y015822D03*
X014580Y015822D03*
X017080Y014822D03*
X018080Y014822D03*
X018080Y013822D03*
X017080Y013822D03*
D12*
X026779Y012822D03*
X027881Y012822D03*
X027881Y011322D03*
X026779Y011322D03*
X026779Y008572D03*
X027881Y008572D03*
X027881Y007072D03*
X026779Y007072D03*
X026779Y015822D03*
X027881Y015822D03*
X027881Y017322D03*
X026779Y017322D03*
X026779Y020072D03*
X027881Y020072D03*
X027881Y021572D03*
X026779Y021572D03*
D13*
X019796Y015197D03*
X018614Y015197D03*
X018614Y013447D03*
X019796Y013447D03*
X011296Y018947D03*
X010114Y018947D03*
X025239Y004197D03*
X026421Y004197D03*
D14*
X021330Y004322D03*
X018455Y008822D03*
X017955Y011322D03*
X017955Y016322D03*
X018455Y020322D03*
X021330Y024322D03*
X029455Y016822D03*
X028455Y011822D03*
X010205Y005572D03*
X006705Y007072D03*
D15*
X005705Y007072D03*
X009205Y005572D03*
X018455Y007822D03*
X022330Y004322D03*
X029455Y011822D03*
X028455Y016822D03*
X018455Y019322D03*
X017955Y017322D03*
X017955Y012322D03*
X022330Y024322D03*
D16*
X022330Y021413D03*
X022330Y020232D03*
X022330Y017163D03*
X022330Y015982D03*
X022330Y012663D03*
X022330Y011482D03*
X022330Y008413D03*
X022330Y007232D03*
X013080Y013482D03*
X013080Y014663D03*
X012080Y016607D03*
X012080Y017788D03*
X012205Y020357D03*
X012205Y021538D03*
X012205Y021857D03*
X012205Y023038D03*
X008330Y022788D03*
X008330Y021607D03*
X008330Y020288D03*
X008330Y019107D03*
X011330Y010913D03*
X011330Y009732D03*
X011080Y007413D03*
X011080Y006232D03*
X031455Y016982D03*
X032330Y016663D03*
X032330Y015482D03*
X031455Y018163D03*
D17*
X032330Y018010D03*
X032330Y017135D03*
X031455Y016510D03*
X031455Y015635D03*
X029830Y015510D03*
X029080Y015510D03*
X028330Y015510D03*
X028330Y014635D03*
X029080Y014635D03*
X029080Y014010D03*
X028330Y014010D03*
X028330Y013135D03*
X029080Y013135D03*
X029830Y013135D03*
X029830Y014010D03*
X029830Y014635D03*
X035330Y014760D03*
X035330Y015635D03*
X027830Y006385D03*
X027830Y005510D03*
X021330Y007385D03*
X021330Y008260D03*
X021330Y011635D03*
X021330Y012510D03*
X016705Y012760D03*
X016705Y013635D03*
X013080Y013010D03*
X012080Y013635D03*
X012080Y014510D03*
X013080Y015135D03*
X013080Y016010D03*
X012955Y016760D03*
X012955Y017635D03*
X011330Y020510D03*
X010455Y020510D03*
X010455Y021385D03*
X010455Y021635D03*
X010455Y022510D03*
X011330Y022885D03*
X011330Y022010D03*
X011330Y021385D03*
X007330Y021760D03*
X007330Y022635D03*
X007455Y020135D03*
X006455Y020135D03*
X006455Y019260D03*
X007455Y019260D03*
X013080Y012135D03*
X012080Y010510D03*
X012080Y009635D03*
X010080Y007510D03*
X010080Y006635D03*
X011080Y005760D03*
X011080Y004885D03*
X004580Y006635D03*
X004580Y007510D03*
X021330Y016135D03*
X021330Y017010D03*
X021330Y020385D03*
X021330Y021260D03*
D18*
X015080Y019822D03*
X004580Y020822D03*
X003580Y009322D03*
X017330Y004822D03*
X028955Y009322D03*
X028955Y021322D03*
D19*
X028955Y019322D03*
X015080Y021822D03*
X002580Y020822D03*
X003580Y011322D03*
X019330Y004822D03*
X028955Y007322D03*
D20*
X035456Y011947D03*
X035456Y012572D03*
X036204Y012572D03*
X036581Y012572D03*
X036581Y011947D03*
X036204Y011947D03*
X037329Y011947D03*
X037329Y012572D03*
X036204Y013697D03*
X036204Y014197D03*
X035456Y014197D03*
X035456Y013697D03*
D21*
X037705Y013571D03*
X037705Y013948D03*
X038330Y013948D03*
X038330Y013571D03*
X038330Y012823D03*
X037705Y012823D03*
X037705Y014696D03*
X038330Y014696D03*
X017205Y015948D03*
X016705Y015948D03*
X016705Y016696D03*
X016705Y016948D03*
X017205Y016948D03*
X017205Y016696D03*
X017205Y017696D03*
X017205Y017948D03*
X016705Y017948D03*
X016705Y017696D03*
X015955Y017696D03*
X015955Y017948D03*
X015455Y017948D03*
X015455Y017696D03*
X015455Y016948D03*
X015955Y016948D03*
X015955Y018696D03*
X015455Y018696D03*
X016705Y018696D03*
X017205Y018696D03*
D22*
X017642Y012322D03*
X016767Y012322D03*
X012892Y005947D03*
X012017Y005947D03*
X007392Y004447D03*
X006517Y004447D03*
X006892Y005572D03*
X006017Y005572D03*
X025392Y005072D03*
X026267Y005072D03*
D23*
X009205Y019028D03*
X009205Y020367D03*
X014330Y020153D03*
X014330Y021492D03*
D24*
X004345Y017542D02*
X003565Y017542D01*
X003565Y015572D02*
X004345Y015572D01*
X004345Y013602D02*
X003565Y013602D01*
D25*
X036580Y013947D03*
X036580Y007072D03*
X036580Y020822D03*
D26*
X034580Y022822D03*
X038580Y022822D03*
X038580Y018822D03*
X038580Y015947D03*
X034580Y015947D03*
X034580Y018822D03*
X034580Y011947D03*
X034580Y009072D03*
X038580Y009072D03*
X038580Y011947D03*
X038580Y005072D03*
X034580Y005072D03*
D27*
X002830Y002947D03*
X002830Y024947D03*
X038080Y024947D03*
X038080Y002947D03*
D28*
X012080Y024572D03*
X010080Y024572D03*
X008080Y024572D03*
D29*
X004830Y017620D03*
X004830Y016025D03*
X004830Y015120D03*
X004830Y013525D03*
D30*
X004755Y024947D03*
X004155Y024947D03*
D31*
X004455Y024947D03*
D32*
X002830Y004872D03*
X002830Y004272D03*
X037330Y004272D03*
X037330Y004872D03*
X037330Y023022D03*
X037330Y023622D03*
D33*
X037330Y023322D03*
X037330Y004572D03*
X002830Y004572D03*
D34*
X005330Y005521D03*
X005330Y006624D03*
D35*
X004380Y006572D02*
X003780Y006572D01*
X003780Y007572D02*
X004380Y007572D01*
D36*
X002955Y005447D03*
X005705Y004572D03*
X006705Y004697D03*
X008955Y007447D03*
X010830Y007322D03*
X011330Y007322D03*
X012018Y007447D03*
X012018Y007760D03*
X012018Y008072D03*
X012018Y008385D03*
X012018Y008697D03*
X012018Y009010D03*
X011143Y009447D03*
X010830Y009447D03*
X011455Y010947D03*
X011768Y010947D03*
X011580Y011697D03*
X012830Y011072D03*
X013705Y012197D03*
X013455Y012822D03*
X013455Y013197D03*
X012330Y014947D03*
X012330Y015322D03*
X013080Y016072D03*
X012080Y016447D03*
X011080Y017322D03*
X011830Y017572D03*
X012080Y017822D03*
X012330Y017572D03*
X012580Y017822D03*
X012830Y017572D03*
X013080Y017822D03*
X010955Y019322D03*
X010330Y018947D03*
X010080Y018697D03*
X010080Y019197D03*
X009830Y019697D03*
X008580Y019322D03*
X008330Y019072D03*
X008080Y019322D03*
X007830Y019072D03*
X007580Y019322D03*
X007330Y019072D03*
X006455Y018697D03*
X006080Y017697D03*
X006705Y016322D03*
X009455Y012947D03*
X007830Y011072D03*
X009080Y010572D03*
X009080Y009447D03*
X012268Y006572D03*
X012830Y006072D03*
X013830Y006572D03*
X014205Y006322D03*
X013643Y007447D03*
X013643Y007760D03*
X013643Y008072D03*
X013643Y008385D03*
X013643Y008697D03*
X013643Y009010D03*
X012705Y005010D03*
X013080Y004760D03*
X016955Y002197D03*
X017330Y001947D03*
X017705Y001822D03*
X018080Y001822D03*
X018330Y004072D03*
X018705Y004072D03*
X017955Y004197D03*
X022205Y001822D03*
X022580Y001822D03*
X022955Y001822D03*
X023330Y001822D03*
X023830Y002572D03*
X023830Y003572D03*
X022955Y004197D03*
X022955Y004697D03*
X024580Y004322D03*
X024955Y004322D03*
X025330Y003072D03*
X026330Y003072D03*
X027955Y001947D03*
X028205Y001697D03*
X027955Y001447D03*
X028455Y001447D03*
X028705Y001697D03*
X028955Y001447D03*
X029205Y001697D03*
X029455Y001447D03*
X029705Y001697D03*
X029955Y001447D03*
X029955Y001947D03*
X029705Y002197D03*
X029455Y001947D03*
X029205Y002197D03*
X028955Y001947D03*
X028705Y002197D03*
X028455Y001947D03*
X028205Y002197D03*
X028455Y002447D03*
X028705Y002697D03*
X028955Y002447D03*
X029205Y002697D03*
X029455Y002447D03*
X029705Y002697D03*
X029955Y002447D03*
X029955Y002947D03*
X029705Y003197D03*
X029455Y002947D03*
X029205Y003197D03*
X028955Y002947D03*
X028580Y004197D03*
X029080Y004822D03*
X027080Y005322D03*
X026705Y005322D03*
X027330Y005947D03*
X026705Y006072D03*
X022580Y006572D03*
X022580Y006947D03*
X021080Y008697D03*
X021080Y009072D03*
X022580Y010822D03*
X022580Y011197D03*
X021080Y012947D03*
X021080Y013322D03*
X019705Y013447D03*
X019705Y015197D03*
X022580Y015322D03*
X022580Y015697D03*
X021080Y017447D03*
X021080Y017822D03*
X022580Y019572D03*
X022580Y019947D03*
X021080Y021697D03*
X021080Y022072D03*
X021955Y023197D03*
X021705Y023447D03*
X021455Y023697D03*
X022330Y023322D03*
X027955Y024572D03*
X028205Y024322D03*
X028455Y024572D03*
X028705Y024322D03*
X028955Y024572D03*
X029205Y024322D03*
X029455Y024572D03*
X029705Y024322D03*
X029955Y024572D03*
X030205Y024322D03*
X030455Y024572D03*
X030705Y024322D03*
X030705Y024822D03*
X030455Y025072D03*
X030205Y024822D03*
X029955Y025072D03*
X029705Y024822D03*
X029455Y025072D03*
X029205Y024822D03*
X028955Y025072D03*
X028705Y024822D03*
X028455Y025072D03*
X028205Y024822D03*
X027955Y025072D03*
X028205Y025322D03*
X027955Y025572D03*
X028205Y025822D03*
X028455Y025572D03*
X028705Y025322D03*
X028955Y025572D03*
X029205Y025322D03*
X029455Y025572D03*
X029705Y025322D03*
X029955Y025572D03*
X030205Y025322D03*
X030455Y025572D03*
X030705Y025322D03*
X030705Y025822D03*
X030455Y026072D03*
X030205Y025822D03*
X029955Y026072D03*
X029705Y025822D03*
X029455Y026072D03*
X029205Y025822D03*
X028955Y026072D03*
X028705Y025822D03*
X028455Y026072D03*
X028205Y026322D03*
X027955Y026072D03*
X028705Y026322D03*
X029205Y026322D03*
X029705Y026322D03*
X030205Y026322D03*
X030705Y026322D03*
X031955Y026322D03*
X031955Y025947D03*
X031955Y025572D03*
X032330Y025572D03*
X032705Y025572D03*
X033080Y025572D03*
X033455Y025572D03*
X033455Y025947D03*
X033080Y025947D03*
X032705Y025947D03*
X032330Y025947D03*
X032330Y026322D03*
X032705Y026322D03*
X033080Y026322D03*
X033455Y026322D03*
X034705Y026322D03*
X034955Y026072D03*
X034705Y025822D03*
X034955Y025572D03*
X034705Y025322D03*
X034955Y025072D03*
X034705Y024822D03*
X034955Y024572D03*
X034705Y024322D03*
X035205Y024322D03*
X035455Y024572D03*
X035705Y024322D03*
X035955Y024572D03*
X035705Y024822D03*
X035455Y025072D03*
X035205Y024822D03*
X035205Y025322D03*
X035455Y025572D03*
X035705Y025322D03*
X035955Y025072D03*
X035955Y025572D03*
X035705Y025822D03*
X035455Y026072D03*
X035205Y025822D03*
X035205Y026322D03*
X035705Y026322D03*
X035955Y026072D03*
X033455Y025197D03*
X033080Y025197D03*
X032705Y025197D03*
X032330Y025197D03*
X031955Y025197D03*
X032893Y020322D03*
X033893Y020322D03*
X031705Y018072D03*
X031705Y017697D03*
X031705Y017072D03*
X031455Y016822D03*
X031205Y016572D03*
X031705Y016572D03*
X032205Y016572D03*
X032455Y016822D03*
X032705Y016572D03*
X032705Y017072D03*
X032205Y017072D03*
X031205Y017072D03*
X032705Y015947D03*
X032705Y015572D03*
X033393Y016010D03*
X031455Y015072D03*
X030705Y014947D03*
X030705Y014572D03*
X030705Y015322D03*
X028705Y015322D03*
X027705Y015322D03*
X027705Y014697D03*
X027705Y014322D03*
X027705Y013947D03*
X027705Y013322D03*
X028705Y013322D03*
X032455Y013947D03*
X033830Y012697D03*
X036580Y013197D03*
X036580Y014697D03*
X035955Y003447D03*
X035705Y003197D03*
X035455Y002947D03*
X035705Y002697D03*
X035455Y002447D03*
X035705Y002197D03*
X035455Y001947D03*
X035705Y001697D03*
X035455Y001447D03*
X035955Y001447D03*
X035955Y001947D03*
X035955Y002447D03*
X035955Y002947D03*
X035455Y003447D03*
X034580Y003447D03*
X034330Y003197D03*
X034080Y002947D03*
X034330Y002697D03*
X034080Y002447D03*
X033455Y002697D03*
X033080Y002697D03*
X032705Y002697D03*
X032330Y002697D03*
X031955Y002697D03*
X031330Y002447D03*
X031080Y002697D03*
X030830Y002447D03*
X030830Y002947D03*
X031080Y003197D03*
X031330Y002947D03*
X031955Y003072D03*
X032330Y003072D03*
X032705Y003072D03*
X033080Y003072D03*
X033455Y003072D03*
X033455Y003447D03*
X033080Y003447D03*
X032705Y003447D03*
X032330Y003447D03*
X031955Y003447D03*
X031330Y003447D03*
X030830Y003447D03*
X034080Y003447D03*
X034580Y002947D03*
X034580Y002447D03*
X012205Y020572D03*
X011955Y020447D03*
X012080Y021447D03*
X011830Y021697D03*
X011580Y021447D03*
X011330Y021697D03*
X011080Y021447D03*
X010455Y021322D03*
X009705Y021322D03*
X009705Y021697D03*
X009705Y022072D03*
X010455Y022447D03*
X011080Y021947D03*
X011580Y021947D03*
X012080Y021947D03*
X012330Y021697D03*
X012580Y021447D03*
X012830Y021697D03*
X012580Y021947D03*
X013580Y021697D03*
X013830Y021447D03*
X014080Y021697D03*
X013830Y021947D03*
X011955Y023135D03*
X011768Y022947D03*
X011580Y023135D03*
X008705Y021947D03*
X008455Y021697D03*
X008205Y021447D03*
X007955Y021697D03*
X007705Y021447D03*
X007455Y021697D03*
X007205Y021447D03*
X006955Y021697D03*
X007205Y021947D03*
X007705Y021947D03*
X008205Y021947D03*
X008705Y021447D03*
X008330Y020447D03*
X008080Y020322D03*
X008580Y020322D03*
X006830Y020072D03*
X006705Y020697D03*
X006955Y022697D03*
X006955Y024197D03*
X007330Y024197D03*
X007330Y024572D03*
X006955Y024572D03*
M02*
