G75*
%MOIN*%
%OFA0B0*%
%FSLAX24Y24*%
%IPPOS*%
%LPD*%
%AMOC8*
5,1,8,0,0,1.08239X$1,22.5*
%
%ADD10C,0.0160*%
%ADD11R,0.0316X0.0946*%
%ADD12OC8,0.0600*%
%ADD13R,0.0710X0.0474*%
%ADD14R,0.0474X0.0710*%
%ADD15R,0.0631X0.0789*%
%ADD16OC8,0.0710*%
%ADD17C,0.0710*%
%ADD18C,0.1080*%
%ADD19OC8,0.1080*%
%ADD20R,0.0910X0.0592*%
%ADD21R,0.0880X0.0867*%
%ADD22R,0.0631X0.0631*%
%ADD23R,0.0560X0.0240*%
%ADD24R,0.0592X0.0910*%
%ADD25R,0.0867X0.0880*%
%ADD26R,0.0250X0.0630*%
%ADD27R,0.1200X0.0730*%
%ADD28R,0.0190X0.0630*%
%ADD29R,0.0820X0.0740*%
%ADD30C,0.0860*%
%ADD31C,0.0840*%
%ADD32C,0.0940*%
%ADD33C,0.2380*%
%ADD34OC8,0.0780*%
%ADD35R,0.0480X0.0450*%
%ADD36R,0.0946X0.0316*%
%ADD37R,0.2080X0.2580*%
%ADD38R,0.1080X0.2580*%
%ADD39R,0.0710X0.0946*%
%ADD40C,0.0680*%
%ADD41R,0.0671X0.0671*%
%ADD42R,0.0631X0.1104*%
%ADD43C,0.0397*%
D10*
X027830Y001197D02*
X030205Y001197D01*
X030205Y003447D01*
X028955Y003447D01*
X027830Y002322D01*
X027830Y001197D01*
X027830Y001314D02*
X030205Y001314D01*
X030205Y001473D02*
X027830Y001473D01*
X027830Y001631D02*
X030205Y001631D01*
X030205Y001790D02*
X027830Y001790D01*
X027830Y001948D02*
X030205Y001948D01*
X030205Y002107D02*
X027830Y002107D01*
X027830Y002265D02*
X030205Y002265D01*
X030205Y002424D02*
X027932Y002424D01*
X028090Y002582D02*
X030205Y002582D01*
X030205Y002741D02*
X028249Y002741D01*
X028407Y002899D02*
X030205Y002899D01*
X030205Y003058D02*
X028566Y003058D01*
X028724Y003216D02*
X030205Y003216D01*
X030205Y003375D02*
X028883Y003375D01*
X035205Y003375D02*
X036205Y003375D01*
X036205Y003533D02*
X035205Y003533D01*
X035205Y003692D02*
X036205Y003692D01*
X036205Y003697D02*
X036205Y001197D01*
X035205Y001197D01*
X035205Y003697D01*
X036205Y003697D01*
X036205Y003216D02*
X035205Y003216D01*
X035205Y003058D02*
X036205Y003058D01*
X036205Y002899D02*
X035205Y002899D01*
X035205Y002741D02*
X036205Y002741D01*
X036205Y002582D02*
X035205Y002582D01*
X035205Y002424D02*
X036205Y002424D01*
X036205Y002265D02*
X035205Y002265D01*
X035205Y002107D02*
X036205Y002107D01*
X036205Y001948D02*
X035205Y001948D01*
X035205Y001790D02*
X036205Y001790D01*
X036205Y001631D02*
X035205Y001631D01*
X035205Y001473D02*
X036205Y001473D01*
X036205Y001314D02*
X035205Y001314D01*
X033955Y014572D02*
X033080Y014572D01*
X033080Y015572D01*
X033955Y015572D01*
X033955Y014572D01*
X033955Y014628D02*
X033080Y014628D01*
X033080Y014787D02*
X033955Y014787D01*
X033955Y014945D02*
X033080Y014945D01*
X033080Y015104D02*
X033955Y015104D01*
X033955Y015262D02*
X033080Y015262D01*
X033080Y015421D02*
X033955Y015421D01*
X034455Y024072D02*
X034455Y026572D01*
X036205Y026572D01*
X036205Y024072D01*
X034455Y024072D01*
X034455Y024138D02*
X036205Y024138D01*
X036205Y024297D02*
X034455Y024297D01*
X034455Y024455D02*
X036205Y024455D01*
X036205Y024614D02*
X034455Y024614D01*
X034455Y024772D02*
X036205Y024772D01*
X036205Y024931D02*
X034455Y024931D01*
X034455Y025089D02*
X036205Y025089D01*
X036205Y025248D02*
X034455Y025248D01*
X034455Y025406D02*
X036205Y025406D01*
X036205Y025565D02*
X034455Y025565D01*
X034455Y025723D02*
X036205Y025723D01*
X036205Y025882D02*
X034455Y025882D01*
X034455Y026040D02*
X036205Y026040D01*
X036205Y026199D02*
X034455Y026199D01*
X034455Y026357D02*
X036205Y026357D01*
X036205Y026516D02*
X034455Y026516D01*
X030955Y026516D02*
X027830Y026516D01*
X027830Y026572D02*
X030955Y026572D01*
X030955Y024072D01*
X027830Y024072D01*
X027830Y026572D01*
X027830Y026357D02*
X030955Y026357D01*
X030955Y026199D02*
X027830Y026199D01*
X027830Y026040D02*
X030955Y026040D01*
X030955Y025882D02*
X027830Y025882D01*
X027830Y025723D02*
X030955Y025723D01*
X030955Y025565D02*
X027830Y025565D01*
X027830Y025406D02*
X030955Y025406D01*
X030955Y025248D02*
X027830Y025248D01*
X027830Y025089D02*
X030955Y025089D01*
X030955Y024931D02*
X027830Y024931D01*
X027830Y024772D02*
X030955Y024772D01*
X030955Y024614D02*
X027830Y024614D01*
X027830Y024455D02*
X030955Y024455D01*
X030955Y024297D02*
X027830Y024297D01*
X027830Y024138D02*
X030955Y024138D01*
D11*
X022580Y021846D03*
X022080Y021846D03*
X021580Y021846D03*
X021080Y021846D03*
X021080Y019799D03*
X021580Y019799D03*
X022080Y019799D03*
X022580Y019799D03*
X022580Y017596D03*
X022080Y017596D03*
X021580Y017596D03*
X021080Y017596D03*
X021080Y015549D03*
X021580Y015549D03*
X022080Y015549D03*
X022580Y015549D03*
X022580Y013096D03*
X022080Y013096D03*
X021580Y013096D03*
X021080Y013096D03*
X021080Y011049D03*
X021580Y011049D03*
X022080Y011049D03*
X022580Y011049D03*
X022580Y008846D03*
X022080Y008846D03*
X021580Y008846D03*
X021080Y008846D03*
X021080Y006799D03*
X021580Y006799D03*
X022080Y006799D03*
X022580Y006799D03*
X013330Y013049D03*
X012830Y013049D03*
X012330Y013049D03*
X011830Y013049D03*
X011830Y015096D03*
X012330Y015096D03*
X012830Y015096D03*
X013330Y015096D03*
X031205Y015799D03*
X031705Y015799D03*
X032205Y015799D03*
X032705Y015799D03*
X032705Y017846D03*
X032205Y017846D03*
X031705Y017846D03*
X031205Y017846D03*
D12*
X035080Y017385D03*
X036080Y017385D03*
X037080Y017885D03*
X038080Y017885D03*
X038080Y016885D03*
X037080Y016885D03*
X037080Y010572D03*
X038080Y010572D03*
X036080Y010572D03*
X035080Y010572D03*
X033330Y008572D03*
X033330Y007572D03*
X033330Y006572D03*
X033330Y005572D03*
X031455Y005447D03*
X030455Y005447D03*
X029455Y005447D03*
X028455Y005447D03*
X025830Y006322D03*
X024830Y006322D03*
X023830Y006322D03*
X023830Y007322D03*
X024830Y007322D03*
X025830Y007322D03*
X025830Y008322D03*
X024830Y008322D03*
X023830Y008322D03*
X023830Y009322D03*
X024830Y009322D03*
X025830Y009322D03*
X025830Y010572D03*
X024830Y010572D03*
X023830Y010572D03*
X023830Y011572D03*
X024830Y011572D03*
X025830Y011572D03*
X025830Y012572D03*
X024830Y012572D03*
X023830Y012572D03*
X023830Y013572D03*
X024830Y013572D03*
X025830Y013572D03*
X025830Y015072D03*
X024830Y015072D03*
X023830Y015072D03*
X023830Y016072D03*
X024830Y016072D03*
X025830Y016072D03*
X025830Y017072D03*
X024830Y017072D03*
X023830Y017072D03*
X023830Y018072D03*
X024830Y018072D03*
X025830Y018072D03*
X025830Y019322D03*
X024830Y019322D03*
X023830Y019322D03*
X023830Y020322D03*
X024830Y020322D03*
X025830Y020322D03*
X025830Y021322D03*
X024830Y021322D03*
X023830Y021322D03*
X023830Y022322D03*
X024830Y022322D03*
X025830Y022322D03*
X019830Y023322D03*
X018830Y023322D03*
X018830Y024322D03*
X019830Y024322D03*
X010330Y016822D03*
X009330Y016822D03*
X009330Y015822D03*
X010330Y015822D03*
X010330Y014822D03*
X009330Y014322D03*
X008330Y014322D03*
X010330Y013822D03*
X010330Y012822D03*
X010330Y011822D03*
X010330Y010822D03*
X010330Y009822D03*
X010330Y008822D03*
X011330Y008822D03*
X014580Y009322D03*
X014580Y010322D03*
X015580Y010322D03*
X016580Y010322D03*
X015580Y011822D03*
X014580Y011822D03*
X014580Y012822D03*
X015580Y012822D03*
X015580Y013822D03*
X014580Y013822D03*
X014580Y014822D03*
X015580Y014822D03*
X015580Y015822D03*
X014580Y015822D03*
X017080Y014822D03*
X018080Y014822D03*
X018080Y013822D03*
X017080Y013822D03*
D13*
X012830Y012010D03*
X012830Y011135D03*
X015080Y008260D03*
X015830Y008260D03*
X016580Y008260D03*
X016580Y007385D03*
X015830Y007385D03*
X015080Y007385D03*
X020330Y007385D03*
X020330Y008260D03*
X023830Y004635D03*
X023830Y003760D03*
X033580Y013010D03*
X033580Y013885D03*
X032455Y014135D03*
X032455Y015010D03*
X031330Y015010D03*
X031330Y014135D03*
X033393Y016135D03*
X033393Y017010D03*
X020330Y021385D03*
X019580Y021385D03*
X019580Y022260D03*
X020330Y022260D03*
X017830Y022635D03*
X017080Y022635D03*
X016330Y023385D03*
X017080Y023510D03*
X017830Y023510D03*
X016330Y024260D03*
X013080Y024010D03*
X013080Y023135D03*
X009080Y023135D03*
X009080Y024010D03*
X004955Y004510D03*
X004955Y003635D03*
X004955Y003135D03*
X004955Y002260D03*
D14*
X018892Y010072D03*
X019767Y010072D03*
X020142Y010072D03*
X021017Y010072D03*
X020517Y011572D03*
X019642Y011572D03*
X019642Y012572D03*
X020517Y012572D03*
X020517Y016072D03*
X019642Y016072D03*
X019642Y017072D03*
X020517Y017072D03*
X020142Y018822D03*
X021017Y018822D03*
X012018Y019822D03*
X011143Y019822D03*
X007643Y019572D03*
X006768Y019572D03*
X010142Y023197D03*
X011017Y023197D03*
X007768Y023572D03*
X006893Y023572D03*
X026767Y006072D03*
X027642Y006072D03*
X027643Y004697D03*
X028518Y004697D03*
X026268Y003197D03*
X025393Y003197D03*
D15*
X019874Y013572D03*
X018536Y013572D03*
X018536Y015072D03*
X019874Y015072D03*
D16*
X017955Y016322D03*
X018455Y020322D03*
X021330Y024322D03*
X029455Y016822D03*
X028455Y011822D03*
X018455Y008822D03*
X017955Y011322D03*
X010205Y005572D03*
X006705Y007072D03*
X021330Y004322D03*
D17*
X022330Y004322D03*
X018455Y007822D03*
X017955Y012322D03*
X017955Y017322D03*
X018455Y019322D03*
X022330Y024322D03*
X028455Y016822D03*
X029455Y011822D03*
X009205Y005572D03*
X005705Y007072D03*
D18*
X003580Y009322D03*
X017330Y004822D03*
X028955Y009322D03*
X015080Y019822D03*
X004580Y020822D03*
X028955Y021322D03*
D19*
X028955Y019322D03*
X015080Y021822D03*
X002580Y020822D03*
X003580Y011322D03*
X019330Y004822D03*
X028955Y007322D03*
D20*
X028697Y013820D03*
X028697Y014824D03*
X009213Y011574D03*
X009213Y010570D03*
X006447Y017695D03*
X006447Y018699D03*
D21*
X007713Y018197D03*
X007947Y011072D03*
X029963Y014322D03*
D22*
X015993Y017107D03*
X014189Y017107D03*
X009368Y012982D03*
X007564Y012982D03*
X008114Y015035D03*
X008114Y016839D03*
X011671Y011610D03*
X011671Y009806D03*
D23*
X015600Y009452D03*
X015600Y009202D03*
X015600Y008942D03*
X015600Y008692D03*
X016560Y008692D03*
X016560Y008942D03*
X016560Y009202D03*
X016560Y009452D03*
X017100Y023942D03*
X017100Y024192D03*
X017100Y024452D03*
X017100Y024702D03*
X018060Y024702D03*
X018060Y024452D03*
X018060Y024192D03*
X018060Y023942D03*
D24*
X010332Y018939D03*
X009328Y018939D03*
X009082Y009206D03*
X008078Y009206D03*
D25*
X008580Y007939D03*
X009830Y020206D03*
D26*
X008470Y020837D03*
X008210Y020837D03*
X007960Y020837D03*
X007700Y020837D03*
X007450Y020837D03*
X007190Y020837D03*
X007190Y022557D03*
X007450Y022557D03*
X007700Y022557D03*
X007960Y022557D03*
X008210Y022557D03*
X008470Y022557D03*
D27*
X007830Y021697D03*
D28*
X011190Y020837D03*
X011380Y020837D03*
X011580Y020837D03*
X011780Y020837D03*
X011970Y020837D03*
X011970Y022557D03*
X011780Y022557D03*
X011580Y022557D03*
X011380Y022557D03*
X011190Y022557D03*
D29*
X011580Y021697D03*
D30*
X004345Y017542D02*
X003565Y017542D01*
X003565Y015572D02*
X004345Y015572D01*
X004345Y013602D02*
X003565Y013602D01*
D31*
X036580Y013947D03*
X036580Y007072D03*
X036580Y020822D03*
D32*
X034580Y022822D03*
X038580Y022822D03*
X038580Y018822D03*
X038580Y015947D03*
X034580Y015947D03*
X034580Y018822D03*
X034580Y011947D03*
X034580Y009072D03*
X038580Y009072D03*
X038580Y011947D03*
X038580Y005072D03*
X034580Y005072D03*
D33*
X002830Y002947D03*
X002830Y024947D03*
X038080Y024947D03*
X038080Y002947D03*
D34*
X012080Y024572D03*
X010080Y024572D03*
X008080Y024572D03*
D35*
X009080Y024218D03*
X009080Y024927D03*
X013080Y024927D03*
X013080Y024218D03*
D36*
X024806Y005322D03*
X024806Y004822D03*
X024806Y004322D03*
X024806Y003822D03*
X026854Y003822D03*
X026854Y004322D03*
X026854Y004822D03*
X026854Y005322D03*
X007979Y005072D03*
X007979Y004572D03*
X007979Y004072D03*
X007979Y003572D03*
X005931Y003572D03*
X005931Y004072D03*
X005931Y004572D03*
X005931Y005072D03*
D37*
X032705Y002447D03*
X032705Y025322D03*
D38*
X031080Y002447D03*
X034330Y002447D03*
D39*
X004131Y005197D03*
X003029Y005197D03*
D40*
X003780Y006572D02*
X004380Y006572D01*
X004380Y007572D02*
X003780Y007572D01*
D41*
X006207Y002815D03*
X006207Y001830D03*
D42*
X007835Y002322D03*
D43*
X006705Y004697D03*
X005705Y004572D03*
X002955Y005447D03*
X008955Y007447D03*
X010830Y007322D03*
X011330Y007322D03*
X012018Y007447D03*
X012018Y007760D03*
X012018Y008072D03*
X012018Y008385D03*
X012018Y008697D03*
X012018Y009010D03*
X011143Y009447D03*
X010830Y009447D03*
X011455Y010947D03*
X011768Y010947D03*
X011580Y011697D03*
X012830Y011072D03*
X013705Y012197D03*
X013455Y012822D03*
X013455Y013197D03*
X012330Y014947D03*
X012330Y015322D03*
X013080Y016072D03*
X012080Y016447D03*
X011080Y017322D03*
X011830Y017572D03*
X012080Y017822D03*
X012330Y017572D03*
X012580Y017822D03*
X012830Y017572D03*
X013080Y017822D03*
X010955Y019322D03*
X010330Y018947D03*
X010080Y018697D03*
X010080Y019197D03*
X009830Y019697D03*
X008580Y019322D03*
X008330Y019072D03*
X008080Y019322D03*
X007830Y019072D03*
X007580Y019322D03*
X007330Y019072D03*
X006455Y018697D03*
X006080Y017697D03*
X006705Y016322D03*
X009455Y012947D03*
X007830Y011072D03*
X009080Y010572D03*
X009080Y009447D03*
X012268Y006572D03*
X012830Y006072D03*
X013830Y006572D03*
X014205Y006322D03*
X013643Y007447D03*
X013643Y007760D03*
X013643Y008072D03*
X013643Y008385D03*
X013643Y008697D03*
X013643Y009010D03*
X012705Y005010D03*
X013080Y004760D03*
X016955Y002197D03*
X017330Y001947D03*
X017705Y001822D03*
X018080Y001822D03*
X018330Y004072D03*
X018705Y004072D03*
X017955Y004197D03*
X022205Y001822D03*
X022580Y001822D03*
X022955Y001822D03*
X023330Y001822D03*
X023830Y002572D03*
X023830Y003572D03*
X022955Y004197D03*
X022955Y004697D03*
X024580Y004322D03*
X024955Y004322D03*
X025330Y003072D03*
X026330Y003072D03*
X027955Y001947D03*
X028205Y001697D03*
X027955Y001447D03*
X028455Y001447D03*
X028705Y001697D03*
X028955Y001447D03*
X029205Y001697D03*
X029455Y001447D03*
X029705Y001697D03*
X029955Y001447D03*
X029955Y001947D03*
X029705Y002197D03*
X029455Y001947D03*
X029205Y002197D03*
X028955Y001947D03*
X028705Y002197D03*
X028455Y001947D03*
X028205Y002197D03*
X028455Y002447D03*
X028705Y002697D03*
X028955Y002447D03*
X029205Y002697D03*
X029455Y002447D03*
X029705Y002697D03*
X029955Y002447D03*
X029955Y002947D03*
X029705Y003197D03*
X029455Y002947D03*
X029205Y003197D03*
X028955Y002947D03*
X028580Y004197D03*
X029080Y004822D03*
X027080Y005322D03*
X026705Y005322D03*
X027330Y005947D03*
X026705Y006072D03*
X022580Y006572D03*
X022580Y006947D03*
X021080Y008697D03*
X021080Y009072D03*
X022580Y010822D03*
X022580Y011197D03*
X021080Y012947D03*
X021080Y013322D03*
X019705Y013447D03*
X019705Y015197D03*
X022580Y015322D03*
X022580Y015697D03*
X021080Y017447D03*
X021080Y017822D03*
X022580Y019572D03*
X022580Y019947D03*
X021080Y021697D03*
X021080Y022072D03*
X021955Y023197D03*
X021705Y023447D03*
X021455Y023697D03*
X022330Y023322D03*
X027955Y024572D03*
X028205Y024322D03*
X028455Y024572D03*
X028705Y024322D03*
X028955Y024572D03*
X029205Y024322D03*
X029455Y024572D03*
X029705Y024322D03*
X029955Y024572D03*
X030205Y024322D03*
X030455Y024572D03*
X030705Y024322D03*
X030705Y024822D03*
X030455Y025072D03*
X030205Y024822D03*
X029955Y025072D03*
X029705Y024822D03*
X029455Y025072D03*
X029205Y024822D03*
X028955Y025072D03*
X028705Y024822D03*
X028455Y025072D03*
X028205Y024822D03*
X027955Y025072D03*
X028205Y025322D03*
X027955Y025572D03*
X028205Y025822D03*
X028455Y025572D03*
X028705Y025322D03*
X028955Y025572D03*
X029205Y025322D03*
X029455Y025572D03*
X029705Y025322D03*
X029955Y025572D03*
X030205Y025322D03*
X030455Y025572D03*
X030705Y025322D03*
X030705Y025822D03*
X030455Y026072D03*
X030205Y025822D03*
X029955Y026072D03*
X029705Y025822D03*
X029455Y026072D03*
X029205Y025822D03*
X028955Y026072D03*
X028705Y025822D03*
X028455Y026072D03*
X028205Y026322D03*
X027955Y026072D03*
X028705Y026322D03*
X029205Y026322D03*
X029705Y026322D03*
X030205Y026322D03*
X030705Y026322D03*
X031955Y026322D03*
X031955Y025947D03*
X031955Y025572D03*
X032330Y025572D03*
X032705Y025572D03*
X033080Y025572D03*
X033455Y025572D03*
X033455Y025947D03*
X033080Y025947D03*
X032705Y025947D03*
X032330Y025947D03*
X032330Y026322D03*
X032705Y026322D03*
X033080Y026322D03*
X033455Y026322D03*
X034705Y026322D03*
X034955Y026072D03*
X034705Y025822D03*
X034955Y025572D03*
X034705Y025322D03*
X034955Y025072D03*
X034705Y024822D03*
X034955Y024572D03*
X034705Y024322D03*
X035205Y024322D03*
X035455Y024572D03*
X035705Y024322D03*
X035955Y024572D03*
X035705Y024822D03*
X035455Y025072D03*
X035205Y024822D03*
X035205Y025322D03*
X035455Y025572D03*
X035705Y025322D03*
X035955Y025072D03*
X035955Y025572D03*
X035705Y025822D03*
X035455Y026072D03*
X035205Y025822D03*
X035205Y026322D03*
X035705Y026322D03*
X035955Y026072D03*
X033455Y025197D03*
X033080Y025197D03*
X032705Y025197D03*
X032330Y025197D03*
X031955Y025197D03*
X032893Y020322D03*
X033893Y020322D03*
X031705Y018072D03*
X031705Y017697D03*
X031705Y017072D03*
X031455Y016822D03*
X031205Y016572D03*
X031705Y016572D03*
X032205Y016572D03*
X032455Y016822D03*
X032705Y016572D03*
X032705Y017072D03*
X032205Y017072D03*
X031205Y017072D03*
X032705Y015947D03*
X032705Y015572D03*
X033393Y016010D03*
X031455Y015072D03*
X030705Y014947D03*
X030705Y014572D03*
X030705Y015322D03*
X028705Y015322D03*
X027705Y015322D03*
X027705Y014697D03*
X027705Y014322D03*
X027705Y013947D03*
X027705Y013322D03*
X028705Y013322D03*
X032455Y013947D03*
X033830Y012697D03*
X036580Y013197D03*
X036580Y014697D03*
X035955Y003447D03*
X035705Y003197D03*
X035455Y002947D03*
X035705Y002697D03*
X035455Y002447D03*
X035705Y002197D03*
X035455Y001947D03*
X035705Y001697D03*
X035455Y001447D03*
X035955Y001447D03*
X035955Y001947D03*
X035955Y002447D03*
X035955Y002947D03*
X035455Y003447D03*
X034580Y003447D03*
X034330Y003197D03*
X034080Y002947D03*
X034330Y002697D03*
X034080Y002447D03*
X033455Y002697D03*
X033080Y002697D03*
X032705Y002697D03*
X032330Y002697D03*
X031955Y002697D03*
X031330Y002447D03*
X031080Y002697D03*
X030830Y002447D03*
X030830Y002947D03*
X031080Y003197D03*
X031330Y002947D03*
X031955Y003072D03*
X032330Y003072D03*
X032705Y003072D03*
X033080Y003072D03*
X033455Y003072D03*
X033455Y003447D03*
X033080Y003447D03*
X032705Y003447D03*
X032330Y003447D03*
X031955Y003447D03*
X031330Y003447D03*
X030830Y003447D03*
X034080Y003447D03*
X034580Y002947D03*
X034580Y002447D03*
X012205Y020572D03*
X011955Y020447D03*
X012080Y021447D03*
X011830Y021697D03*
X011580Y021447D03*
X011330Y021697D03*
X011080Y021447D03*
X010455Y021322D03*
X009705Y021322D03*
X009705Y021697D03*
X009705Y022072D03*
X010455Y022447D03*
X011080Y021947D03*
X011580Y021947D03*
X012080Y021947D03*
X012330Y021697D03*
X012580Y021447D03*
X012830Y021697D03*
X012580Y021947D03*
X013580Y021697D03*
X013830Y021447D03*
X014080Y021697D03*
X013830Y021947D03*
X011955Y023135D03*
X011768Y022947D03*
X011580Y023135D03*
X008705Y021947D03*
X008455Y021697D03*
X008205Y021447D03*
X007955Y021697D03*
X007705Y021447D03*
X007455Y021697D03*
X007205Y021447D03*
X006955Y021697D03*
X007205Y021947D03*
X007705Y021947D03*
X008205Y021947D03*
X008705Y021447D03*
X008330Y020447D03*
X008080Y020322D03*
X008580Y020322D03*
X006830Y020072D03*
X006705Y020697D03*
X006955Y022697D03*
X006955Y024197D03*
X007330Y024197D03*
X007330Y024572D03*
X006955Y024572D03*
M02*
